<?xml version="1.0" standalone="no"?>
<!DOCTYPE svg PUBLIC "-//W3C//DTD SVG 1.1//EN" "http://www.w3.org/Graphics/SVG/1.1/DTD/svg11.dtd" >
<svg>
<metadata>
Created by FontForge 20090622 at Thu Oct 20 07:13:19 2016
 By deploy user
Copyright (c) 2013 by Flanker. All rights reserved. Digital porting: Leonardo Di Lena. Special thanks to: Romesh Naik (:Nike) that gave me hope to create this font from original scans.
</metadata>
<defs>
<font id="Semplicita-Medium" horiz-adv-x="726" >
  <font-face 
    font-family="Semplicita"
    font-weight="500"
    font-stretch="normal"
    units-per-em="1000"
    panose-1="2 11 3 2 2 1 2 2 3 4"
    ascent="750"
    descent="-250"
    x-height="435"
    cap-height="700"
    bbox="-152 -232 1150 996"
    underline-thickness="50"
    underline-position="-50"
    unicode-range="U+0020-U+1F31D"
  />
<missing-glyph horiz-adv-x="610" 
d="M49 700h512q0 -8 -0.5 -54t-0.5 -66v-460q0 -20 0.5 -66.5t0.5 -53.5h-512q0 7 0.5 53.5t0.5 66.5v460q0 20 -0.5 66t-0.5 54zM95 656v-612h420v612h-420z" />
    <glyph glyph-name="f_f" unicode="ff" horiz-adv-x="580" 
d="M450 435q17 0 45.5 0.5t32.5 0.5v-90q-6 0 -39 0.5t-39 0.5v-447q0 -20 0.5 -66t0.5 -54h-92q0 8 0.5 54t0.5 66v717q0 42 12 75q-25 33 -74 33q-133 0 -133 -190v-100q17 0 45.5 0.5t32.5 0.5v-90q-6 0 -39 0.5t-39 0.5v-447q0 -20 0.5 -66t0.5 -54h-92q0 8 0.5 54
t0.5 66v635q0 126 56.5 199t166.5 73q81 0 128 -38q47 38 116 38v-88q-40 0 -66 -27.5t-26 -74.5v-182z" />
    <glyph glyph-name="f_i" unicode="fi" horiz-adv-x="525" 
d="M450 745v-27q0 -20 0.5 -66t0.5 -54h-92q0 7 0.5 47t0.5 60q-20 20 -62 20q-133 0 -133 -190v-100q17 0 45.5 0.5t32.5 0.5v-90q-6 0 -39 0.5t-39 0.5v-447q0 -20 0.5 -66t0.5 -54h-92q0 8 0.5 54t0.5 66v635q0 126 56.5 199t166.5 73q59 0 97.5 -19t54.5 -43zM451 435
q0 -7 -0.5 -54t-0.5 -66v-195q0 -20 0.5 -66.5t0.5 -53.5h-92q0 7 0.5 53.5t0.5 66.5v195q0 19 -0.5 66t-0.5 54h92z" />
    <glyph glyph-name="f_l" unicode="fl" horiz-adv-x="525" 
d="M450 745v-625q0 -20 0.5 -66.5t0.5 -53.5h-92q0 7 0.5 53.5t0.5 66.5v585q-20 20 -62 20q-133 0 -133 -190v-100q17 0 45.5 0.5t32.5 0.5v-90q-6 0 -39 0.5t-39 0.5v-447q0 -20 0.5 -66t0.5 -54h-92q0 8 0.5 54t0.5 66v635q0 126 56.5 199t166.5 73q59 0 97.5 -19
t54.5 -43z" />
    <glyph glyph-name="f_f_i" unicode="ffi" horiz-adv-x="810" 
d="M735 745v-27q0 -20 0.5 -66t0.5 -54h-92q0 7 0.5 47t0.5 60q-20 20 -62 20q-133 0 -133 -190v-100q17 0 45.5 0.5t32.5 0.5v-90q-6 0 -39 0.5t-39 0.5v-447q0 -20 0.5 -66t0.5 -54h-92q0 8 0.5 54t0.5 66v635q0 79 22 138q-6 21 -28 36.5t-56 15.5q-133 0 -133 -190v-100
q17 0 45.5 0.5t32.5 0.5v-90q-6 0 -39 0.5t-39 0.5v-447q0 -20 0.5 -66t0.5 -54h-92q0 8 0.5 54t0.5 66v635q0 126 56.5 199t166.5 73q94 0 141 -49q57 49 144 49q59 0 97.5 -19t54.5 -43zM736 435q0 -7 -0.5 -54t-0.5 -66v-195q0 -20 0.5 -66.5t0.5 -53.5h-92q0 7 0.5 53.5
t0.5 66.5v195q0 19 -0.5 66t-0.5 54h92z" />
    <glyph glyph-name="f_f_l" unicode="ffl" horiz-adv-x="810" 
d="M735 745v-625q0 -20 0.5 -66.5t0.5 -53.5h-92q0 7 0.5 53.5t0.5 66.5v585q-20 20 -62 20q-133 0 -133 -190v-100q17 0 45.5 0.5t32.5 0.5v-90q-6 0 -39 0.5t-39 0.5v-447q0 -20 0.5 -66t0.5 -54h-92q0 8 0.5 54t0.5 66v635q0 79 22 138q-6 21 -28 36.5t-56 15.5
q-133 0 -133 -190v-100q17 0 45.5 0.5t32.5 0.5v-90q-6 0 -39 0.5t-39 0.5v-447q0 -20 0.5 -66t0.5 -54h-92q0 8 0.5 54t0.5 66v635q0 126 56.5 199t166.5 73q94 0 141 -49q57 49 144 49q59 0 97.5 -19t54.5 -43z" />
    <glyph glyph-name="f_j" unicode="fj" horiz-adv-x="525" 
d="M450 745v-27q0 -20 0.5 -66t0.5 -54h-92q0 7 0.5 47t0.5 60q-20 20 -62 20q-133 0 -133 -190v-100q17 0 45.5 0.5t32.5 0.5v-90q-6 0 -39 0.5t-39 0.5v-447q0 -20 0.5 -66t0.5 -54h-92q0 8 0.5 54t0.5 66v635q0 126 56.5 199t166.5 73q59 0 97.5 -19t54.5 -43zM451 435
q0 -7 -0.5 -54t-0.5 -66v-415q0 -20 0.5 -66t0.5 -54h-92q0 8 0.5 54t0.5 66v415q0 19 -0.5 66t-0.5 54h92z" />
    <glyph glyph-name="f_f_j" unicode="ffj" horiz-adv-x="810" 
d="M735 745v-27q0 -20 0.5 -66t0.5 -54h-92q0 7 0.5 47t0.5 60q-20 20 -62 20q-133 0 -133 -190v-100q17 0 45.5 0.5t32.5 0.5v-90q-6 0 -39 0.5t-39 0.5v-447q0 -20 0.5 -66t0.5 -54h-92q0 8 0.5 54t0.5 66v635q0 79 22 138q-6 21 -28 36.5t-56 15.5q-133 0 -133 -190v-100
q17 0 45.5 0.5t32.5 0.5v-90q-6 0 -39 0.5t-39 0.5v-447q0 -20 0.5 -66t0.5 -54h-92q0 8 0.5 54t0.5 66v635q0 126 56.5 199t166.5 73q94 0 141 -49q57 49 144 49q59 0 97.5 -19t54.5 -43zM736 435q0 -7 -0.5 -54t-0.5 -66v-415q0 -20 0.5 -66t0.5 -54h-92q0 8 0.5 54
t0.5 66v415q0 19 -0.5 66t-0.5 54h92z" />
    <glyph glyph-name="longs_longs_j" unicode="&#x17f;&#x17f;j" horiz-adv-x="810" 
d="M735 745v-27q0 -20 0.5 -66t0.5 -54h-92q0 7 0.5 47t0.5 60q-20 20 -62 20q-133 0 -133 -190v-635q0 -20 0.5 -66t0.5 -54h-92q0 8 0.5 54t0.5 66v635q0 79 22 138q-6 21 -28 36.5t-56 15.5q-133 0 -133 -190v-635q0 -20 0.5 -66t0.5 -54h-92q0 8 0.5 54t0.5 66v635
q0 126 56.5 199t166.5 73q94 0 141 -49q57 49 144 49q59 0 97.5 -19t54.5 -43zM736 435q0 -7 -0.5 -54t-0.5 -66v-415q0 -20 0.5 -66t0.5 -54h-92q0 8 0.5 54t0.5 66v415q0 19 -0.5 66t-0.5 54h92z" />
    <glyph glyph-name="longs_j" unicode="&#x17f;j" horiz-adv-x="525" 
d="M450 745v-27q0 -20 0.5 -66t0.5 -54h-92q0 7 0.5 47t0.5 60q-20 20 -62 20q-133 0 -133 -190v-635q0 -20 0.5 -66t0.5 -54h-92q0 8 0.5 54t0.5 66v635q0 126 56.5 199t166.5 73q59 0 97.5 -19t54.5 -43zM451 435q0 -7 -0.5 -54t-0.5 -66v-415q0 -20 0.5 -66t0.5 -54h-92
q0 8 0.5 54t0.5 66v415q0 19 -0.5 66t-0.5 54h92z" />
    <glyph glyph-name="longs_longs" unicode="&#x17f;&#x17f;" horiz-adv-x="580" 
d="M450 617v-717q0 -20 0.5 -66t0.5 -54h-92q0 8 0.5 54t0.5 66v717q0 42 12 75q-25 33 -74 33q-133 0 -133 -190v-635q0 -20 0.5 -66t0.5 -54h-92q0 8 0.5 54t0.5 66v635q0 126 56.5 199t166.5 73q81 0 128 -38q47 38 116 38v-88q-40 0 -66 -27.5t-26 -74.5z" />
    <glyph glyph-name="longs_i" unicode="&#x17f;i" horiz-adv-x="525" 
d="M450 745v-27q0 -20 0.5 -66t0.5 -54h-92q0 7 0.5 47t0.5 60q-20 20 -62 20q-133 0 -133 -190v-635q0 -20 0.5 -66t0.5 -54h-92q0 8 0.5 54t0.5 66v635q0 126 56.5 199t166.5 73q59 0 97.5 -19t54.5 -43zM451 435q0 -7 -0.5 -54t-0.5 -66v-195q0 -20 0.5 -66.5t0.5 -53.5
h-92q0 7 0.5 53.5t0.5 66.5v195q0 19 -0.5 66t-0.5 54h92z" />
    <glyph glyph-name="longs_l" unicode="&#x17f;l" horiz-adv-x="525" 
d="M450 745v-625q0 -20 0.5 -66.5t0.5 -53.5h-92q0 7 0.5 53.5t0.5 66.5v585q-20 20 -62 20q-133 0 -133 -190v-635q0 -20 0.5 -66t0.5 -54h-92q0 8 0.5 54t0.5 66v635q0 126 56.5 199t166.5 73q59 0 97.5 -19t54.5 -43z" />
    <glyph glyph-name="longs_longs_i" unicode="&#x17f;&#x17f;i" horiz-adv-x="810" 
d="M735 745v-27q0 -20 0.5 -66t0.5 -54h-92q0 7 0.5 47t0.5 60q-20 20 -62 20q-133 0 -133 -190v-635q0 -20 0.5 -66t0.5 -54h-92q0 8 0.5 54t0.5 66v635q0 79 22 138q-6 21 -28 36.5t-56 15.5q-133 0 -133 -190v-635q0 -20 0.5 -66t0.5 -54h-92q0 8 0.5 54t0.5 66v635
q0 126 56.5 199t166.5 73q94 0 141 -49q57 49 144 49q59 0 97.5 -19t54.5 -43zM736 435q0 -7 -0.5 -54t-0.5 -66v-195q0 -20 0.5 -66.5t0.5 -53.5h-92q0 7 0.5 53.5t0.5 66.5v195q0 19 -0.5 66t-0.5 54h92z" />
    <glyph glyph-name="longs_longs_l" unicode="&#x17f;&#x17f;l" horiz-adv-x="810" 
d="M735 745v-625q0 -20 0.5 -66.5t0.5 -53.5h-92q0 7 0.5 53.5t0.5 66.5v585q-20 20 -62 20q-133 0 -133 -190v-635q0 -20 0.5 -66t0.5 -54h-92q0 8 0.5 54t0.5 66v635q0 79 22 138q-6 21 -28 36.5t-56 15.5q-133 0 -133 -190v-635q0 -20 0.5 -66t0.5 -54h-92q0 8 0.5 54
t0.5 66v635q0 126 56.5 199t166.5 73q94 0 141 -49q57 49 144 49q59 0 97.5 -19t54.5 -43z" />
    <glyph glyph-name=".notdef" horiz-adv-x="610" 
d="M49 700h512q0 -8 -0.5 -54t-0.5 -66v-460q0 -20 0.5 -66.5t0.5 -53.5h-512q0 7 0.5 53.5t0.5 66.5v460q0 20 -0.5 66t-0.5 54zM95 656v-612h420v612h-420z" />
    <glyph glyph-name=".null" horiz-adv-x="0" 
 />
    <glyph glyph-name="nonmarkingreturn" horiz-adv-x="333" 
 />
    <glyph glyph-name="space" unicode=" " horiz-adv-x="300" 
 />
    <glyph glyph-name="exclam" unicode="!" horiz-adv-x="228" 
d="M161 700q0 -8 -0.5 -54t-0.5 -66v-300q0 -20 0.5 -66t0.5 -54h-92q0 8 0.5 54t0.5 66v300q0 20 -0.5 66t-0.5 54h92zM114 96q22 0 38 -16t16 -38t-16 -38t-38 -16t-38 16t-16 38t16 38t38 16z" />
    <glyph glyph-name="quotedbl" unicode="&#x22;" horiz-adv-x="252" 
d="M102 795v-66q0 -48 -17 -85h-38q-17 37 -17 85v66h72zM222 795v-66q0 -48 -17 -85h-38q-17 37 -17 85v66h72z" />
    <glyph glyph-name="numbersign" unicode="#" horiz-adv-x="648" 
d="M618 527v-86q-7 0 -50 0.5t-63 0.5l-45 -166q20 0 56 0.5t42 0.5v-86q-8 0 -54 0.5t-66 0.5l-30 -111q-3 -10 -30 -116l-86 23l32 116l24 88h-127l-30 -111l-16.5 -63t-13.5 -53l-86 23l32 116l23 88q-20 0 -57 -0.5t-43 -0.5v86q7 0 53.5 -0.5t66.5 -0.5h3l45 166
q-21 0 -61.5 -0.5t-46.5 -0.5v86q7 0 53.5 -0.5t66.5 -0.5h10l28 102q3 10 30 116l86 -23l-32 -116l-22 -79h127l28 102q3 10 30 116l86 -23q-7 -24 -18.5 -67t-13.5 -49l-22 -79q20 0 53 0.5t38 0.5zM288 442l-45 -166h127l45 166h-127z" />
    <glyph glyph-name="dollar" unicode="$" horiz-adv-x="474" 
d="M12 120l81 44q45 -79 117 -89v267l-17 12q-45 31 -69.5 53t-45 60t-20.5 85q0 59 43.5 104.5t108.5 53.5q-1 31 -1 75h66q0 -4 -0.5 -31.5t-0.5 -45.5q82 -14 151 -95l-73 -55q-38 50 -78 64v-214q47 -34 70.5 -53.5t49.5 -49t36 -61.5t10 -74q0 -68 -47 -117t-119 -61
q0 -18 0.5 -47.5t0.5 -34.5h-66q0 47 1 79q-69 5 -119 42t-79 89zM345 170q0 39 -17 67.5t-54 58.5v-215q32 10 51.5 34t19.5 55zM151 552q0 -32 14.5 -54t44.5 -45v171q-27 -7 -43 -27.5t-16 -44.5z" />
    <glyph glyph-name="percent" unicode="%" horiz-adv-x="536" 
d="M163 730q56 0 95.5 -38t39.5 -92t-39.5 -92t-95.5 -38t-95.5 38t-39.5 92t39.5 92t95.5 38zM163 664q-26 0 -44.5 -19t-18.5 -45t18.5 -45t44.5 -19t44.5 19t18.5 45t-18.5 45t-44.5 19zM453 751l71 -40l-61 -103l-321 -555q-8 -13 -59 -104l-71 40l61 103l321 555
q8 13 59 104zM373 230q56 0 95.5 -38t39.5 -92t-39.5 -92t-95.5 -38t-95.5 38t-39.5 92t39.5 92t95.5 38zM373 164q-26 0 -44.5 -19t-18.5 -45t18.5 -45t44.5 -19t44.5 19t18.5 45t-18.5 45t-44.5 19z" />
    <glyph glyph-name="ampersand" unicode="&#x26;" horiz-adv-x="636" 
d="M631 0h-108l-79 92l-3 -4q-94 -100 -211 -100q-84 0 -146 57.5t-62 138.5q0 39 12.5 71t38.5 59t48.5 44t61.5 41l-1 2q-41 49 -60.5 84t-19.5 79q0 54 48.5 95t115.5 41q66 0 113 -40t47 -96q0 -52 -31.5 -93t-92.5 -84l147 -173l83 89l61 -52l-92 -98zM230 66
q78 0 150 75l12 13l-159 186q-37 -24 -53 -35.5t-37 -32t-29 -41t-8 -47.5q0 -49 36.5 -83.5t87.5 -34.5zM186 564q0 -38 62 -112l6 -8q46 31 69 58.5t23 61.5q0 28 -23.5 47t-56.5 19q-34 0 -57 -19.5t-23 -46.5z" />
    <glyph glyph-name="quotesingle" unicode="'" horiz-adv-x="172" 
d="M122 795v-66q0 -48 -17 -85h-38q-17 37 -17 85v66h72z" />
    <glyph glyph-name="parenleft" unicode="(" horiz-adv-x="240" 
d="M232 -122l-78 -32q-116 267 -116 497t116 497l78 -32q-54 -125 -82 -235.5t-28 -229.5t28 -229.5t82 -235.5z" />
    <glyph glyph-name="parenright" unicode=")" horiz-adv-x="240" 
d="M86 -154l-78 32q54 125 82 235.5t28 229.5t-28 229.5t-82 235.5l78 32q116 -267 116 -497t-116 -497z" />
    <glyph glyph-name="asterisk" unicode="*" horiz-adv-x="398" 
d="M174 795h50l-1 -94q0 -27 -6 -37l3 -2q9 14 27 25l81 48l25 -43l-82 -47q-22 -12 -35 -12v-4q15 0 35 -11l82 -47l-25 -43l-81 48q-18 11 -27 25l-3 -2q6 -10 6 -37l1 -94h-50l1 94q0 27 6 37l-3 2q-9 -14 -27 -25l-81 -48l-25 43l82 47q20 11 35 11v4q-13 0 -35 12
l-82 47l25 43l81 -48q18 -11 27 -25l3 2q-6 10 -6 37z" />
    <glyph glyph-name="plus" unicode="+" horiz-adv-x="536" 
d="M190 410h30v36q0 20 -0.5 66t-0.5 54h97q0 -8 -0.5 -54t-0.5 -66v-36h31q20 0 66 0.5t54 0.5v-86q-8 0 -54 0.5t-66 0.5h-31v-36q0 -20 0.5 -66t0.5 -54h-97q0 8 0.5 54t0.5 66v36h-30q-20 0 -66 -0.5t-54 -0.5v86q8 0 54 -0.5t66 -0.5z" />
    <glyph glyph-name="comma" unicode="," horiz-adv-x="222" 
d="M0 -157l92 261l84 -32l-119 -251z" />
    <glyph glyph-name="hyphen" unicode="-" horiz-adv-x="275" 
d="M30 283q4 0 27 -0.5t33 -0.5h95q9 0 33 0.5t27 0.5v-78q-3 0 -27 0.5t-33 0.5h-95q-10 0 -33 -0.5t-27 -0.5v78z" />
    <glyph glyph-name="period" unicode="." horiz-adv-x="228" 
d="M114 96q22 0 38 -16t16 -38t-16 -38t-38 -16t-38 16t-16 38t16 38t38 16z" />
    <glyph glyph-name="slash" unicode="/" horiz-adv-x="443" 
d="M335 726l78 -33q-3 -9 -21.5 -51.5l-25.5 -58.5l-211 -498q-39 -97 -46 -111l-79 34q3 8 22 50.5t26 59.5l211 497q39 97 46 111z" />
    <glyph glyph-name="zero" unicode="0" horiz-adv-x="536" 
d="M268 -12q-111 0 -179.5 104t-68.5 258t68.5 258t179.5 104t179.5 -104t68.5 -258t-68.5 -258t-179.5 -104zM268 72q76 0 119 78.5t43 199.5q0 122 -43 202t-119 80t-119 -80t-43 -202q0 -121 43 -199.5t119 -78.5z" />
    <glyph glyph-name="one" unicode="1" horiz-adv-x="536" 
d="M126 618l48 82h156v-580q0 -20 0.5 -66.5t0.5 -53.5h-92q0 7 0.5 53.5t0.5 66.5v498h-114z" />
    <glyph glyph-name="two" unicode="2" horiz-adv-x="536" 
d="M49 0l274 356q32 42 46.5 72.5t14.5 67.5q0 58 -36 95t-91 37q-53 0 -90 -35.5t-37 -86.5h-90q0 85 63.5 145.5t153.5 60.5q93 0 154 -61.5t61 -154.5q0 -52 -20.5 -94.5t-62.5 -96.5l-109 -141q-21 -27 -47 -55t-33 -31l1 -4q18 6 111 6h50q20 0 67 0.5t55 0.5v-82
q-8 0 -54 0.5t-66 0.5h-315z" />
    <glyph glyph-name="three" unicode="3" horiz-adv-x="536" 
d="M260 712q84 0 143 -55.5t59 -136.5q0 -115 -95 -147v-5q48 -8 81.5 -56t33.5 -114q0 -88 -61 -149t-157 -61q-91 0 -150.5 52.5t-67.5 133.5h84q12 -49 46.5 -77.5t87.5 -28.5q57 0 93.5 36t36.5 94q0 56 -33 93.5t-93 37.5h-22v76h12q60 0 89 32t29 83q0 47 -34 79.5
t-82 32.5t-81 -29.5t-33 -70.5h-86q0 74 58 127t142 53z" />
    <glyph glyph-name="four" unicode="4" horiz-adv-x="536" 
d="M426 178q19 0 49 0.5t35 0.5v-80q-51 0 -84 1q0 -20 0.5 -57.5t0.5 -42.5h-82q0 5 0.5 42.5t0.5 57.5h-340l416 622q0 -35 2 -145.5t2 -170.5v-228zM346 178v195q0 87 5 104l-4 2q-11 -28 -53 -90l-85 -127q-53 -80 -68 -87l2 -4q15 7 109 7h94z" />
    <glyph glyph-name="five" unicode="5" horiz-adv-x="536" 
d="M82 332l109 368h153q20 0 66 0.5t54 0.5v-80q-8 0 -54 0.5t-66 0.5h-95l-28 -96q-10 -34 -26 -52l3 -3q15 9 56 9q98 0 167 -68.5t69 -171.5q0 -105 -74 -178.5t-180 -73.5q-75 0 -131.5 35t-84.5 77l60 65q20 -40 61.5 -67.5t94.5 -27.5q71 0 120.5 49t49.5 121t-49 120
t-123 48q-93 0 -152 -76z" />
    <glyph glyph-name="six" unicode="6" horiz-adv-x="536" 
d="M263 700h97l-82 -123l-44 -67q-25 -38 -47 -54l2 -3q31 17 83 17q100 0 170.5 -70t70.5 -168q0 -101 -72 -172.5t-174 -71.5t-173.5 71.5t-71.5 172.5q0 96 71 205l119 183zM112 232q0 -65 45.5 -111.5t109.5 -46.5t110 46.5t46 111.5t-46 111.5t-110 46.5t-109.5 -46.5
t-45.5 -111.5z" />
    <glyph glyph-name="seven" unicode="7" horiz-adv-x="536" 
d="M445 547l-278 -465q-53 -91 -61 -103l-81 49q1 2 15.5 24.5l29 45.5l22.5 35l276 446q17 29 36 40l-2 4q-14 -7 -51 -7h-201q-20 0 -66.5 -0.5t-53.5 -0.5v86q7 0 53.5 -0.5t66.5 -0.5h386z" />
    <glyph glyph-name="eight" unicode="8" horiz-adv-x="536" 
d="M268 712q86 0 147 -56.5t61 -136.5q0 -55 -31.5 -98.5t-69.5 -53.5v-4q49 -13 83.5 -61t34.5 -108q0 -87 -63.5 -146.5t-161.5 -59.5t-161.5 59.5t-63.5 146.5q0 60 34.5 108t83.5 61v4q-38 10 -69.5 53.5t-31.5 98.5q0 80 61 136.5t147 56.5zM268 326q-56 0 -95.5 -38
t-39.5 -91t39.5 -91t95.5 -38t95.5 38t39.5 91t-39.5 91t-95.5 38zM268 400q51 0 87.5 34.5t36.5 83.5t-36.5 83.5t-87.5 34.5t-87.5 -34.5t-36.5 -83.5t36.5 -83.5t87.5 -34.5z" />
    <glyph glyph-name="nine" unicode="9" horiz-adv-x="536" 
d="M36 480q0 96 68 164t164 68t164 -68t68 -164q0 -73 -42 -133l-199 -274l-69 -97l-67 49l71 96l68 94q15 21 44 42l-2 3q-16 -7 -38 -7q-97 0 -163.5 65t-66.5 162zM124 480q0 -61 42.5 -104.5t101.5 -43.5t101.5 43.5t42.5 104.5t-42.5 104.5t-101.5 43.5t-101.5 -43.5
t-42.5 -104.5z" />
    <glyph glyph-name="colon" unicode=":" horiz-adv-x="232" 
d="M116 342q22 0 38 -16t16 -38t-16 -38t-38 -16t-38 16t-16 38t16 38t38 16zM116 96q22 0 38 -16t16 -38t-16 -38t-38 -16t-38 16t-16 38t16 38t38 16z" />
    <glyph glyph-name="semicolon" unicode=";" horiz-adv-x="222" 
d="M92 104l-92 -261l57 -22l119 251zM131 316q23 0 38.5 -16t15.5 -38t-15.5 -38t-38.5 -16t-38.5 16t-15.5 38t15.5 38t38.5 16z" />
    <glyph glyph-name="less" unicode="&#x3c;" horiz-adv-x="536" 
d="M307 226l-231 133l231 134l35.5 21l42.5 25l26 15l43 -74q-1 -1 -104 -59l-64 -37q-36 -20 -53 -23v-4q28 -9 53 -23l63 -36q103 -58 104 -59l-42 -74l-26 15l-42.5 25z" />
    <glyph glyph-name="equal" unicode="=" horiz-adv-x="536" 
d="M190 320h156q20 0 66 0.5t54 0.5v-86q-8 0 -54 0.5t-66 0.5h-156q-20 0 -66 -0.5t-54 -0.5v86q8 0 54 -0.5t66 -0.5zM190 500h156q20 0 66 0.5t54 0.5v-86q-8 0 -54 0.5t-66 0.5h-156q-20 0 -66 -0.5t-54 -0.5v86q8 0 54 -0.5t66 -0.5z" />
    <glyph glyph-name="greater" unicode="&#x3e;" horiz-adv-x="536" 
d="M460 359l-231 -133l-35.5 -21l-42.5 -25l-26 -15l-42 74q1 1 104 59l63 36q25 14 53 23v4q-17 3 -53 23l-64 37q-103 58 -104 59l43 74l26 -15l42.5 -25l35.5 -21z" />
    <glyph glyph-name="question" unicode="?" horiz-adv-x="374" 
d="M262 309l77 -4q-4 -65 -43.5 -107t-106.5 -42q-61 0 -105.5 42.5t-44.5 99.5q0 64 39 98.5t105 55.5q44 13 65.5 32.5t21.5 55.5q0 33 -23 56.5t-57 23.5q-43 0 -65 -30t-23 -71l-78 2q2 72 43.5 123.5t122.5 51.5q66 0 113 -46.5t47 -109.5q0 -67 -36.5 -103t-105.5 -58
q-41 -13 -65 -31t-24 -50q0 -27 20.5 -46.5t49.5 -19.5q32 0 51.5 21.5t21.5 55.5zM187 96q23 0 38.5 -16t15.5 -38t-15.5 -38t-38.5 -16t-38.5 16t-15.5 38t15.5 38t38.5 16z" />
    <glyph glyph-name="at" unicode="@" horiz-adv-x="930" 
d="M691 411l-31 -253q-2 -20 7.5 -34t28.5 -14q53 0 89 52t36 148q0 139 -88.5 228.5t-234.5 89.5q-160 0 -273.5 -115.5t-113.5 -277.5q0 -171 106 -277t269 -106q135 0 262 47l16 -82q-129 -49 -278 -49q-208 0 -336.5 131t-128.5 336q0 200 141.5 338.5t337.5 138.5
q184 0 297.5 -113.5t113.5 -288.5q0 -132 -61 -208t-153 -76q-45 0 -68.5 19.5t-25.5 50.5l-4 1q-20 -26 -62.5 -48.5t-106.5 -22.5q-84 0 -137 51.5t-53 140.5q0 113 75 190t187 77q105 0 189 -74zM597 370q-45 33 -101 33q-70 0 -118 -50.5t-48 -123.5q0 -54 31 -86.5
t83 -32.5q76 0 128 59z" />
    <glyph glyph-name="A" unicode="A" 
d="M562 70l-13 28h-373l-12 -28q-15 -32 -31 -70h-103l50 109l279 629l287 -629q7 -16 27 -58.5t23 -50.5h-103q-16 38 -31 70zM246 186h231q26 0 35 -6l2 4q-6 3 -16 26l-111 243q-25 54 -25 75h-4q0 -21 -24 -75l-108 -243q-10 -22 -17 -26l2 -4q6 6 35 6z" />
    <glyph glyph-name="B" unicode="B" horiz-adv-x="520" 
d="M50 0v700h204q78 0 133.5 -55t55.5 -133q0 -48 -21.5 -84.5t-56.5 -50.5v-4q48 -12 81.5 -60.5t33.5 -109.5q0 -84 -59.5 -143.5t-143.5 -59.5h-227zM269 320h-124v-232h124q48 0 82 34t34 81q0 49 -34 83t-82 34zM351 512q0 44 -31.5 75t-75.5 31h-99v-214h99
q44 0 75.5 31.5t31.5 76.5z" />
    <glyph glyph-name="C" unicode="C" 
d="M633 165l64 -65q-115 -120 -287 -120q-153 0 -261.5 108.5t-108.5 261.5t108.5 261.5t261.5 108.5q82 0 154 -33.5t124 -92.5l-68 -62q-38 47 -93 73.5t-117 26.5q-114 0 -194.5 -82.5t-80.5 -199.5t80.5 -199.5t194.5 -82.5q134 0 223 97z" />
    <glyph glyph-name="D" unicode="D" horiz-adv-x="645" 
d="M50 0v700h195q149 0 254.5 -102.5t105.5 -247.5t-99.5 -247.5t-240.5 -102.5h-215zM228 614h-83v-526h104q108 0 184.5 76.5t76.5 185.5q0 110 -82.5 187t-199.5 77z" />
    <glyph glyph-name="E" unicode="E" horiz-adv-x="467" 
d="M50 0v700h232q20 0 66.5 0.5t53.5 0.5v-90q-7 0 -53.5 0.5t-66.5 0.5h-137v-184h88q19 0 66 0.5t54 0.5v-92q-7 0 -54 0.5t-66 0.5h-88v-246h157q20 0 66 0.5t54 0.5v-94q-8 0 -54 0.5t-66 0.5h-252z" />
    <glyph glyph-name="F" unicode="F" horiz-adv-x="425" 
d="M50 120v580h224q20 0 66.5 0.5t53.5 0.5v-88q-7 0 -53.5 0.5t-66.5 0.5h-129v-186h77q19 0 65.5 0.5t54.5 0.5v-90q-8 0 -54.5 0.5t-65.5 0.5h-77v-220q0 -20 0.5 -66.5t0.5 -53.5h-97q0 7 0.5 53.5t0.5 66.5z" />
    <glyph glyph-name="G" unicode="G" horiz-adv-x="767" 
d="M606 222h-87q-19 0 -66 -0.5t-54 -0.5v90q7 0 54 -0.5t66 -0.5h211q2 -22 2 -34q0 -122 -94.5 -209t-227.5 -87q-153 0 -261.5 108.5t-108.5 261.5t108.5 261.5t261.5 108.5q86 0 160.5 -38.5t124.5 -105.5l-70 -61q-37 54 -93.5 85.5t-121.5 31.5q-114 0 -194.5 -82.5
t-80.5 -199.5t80.5 -199.5t194.5 -82.5q70 0 129.5 36t81.5 90q9 23 19 30l-3 4q-9 -6 -31 -6z" />
    <glyph glyph-name="H" unicode="H" horiz-adv-x="624" 
d="M574 580v-460q0 -20 0.5 -66.5t0.5 -53.5h-97q0 7 0.5 53.5t0.5 66.5v215h-334v-215q0 -20 0.5 -66.5t0.5 -53.5h-97q0 7 0.5 53.5t0.5 66.5v460q0 20 -0.5 66t-0.5 54h97q0 -8 -0.5 -54t-0.5 -66v-157h334v157q0 20 -0.5 66t-0.5 54h97q0 -8 -0.5 -54t-0.5 -66z" />
    <glyph glyph-name="I" unicode="I" horiz-adv-x="235" 
d="M69 700h97q0 -8 -0.5 -54t-0.5 -66v-460q0 -20 0.5 -66.5t0.5 -53.5h-97q0 7 0.5 53.5t0.5 66.5v460q0 20 -0.5 66t-0.5 54z" />
    <glyph glyph-name="J" unicode="J" horiz-adv-x="375" 
d="M8 11l40 75q28 -22 65 -22q40 0 68.5 30.5t28.5 73.5v412q0 20 -0.5 66t-0.5 54h97q0 -8 -0.5 -54t-0.5 -66v-408q0 -80 -56.5 -136t-135.5 -56q-59 0 -105 31z" />
    <glyph glyph-name="K" unicode="K" horiz-adv-x="580" 
d="M560 700l-123 -118l-196 -192l213 -264l104 -126h-123q-6 7 -24.5 31t-29.5 37l-206 257l-30 -29v-176q0 -20 0.5 -66.5t0.5 -53.5h-97q0 7 0.5 53.5t0.5 66.5v460q0 20 -0.5 66t-0.5 54h97q0 -8 -0.5 -54t-0.5 -66v-95q0 -63 -7 -79l4 -2q9 18 50 58l185 181
q15 14 34.5 34.5l21.5 22.5h127z" />
    <glyph glyph-name="L" unicode="L" horiz-adv-x="381" 
d="M50 0v580q0 20 -0.5 66t-0.5 54h97q0 -8 -0.5 -54t-0.5 -66v-492h96q19 0 66 0.5t54 0.5v-90q-7 0 -54 0.5t-66 0.5h-191z" />
    <glyph glyph-name="M" unicode="M" horiz-adv-x="807" 
d="M157 730l206 -449q36 -79 39 -111h4q2 25 40 111l199 449l123 -612l23 -118h-96l-8.5 50.5t-8.5 49.5l-51 267q-12 66 -9 95l-4 1q-7 -29 -37 -97l-174 -390l-173 393q-28 64 -36 97l-4 -1q1 -13 -13 -93l-50 -273l-17 -99h-96q18 84 24 117z" />
    <glyph glyph-name="N" unicode="N" horiz-adv-x="721" 
d="M671 -28l-450 455q-63 65 -80 89l-3 -2q7 -35 7 -74v-320q0 -20 0.5 -66.5t0.5 -53.5h-97q0 7 0.5 53.5t0.5 66.5v608l450 -455q63 -65 80 -89l3 2q-7 35 -7 74v320q0 20 -0.5 66t-0.5 54h97q0 -8 -0.5 -54t-0.5 -66v-608z" />
    <glyph glyph-name="O" unicode="O" horiz-adv-x="820" 
d="M410 720q153 0 261.5 -108.5t108.5 -261.5t-108.5 -261.5t-261.5 -108.5t-261.5 108.5t-108.5 261.5t108.5 261.5t261.5 108.5zM410 632q-114 0 -194.5 -82.5t-80.5 -199.5t80.5 -199.5t194.5 -82.5t194.5 82.5t80.5 199.5t-80.5 199.5t-194.5 82.5z" />
    <glyph glyph-name="P" unicode="P" horiz-adv-x="470" 
d="M240 286h-95v-166q0 -20 0.5 -66.5t0.5 -53.5h-97q0 7 0.5 53.5t0.5 66.5v580h190q87 0 148.5 -61t61.5 -147q0 -85 -61.5 -145.5t-148.5 -60.5zM145 370h91q50 0 86 36t36 86q0 52 -36 89t-86 37h-91v-248z" />
    <glyph glyph-name="Q" unicode="Q" horiz-adv-x="820" 
d="M772 60v-88q-85 0 -181 55q-85 -47 -181 -47q-153 0 -261.5 108.5t-108.5 261.5t108.5 261.5t261.5 108.5t261.5 -108.5t108.5 -261.5q0 -155 -111 -264q54 -26 103 -26zM410 632q-114 0 -194.5 -82.5t-80.5 -199.5t80.5 -199.5t194.5 -82.5q46 0 84 13q-14 9 -47 16
q-40 7 -77 7v88q121 0 217 -58q98 85 98 216q0 117 -80.5 199.5t-194.5 82.5z" />
    <glyph glyph-name="R" unicode="R" horiz-adv-x="492" 
d="M372 0q-1 2 -15.5 35.5t-24.5 53.5l-105 223h-82v-192q0 -20 0.5 -66.5t0.5 -53.5h-97q0 7 0.5 53.5t0.5 66.5v580h208q86 0 140 -56t54 -138q0 -66 -36.5 -117t-95.5 -65l-1 -2q8 -8 17 -27l88 -187l52 -108h-104zM246 618h-101v-222h101q52 0 81.5 31.5t29.5 79.5
t-29.5 79.5t-81.5 31.5z" />
    <glyph glyph-name="S" unicode="S" horiz-adv-x="474" 
d="M12 120l81 44q52 -90 137 -90q53 0 84 28t31 70q0 26 -9.5 48.5t-30 43.5t-37.5 35t-47 35q-42 30 -60.5 44.5t-48 43t-42 59.5t-12.5 67q0 72 49.5 118t128.5 46q107 0 189 -99l-73 -55q-51 70 -116 70q-40 0 -62 -22t-22 -54q0 -27 18 -52.5t34.5 -38.5t58.5 -42
q9 -7 14 -10q37 -26 59.5 -44t50 -47.5t40.5 -63.5t13 -74q0 -86 -57 -139t-153 -53q-77 0 -132 38t-86 94z" />
    <glyph glyph-name="T" unicode="T" horiz-adv-x="445" 
d="M431 701v-90q-7 0 -54 0.5t-66 0.5h-41v-492q0 -20 0.5 -66.5t0.5 -53.5h-97q0 7 0.5 53.5t0.5 66.5v492h-41q-20 0 -66 -0.5t-54 -0.5v90q8 0 54 -0.5t66 -0.5h177q19 0 66 0.5t54 0.5z" />
    <glyph glyph-name="U" unicode="U" horiz-adv-x="620" 
d="M146 700q0 -8 -0.5 -54t-0.5 -66v-340q0 -88 36 -125q48 -51 147 -51q103 0 147 40v476q0 20 -0.5 66t-0.5 54h97q0 -8 -0.5 -54t-0.5 -66v-514q-26 -36 -88.5 -61t-153.5 -25q-149 0 -220 75q-58 61 -58 165v360q0 20 -0.5 66t-0.5 54h97z" />
    <glyph glyph-name="V" unicode="V" horiz-adv-x="662" 
d="M338 -30l-261 600l-57 130h103q5 -13 39 -93l143 -329q27 -61 30 -98h4q3 36 28 98l137 330q15 35 37 92h101q-3 -9 -25 -60l-29 -67z" />
    <glyph glyph-name="W" unicode="W" horiz-adv-x="1000" 
d="M499 496q-2 -27 -30 -100l-162 -426l-244 602q-7 18 -28.5 69t-24.5 59h102l18.5 -47l19.5 -49l126 -312q23 -58 27 -100h4q3 35 28 100l165 428l163 -428q28 -72 30 -100h4q3 32 30 100l127 312l19.5 49l18.5 47h98q-3 -8 -24.5 -59t-28.5 -69l-244 -602l-162 426
q-28 73 -30 100h-2z" />
    <glyph glyph-name="X" unicode="X" horiz-adv-x="586" 
d="M261 227l-89 -149l-45 -78h-111l79 127l145 238l-128 210l-40 64.5t-37 60.5h110q8 -15 45 -76l71 -119q22 -36 30 -69h4q0 2 3.5 12.5t11 26.5t15.5 30l71 119q9 14 24.5 41t20.5 35h110q-5 -9 -37 -60.5l-40 -64.5l-128 -210l145 -238l79 -127h-111l-45 78l-89 149
q-30 51 -30 69h-4q-6 -28 -30 -69z" />
    <glyph glyph-name="Y" unicode="Y" horiz-adv-x="596" 
d="M255 0q0 7 0.5 53.5t0.5 66.5v184l-159 271l-39 63.5t-37 61.5h108l44 -77l94 -160q32 -55 32 -69h4q0 9 33 69l91 161l42 76h106l-71 -123l-153 -270v-187q0 -20 0.5 -66.5t0.5 -53.5h-97z" />
    <glyph glyph-name="Z" unicode="Z" horiz-adv-x="550" 
d="M262 78h131q19 0 66 0.5t54 0.5v-80q-7 0 -54 0.5t-66 0.5h-373l310 539q44 76 63 85l-2 4q-14 -6 -107 -6h-88q-20 0 -66 -0.5t-54 -0.5v80q8 0 54 -0.5t66 -0.5h330l-309 -539q-17 -29 -37 -55.5t-27 -29.5l2 -4q13 6 107 6z" />
    <glyph glyph-name="bracketleft" unicode="[" horiz-adv-x="290" 
d="M50 -20v740h117q19 0 41 0.5t29 0.5v-90q-7 0 -29 0.5t-41 0.5h-27v-564h37q19 0 41 0.5t29 0.5v-90q-7 0 -29 0.5t-41 0.5h-127z" />
    <glyph glyph-name="backslash" unicode="\" horiz-adv-x="443" 
d="M30 693l78 33q7 -14 46 -111l211 -497q7 -17 26 -59.5t22 -50.5l-79 -34q-7 14 -46 111l-211 498l-25.5 58.5t-21.5 51.5z" />
    <glyph glyph-name="bracketright" unicode="]" horiz-adv-x="290" 
d="M240 720v-740h-127q-20 0 -41.5 -0.5t-28.5 -0.5v90q7 0 28.5 -0.5t41.5 -0.5h37v564h-27q-19 0 -41 -0.5t-29 -0.5v90q7 0 29 -0.5t41 -0.5h117z" />
    <glyph glyph-name="asciicircum" unicode="^" horiz-adv-x="478" 
d="M237 421q-3 -16 -50 -82l-12 -16l-39 -54.5t-30 -42.5l-62 45q19 28 71 97l124 170l124 -170q52 -69 71 -97l-62 -45q-3 4 -30 42.5l-39 54.5l-12 16q-47 66 -50 82h-4z" />
    <glyph glyph-name="underscore" unicode="_" horiz-adv-x="590" 
d="M170 -42h250q19 0 65.5 0.5t54.5 0.5v-86q-8 0 -54.5 0.5t-65.5 0.5h-250q-20 0 -66 -0.5t-54 -0.5v86q8 0 54 -0.5t66 -0.5z" />
    <glyph glyph-name="grave" unicode="`" horiz-adv-x="320" 
d="M258 555l-41 -32l-160 138l81 45z" />
    <glyph glyph-name="a" unicode="a" horiz-adv-x="488" 
d="M236 -12q-86 0 -139 46t-53 120q0 69 50.5 109.5t125.5 40.5q79 0 114 -46l4 2q-7 22 -9 41q-3 30 -29 47t-60 17q-55 0 -117 -35l-36 75q77 42 153 42q52 0 95 -20.5t65 -59.5q18 -31 18 -79v-244q-31 -21 -80 -38.5t-102 -17.5zM236 68q55 0 92 26v85
q-12 18 -40.5 34.5t-67.5 16.5q-37 0 -63.5 -21t-26.5 -55q0 -40 28.5 -63t77.5 -23z" />
    <glyph glyph-name="b" unicode="b" horiz-adv-x="555" 
d="M74 795h92q0 -7 -0.5 -54t-0.5 -66v-224q0 -32 -5 -44l4 -2q44 42 125 42q96 0 156 -63t60 -164t-64.5 -166.5t-167.5 -65.5q-109 0 -198 74v613q0 19 -0.5 66t-0.5 54zM165 304v-200q48 -32 108 -32q63 0 102.5 42t39.5 106t-36 103.5t-94 39.5q-43 0 -74 -18.5
t-46 -40.5z" />
    <glyph glyph-name="c" unicode="c" horiz-adv-x="478" 
d="M260 447q59 0 104 -27.5t72 -65.5l-69 -54q-40 63 -107 63q-54 0 -92 -42.5t-38 -103.5q0 -60 38 -102.5t92 -42.5q75 0 120 64l64 -60q-75 -88 -184 -88q-91 0 -155.5 67.5t-64.5 161.5q0 95 64.5 162.5t155.5 67.5z" />
    <glyph glyph-name="d" unicode="d" horiz-adv-x="555" 
d="M389 795h92q0 -7 -0.5 -54t-0.5 -66v-613q-89 -74 -198 -74q-103 0 -167.5 65.5t-64.5 166.5t60 164t156 63q81 0 125 -42l4 2q-5 12 -5 44v224q0 19 -0.5 66t-0.5 54zM390 104v200q-15 22 -46 40.5t-74 18.5q-58 0 -94 -39.5t-36 -103.5t39.5 -106t102.5 -42
q60 0 108 32z" />
    <glyph glyph-name="e" unicode="e" horiz-adv-x="508" 
d="M460 204h-329q7 -61 42 -97.5t95 -36.5q78 0 128 65l62 -59q-79 -88 -190 -88q-109 0 -168.5 67t-59.5 168q0 97 59.5 160.5t152.5 63.5q99 0 154 -67t55 -156q0 -13 -1 -20zM252 369q-43 0 -73.5 -23.5t-42.5 -65.5h230q-5 34 -36 61.5t-78 27.5z" />
    <glyph glyph-name="f" unicode="f" horiz-adv-x="295" 
d="M165 435q17 0 45.5 0.5t32.5 0.5v-90q-6 0 -39 0.5t-39 0.5v-447q0 -20 0.5 -66t0.5 -54h-92q0 8 0.5 54t0.5 66v717q0 88 51.5 139t130.5 51v-88q-40 0 -66 -27.5t-26 -74.5v-182z" />
    <glyph glyph-name="g" unicode="g" horiz-adv-x="555" 
d="M390 -40v24q0 32 5 44l-4 2q-44 -42 -125 -42q-94 0 -155 61t-61 170q0 101 63.5 164.5t164.5 63.5q112 0 202 -75v-412q0 -97 -60 -144.5t-167 -47.5q-108 0 -179 54l51 68q52 -42 128 -42q137 0 137 112zM390 134v192q-52 37 -112 37q-61 0 -99.5 -41.5t-38.5 -102.5
q0 -64 35 -105.5t99 -41.5q39 0 69.5 18t46.5 44z" />
    <glyph glyph-name="h" unicode="h" horiz-adv-x="527" 
d="M166 795q0 -7 -0.5 -54t-0.5 -66v-187q0 -62 -11 -92l4 -2q49 53 128 53q76 0 124 -43.5t48 -117.5v-166q0 -20 0.5 -66.5t0.5 -53.5h-92q0 7 0.5 53.5t0.5 66.5v150q0 52 -28 75.5t-70 23.5q-105 0 -105 -127v-122q0 -20 0.5 -66.5t0.5 -53.5h-92q0 7 0.5 53.5t0.5 66.5
v555q0 19 -0.5 66t-0.5 54h92z" />
    <glyph glyph-name="i" unicode="i" horiz-adv-x="250" 
d="M170 654v-78q0 -6 -13.5 -11t-31.5 -5t-31.5 5t-13.5 11v78q0 6 14 11t32 5t31 -5t13 -11zM171 435q0 -7 -0.5 -54t-0.5 -66v-195q0 -20 0.5 -66.5t0.5 -53.5h-92q0 7 0.5 53.5t0.5 66.5v195q0 19 -0.5 66t-0.5 54h92z" />
    <glyph glyph-name="j" unicode="j" horiz-adv-x="250" 
d="M170 654v-78q0 -6 -13.5 -11t-31.5 -5t-31.5 5t-13.5 11v78q0 6 14 11t32 5t31 -5t13 -11zM171 435q0 -7 -0.5 -54t-0.5 -66v-415q0 -20 0.5 -66t0.5 -54h-92q0 8 0.5 54t0.5 66v415q0 19 -0.5 66t-0.5 54h92z" />
    <glyph glyph-name="k" unicode="k" horiz-adv-x="480" 
d="M326 435h119l-112 -109l-78 -77l106 -129l99 -120h-115l-52 66l-102 128l-26 -19v-55q0 -20 0.5 -66.5t0.5 -53.5h-92q0 7 0.5 53.5t0.5 66.5v555q0 19 -0.5 66t-0.5 54h92q0 -7 -0.5 -54t-0.5 -66v-301q0 -97 -6 -110l4 -2q11 18 72 79l36 36q1 1 55 58z" />
    <glyph glyph-name="l" unicode="l" horiz-adv-x="250" 
d="M79 795h92q0 -7 -0.5 -54t-0.5 -66v-555q0 -20 0.5 -66.5t0.5 -53.5h-92q0 7 0.5 53.5t0.5 66.5v555q0 19 -0.5 66t-0.5 54z" />
    <glyph glyph-name="m" unicode="m" horiz-adv-x="795" 
d="M160 435q-2 -48 -5 -57l4 -2q39 71 130 71q89 0 128 -69q45 69 142 69q78 0 122 -47t44 -124v-156q0 -20 0.5 -66.5t0.5 -53.5h-92q0 7 0.5 53.5t0.5 66.5v130q0 56 -15 82q-22 39 -72 39q-47 0 -75.5 -31.5t-28.5 -97.5v-122q0 -20 0.5 -66.5t0.5 -53.5h-92
q0 7 0.5 53.5t0.5 66.5v130q0 59 -18 85q-25 36 -69 36q-45 0 -73.5 -34.5t-28.5 -94.5v-122q0 -20 0.5 -66.5t0.5 -53.5h-92q0 7 0.5 53.5t0.5 66.5v195q0 19 -0.5 66t-0.5 54h86z" />
    <glyph glyph-name="n" unicode="n" horiz-adv-x="526" 
d="M164 435q-2 -48 -5 -57l4 -2q13 30 48.5 50.5t82.5 20.5q77 0 119.5 -44.5t42.5 -123.5v-159q0 -20 0.5 -66.5t0.5 -53.5h-92q0 7 0.5 53.5t0.5 66.5v140q0 57 -25.5 84t-66.5 27q-46 0 -77.5 -31.5t-31.5 -85.5v-134q0 -20 0.5 -66.5t0.5 -53.5h-92q0 7 0.5 53.5
t0.5 66.5v195q0 19 -0.5 66t-0.5 54h90z" />
    <glyph glyph-name="o" unicode="o" horiz-adv-x="539" 
d="M269 363q-58 0 -98.5 -42.5t-40.5 -103.5q0 -60 40.5 -102.5t98.5 -42.5t99 42.5t41 102.5q0 61 -41 103.5t-99 42.5zM269 447q95 0 162.5 -67.5t67.5 -162.5t-67.5 -162t-162.5 -67t-162 67t-67 162t67 162.5t162 67.5z" />
    <glyph glyph-name="p" unicode="p" horiz-adv-x="555" 
d="M166 -220h-92q0 8 0.5 54t0.5 66v473q89 74 198 74q103 0 167.5 -65.5t64.5 -166.5t-60 -164t-156 -63q-81 0 -125 42l-4 -2q5 -12 5 -44v-84q0 -20 0.5 -66t0.5 -54zM165 331v-200q15 -22 46 -40.5t74 -18.5q58 0 94 39.5t36 103.5t-39.5 106t-102.5 42q-60 0 -108 -32z
" />
    <glyph glyph-name="q" unicode="q" horiz-adv-x="555" 
d="M481 -220h-92q0 8 0.5 54t0.5 66v84q0 32 5 44l-4 2q-44 -42 -125 -42q-96 0 -156 63t-60 164t64.5 166.5t167.5 65.5q109 0 198 -74v-473q0 -20 0.5 -66t0.5 -54zM390 131v200q-48 32 -108 32q-63 0 -102.5 -42t-39.5 -106t36 -103.5t94 -39.5q43 0 74 18.5t46 40.5z
" />
    <glyph glyph-name="r" unicode="r" horiz-adv-x="365" 
d="M348 419l-50 -77q-18 18 -44 18q-38 0 -63.5 -30.5t-25.5 -69.5v-140q0 -20 0.5 -66.5t0.5 -53.5h-92q0 7 0.5 53.5t0.5 66.5v195q0 19 -0.5 66t-0.5 54h89q0 -43 -3 -56l5 -2q10 24 41 45.5t68 21.5q23 0 44.5 -7.5t29.5 -17.5z" />
    <glyph glyph-name="s" unicode="s" horiz-adv-x="394" 
d="M317 395l-48 -59q-37 37 -75 37q-20 0 -32 -9.5t-12 -25.5q0 -9 4 -16.5t13.5 -15l15.5 -12t21.5 -13.5t19.5 -11q30 -19 43 -28t34.5 -29t30 -42.5t8.5 -51.5q0 -54 -41 -92.5t-111 -38.5q-85 0 -168 70l57 65q61 -53 111 -53q26 0 44 14.5t18 34.5q0 11 -5.5 21.5
t-18.5 21t-22 17t-28 17.5q-27 17 -42 27.5t-34 28t-27.5 39t-8.5 47.5q0 44 36 76.5t94 32.5q65 0 123 -52z" />
    <glyph glyph-name="t" unicode="t" horiz-adv-x="273" 
d="M166 585q0 -7 -0.5 -54t-0.5 -66v-30q17 0 41.5 0.5t28.5 0.5v-90q-6 0 -35 0.5t-35 0.5v-227q0 -20 0.5 -66.5t0.5 -53.5h-92q0 7 0.5 53.5t0.5 66.5v345q0 19 -0.5 66t-0.5 54h92z" />
    <glyph glyph-name="u" unicode="u" horiz-adv-x="510" 
d="M451 435q0 -7 -0.5 -54t-0.5 -66v-274q-25 -22 -74.5 -37.5t-109.5 -15.5q-105 0 -155.5 46t-50.5 123v158q0 19 -0.5 66t-0.5 54h92q0 -7 -0.5 -54t-0.5 -66v-143q0 -104 116 -104q50 0 94 20v227q0 19 -0.5 66t-0.5 54h92z" />
    <glyph glyph-name="v" unicode="v" horiz-adv-x="460" 
d="M230 -16l-159 325q-29 61 -63 126h95l44 -91l46 -96q32 -68 35 -100h4q3 32 35 100l46 96l44 91h95q-34 -65 -63 -126z" />
    <glyph glyph-name="w" unicode="w" 
d="M361 279h-4q0 -18 -34 -100l-87 -209l-165 339l-63 126h96q8 -19 43 -91l46 -96q32 -68 35 -100h4q2 21 34 100l90 216l97 -221q34 -82 36 -100h4q3 32 36 102l48 99l43 91h96l-63 -126l-163 -334l-92 204q-35 75 -37 100z" />
    <glyph glyph-name="x" unicode="x" horiz-adv-x="495" 
d="M464 435l-97 -119l-63 -78l87 -111l102 -127h-113l-55 71l-15 19q-58 72 -60 98h-4q-2 -24 -61 -98l-14 -18l-55 -72h-114l105 128l89 110l-60 76l-30.5 38.5l-41 52t-23.5 30.5h111l37 -49q53 -69 59 -98h4q1 8 21.5 41t40.5 57l40 49h110z" />
    <glyph glyph-name="y" unicode="y" horiz-adv-x="500" 
d="M494 435l-67 -130l-218 -438l-43 -87h-96q16 34 64 127l82 164l-136 236l-38 65.5l-36 62.5h101l11.5 -20.5l18 -32l16.5 -29.5l65 -115q38 -66 40 -91h4q2 24 37 91l54 108q9 17 24 49t19 40h98z" />
    <glyph glyph-name="z" unicode="z" horiz-adv-x="483" 
d="M238 74h91q19 0 65.5 0.5t54.5 0.5v-76q-8 0 -54.5 0.5t-65.5 0.5h-314l254 316q29 36 53 48l-1 4q-15 -5 -77 -5h-61q-19 0 -66 -0.5t-54 -0.5v74q7 0 54 -0.5t66 -0.5h285l-255 -314q-31 -39 -53 -48l1 -4q15 5 77 5z" />
    <glyph glyph-name="braceleft" unicode="{" horiz-adv-x="285" 
d="M127 354q73 -13 73 -148v-154q0 -52 47 -52h9v-84h-42q-104 0 -104 130v141q0 25 -2 42t-8.5 38t-23 33t-41.5 14v84q25 2 41.5 14t23 33t8.5 38t2 42v129q0 130 104 130h42v-84h-9q-47 0 -47 -52v-142q0 -135 -73 -148v-4z" />
    <glyph glyph-name="bar" unicode="|" horiz-adv-x="244" 
d="M79 815h86q0 -7 -0.5 -54t-0.5 -66v-675q0 -20 0.5 -66t0.5 -54h-86q0 8 0.5 54t0.5 66v675q0 19 -0.5 66t-0.5 54z" />
    <glyph glyph-name="braceright" unicode="}" horiz-adv-x="285" 
d="M158 354v4q-73 13 -73 148v142q0 52 -47 52h-9v84h42q104 0 104 -130v-129q0 -25 2 -42t8.5 -38t23 -33t41.5 -14v-84q-25 -2 -41.5 -14t-23 -33t-8.5 -38t-2 -42v-141q0 -130 -104 -130h-42v84h9q47 0 47 52v154q0 135 73 148z" />
    <glyph glyph-name="asciitilde" unicode="~" horiz-adv-x="536" 
d="M140 299l-78 14q9 49 50 79.5t91 23.5l140 -19q19 -2 34.5 10t18.5 31l78 -14q-9 -49 -50 -79.5t-91 -23.5l-140 19q-19 2 -34.5 -10t-18.5 -31z" />
    <glyph glyph-name="uni00A0" unicode="&#xa0;" horiz-adv-x="300" 
 />
    <glyph glyph-name="exclamdown" unicode="&#xa1;" horiz-adv-x="228" 
d="M161 -220h-92q0 8 0.5 54t0.5 66v300q0 19 -0.5 65.5t-0.5 54.5h92q0 -8 -0.5 -54.5t-0.5 -65.5v-300q0 -20 0.5 -66t0.5 -54zM114 492q22 0 38 -16t16 -38t-16 -38t-38 -16t-38 16t-16 38t16 38t38 16z" />
    <glyph glyph-name="cent" unicode="&#xa2;" horiz-adv-x="478" 
d="M367 300q-30 45 -73 58v-282q53 12 86 58l64 -58q-64 -74 -150 -86q0 -20 0.5 -53.5t0.5 -38.5h-82q0 60 1 95q-75 17 -124.5 79.5t-49.5 144.5t49.5 145t124.5 80q0 20 -0.5 60t-0.5 46h82q0 -6 -0.5 -44.5t-0.5 -59.5q89 -14 142 -90zM130 217q0 -46 23.5 -83t60.5 -53
v272q-37 -15 -60.5 -52t-23.5 -84z" />
    <glyph glyph-name="sterling" unicode="&#xa3;" horiz-adv-x="535" 
d="M480 546l-88 -16q-7 42 -37.5 68t-84.5 26q-48 0 -84.5 -28.5t-36.5 -84.5q0 -32 30 -106l6 -15h51q20 0 66 0.5t54 0.5v-86q-8 0 -54 0.5t-66 0.5h-24q5 -28 5 -52q0 -58 -24 -106q-17 -30 -38 -44l1 -3q22 10 46 10q37 0 100 -21q42 -14 63 -14q38 0 97 32l35 -83
q-66 -37 -132 -37q-36 0 -93 19q-55 19 -88 19q-51 0 -115 -38l-44 77q46 25 74 80t28 109q0 25 -8 52q-21 0 -57.5 -0.5t-41.5 -0.5v86q3 0 27 -0.5t40 -0.5q-28 71 -28 121q0 99 63.5 150t147.5 51q93 0 144.5 -45.5t65.5 -120.5z" />
    <glyph glyph-name="currency" unicode="&#xa4;" horiz-adv-x="540" 
d="M270 460q45 0 84 -22l59 60l65 -65l-60 -59q22 -39 22 -84t-22 -84l60 -59l-65 -65l-59 60q-39 -22 -84 -22t-84 22l-59 -60l-65 65l60 59q-22 39 -22 84t22 84l-60 59l65 65l59 -60q39 22 84 22zM270 376q-33 0 -56.5 -25.5t-23.5 -60.5t23.5 -60.5t56.5 -25.5
t56.5 25.5t23.5 60.5t-23.5 60.5t-56.5 25.5z" />
    <glyph glyph-name="yen" unicode="&#xa5;" horiz-adv-x="596" 
d="M255 0q0 7 0.5 53.5t0.5 66.5v46h-36q-20 0 -66 -0.5t-54 -0.5v86q8 0 54 -0.5t66 -0.5h36v54l-25 42h-11q-20 0 -66 -0.5t-54 -0.5v86q4 0 33.5 -0.5t48.5 -0.5l-85 145l-39 63.5t-37 61.5h108l44 -77l94 -160q29 -52 32 -69h4q0 12 33 69l91 161l42 76h106l-71 -123
l-84 -147q18 0 45 0.5t31 0.5v-86q-8 0 -54.5 0.5t-65.5 0.5h-3l-22 -39v-57h25q19 0 65.5 0.5t54.5 0.5v-86q-8 0 -54.5 0.5t-65.5 0.5h-25v-46q0 -20 0.5 -66.5t0.5 -53.5h-97z" />
    <glyph glyph-name="brokenbar" unicode="&#xa6;" horiz-adv-x="230" 
d="M71 305h88q0 -7 -0.5 -54t-0.5 -66v-165q0 -20 0.5 -66t0.5 -54h-88q0 8 0.5 54t0.5 66v165q0 19 -0.5 66t-0.5 54zM71 815h88q0 -7 -0.5 -54t-0.5 -66v-165q0 -20 0.5 -66t0.5 -54h-88q0 8 0.5 54t0.5 66v165q0 19 -0.5 66t-0.5 54z" />
    <glyph glyph-name="section" unicode="&#xa7;" horiz-adv-x="494" 
d="M89 -7l90 -6q-4 -37 18.5 -64t57.5 -27q29 0 50 18.5t21 45.5q0 21 -8 38t-26.5 32.5t-33 25t-41.5 24.5l-51 28.5t-44.5 32t-40.5 41.5t-24.5 51t-10.5 67q0 59 31 104.5t84 65.5v4q-34 13 -56.5 51t-22.5 83q0 64 46.5 108t114.5 44q82 0 127 -56.5t39 -135.5l-90 6
q3 40 -17.5 69t-58.5 29q-30 0 -50.5 -18.5t-20.5 -45.5q0 -19 8 -34.5t25.5 -29.5t31.5 -22l40 -22q42 -22 64.5 -36t52 -41t43 -63.5t13.5 -84.5q0 -62 -33 -107t-86 -63v-4q37 -17 61 -53.5t24 -87.5q0 -63 -47 -107.5t-114 -44.5q-75 0 -123.5 54t-42.5 131zM360 275
q0 46 -25.5 76t-71.5 55q-53 3 -90 -27.5t-37 -78.5q0 -45 26 -74.5t74 -56.5q51 -3 87.5 28t36.5 78z" />
    <glyph glyph-name="dieresis" unicode="&#xa8;" horiz-adv-x="430" 
d="M126 628q22 0 38 -16t16 -38t-16 -38t-38 -16t-38 16t-16 38t16 38t38 16zM304 628q22 0 38 -16t16 -38t-16 -38t-38 -16t-38 16t-16 38t16 38t38 16z" />
    <glyph glyph-name="copyright" unicode="&#xa9;" horiz-adv-x="820" 
d="M410 720q153 0 261.5 -108.5t108.5 -261.5t-108.5 -261.5t-261.5 -108.5t-261.5 108.5t-108.5 261.5t108.5 261.5t261.5 108.5zM410 640q-118 0 -201 -85t-83 -205t83 -205t201 -85t201 85t83 205t-83 205t-201 85zM412 560q96 0 161 -75l-63 -55q-39 50 -98 50
q-51 0 -87.5 -38t-36.5 -92t36.5 -92t87.5 -38q64 0 101 55l62 -57q-61 -78 -163 -78q-87 0 -148.5 61.5t-61.5 148.5t61.5 148.5t148.5 61.5z" />
    <glyph glyph-name="ordfeminine" unicode="&#xaa;" horiz-adv-x="324" 
d="M154 614q40 0 65 -23l1 1q-4 0 -4 13v12q0 18 -15 28t-33 10q-39 0 -76 -22l-24 52q51 28 100 28q47 0 80.5 -25.5t33.5 -72.5v-155q-52 -37 -117 -37q-55 0 -89 27t-34 71q0 42 31 67.5t81 25.5zM165 481q31 0 51 14v35q-23 28 -62 28q-19 0 -32.5 -10.5t-13.5 -26.5
q0 -18 15.5 -29t41.5 -11z" />
    <glyph glyph-name="guillemotleft" unicode="&#xab;" horiz-adv-x="405" 
d="M197 469l50 -36q-14 -20 -70 -94l-78 -107l78 -107q56 -74 70 -94l-50 -36l-70 98l-101 139l101 139zM323 458l50 -38l-73 -94l-71 -94l71 -94l73 -94l-50 -38l-72 98l-97 128l98 128q14 18 37 51t34 47z" />
    <glyph glyph-name="logicalnot" unicode="&#xac;" horiz-adv-x="536" 
d="M190 410h276v-36q0 -20 0.5 -66t0.5 -54h-92q0 37 1 72h-186q-20 0 -66 -0.5t-54 -0.5v86q8 0 54 -0.5t66 -0.5z" />
    <glyph glyph-name="uni00AD" unicode="&#xad;" horiz-adv-x="275" 
d="M30 283q4 0 27 -0.5t33 -0.5h95q9 0 33 0.5t27 0.5v-78q-3 0 -27 0.5t-33 0.5h-95q-10 0 -33 -0.5t-27 -0.5v78z" />
    <glyph glyph-name="registered" unicode="&#xae;" horiz-adv-x="820" 
d="M410 720q153 0 261.5 -108.5t108.5 -261.5t-108.5 -261.5t-261.5 -108.5t-261.5 108.5t-108.5 261.5t108.5 261.5t261.5 108.5zM474 150l-24 53l-50 108h-47v-89q0 -12 0.5 -40t0.5 -32h-88q0 4 0.5 32t0.5 40v328h171q50 0 85 -35t35 -85q0 -74 -61 -104q-14 -7 -20 -5
l-1 -2q7 -4 13 -15l43 -89l31 -65h-89zM432 470h-79v-79h79q17 0 28.5 11.5t11.5 27.5t-12 28t-28 12zM410 640q-118 0 -201 -85t-83 -205t83 -205t201 -85t201 85t83 205t-83 205t-201 85z" />
    <glyph glyph-name="macron" unicode="&#xaf;" horiz-adv-x="390" 
d="M80 607q3 0 26.5 -0.5t33.5 -0.5h110q10 0 33 0.5t27 0.5v-66q-4 0 -27 0.5t-33 0.5h-110q-10 0 -33.5 -0.5t-26.5 -0.5v66z" />
    <glyph glyph-name="degree" unicode="&#xb0;" horiz-adv-x="350" 
d="M175 712q56 0 95.5 -39.5t39.5 -95.5t-39.5 -95.5t-95.5 -39.5t-95.5 39.5t-39.5 95.5t39.5 95.5t95.5 39.5zM175 650q-29 0 -50 -21.5t-21 -51.5t21 -51.5t50 -21.5t50 21.5t21 51.5t-21 51.5t-50 21.5z" />
    <glyph glyph-name="plusminus" unicode="&#xb1;" horiz-adv-x="536" 
d="M190 470h30v36q0 20 -0.5 66t-0.5 54h97q0 -8 -0.5 -54t-0.5 -66v-36h31q20 0 66 0.5t54 0.5v-86q-8 0 -54 0.5t-66 0.5h-31v-36q0 -20 0.5 -66t0.5 -54h-97q0 8 0.5 54t0.5 66v36h-30q-20 0 -66 -0.5t-54 -0.5v86q8 0 54 -0.5t66 -0.5zM190 170h156q20 0 66 0.5t54 0.5
v-86q-8 0 -54 0.5t-66 0.5h-156q-20 0 -66 -0.5t-54 -0.5v86q8 0 54 -0.5t66 -0.5z" />
    <glyph glyph-name="twosuperior" unicode="&#x2072;" horiz-adv-x="310" 
d="M12 410l151 182q33 38 33 60q0 18 -11.5 30t-30.5 12q-20 0 -33 -16t-13 -40h-78q0 53 36 90.5t88 37.5t86 -33t34 -81q0 -42 -38 -90l-33 -40q-22 -30 -41 -40l1 -2q10 2 57 2q14 0 35.5 0.5t24.5 0.5v-74q-4 0 -27.5 0.5t-32.5 0.5h-208z" />
    <glyph glyph-name="twosuperior" unicode="&#xb2;" horiz-adv-x="310" 
d="M12 410l151 182q33 38 33 60q0 18 -11.5 30t-30.5 12q-20 0 -33 -16t-13 -40h-78q0 53 36 90.5t88 37.5t86 -33t34 -81q0 -42 -38 -90l-33 -40q-22 -30 -41 -40l1 -2q10 2 57 2q14 0 35.5 0.5t24.5 0.5v-74q-4 0 -27.5 0.5t-32.5 0.5h-208z" />
    <glyph glyph-name="threesuperior" unicode="&#x2073;" horiz-adv-x="310" 
d="M158 766q47 0 80 -30.5t33 -73.5q0 -54 -38 -65v-4q47 -16 47 -76q0 -47 -35.5 -80t-90.5 -33q-50 0 -84 33.5t-39 85.5h74q2 -21 17 -34t32 -13q21 0 34.5 11t13.5 30q0 18 -10 30.5t-28 12.5h-27v65h24q32 0 32 37q0 14 -10 23t-25 9t-25.5 -13t-10.5 -31h-77
q0 48 32.5 82t80.5 34z" />
    <glyph glyph-name="threesuperior" unicode="&#xb3;" horiz-adv-x="310" 
d="M158 766q47 0 80 -30.5t33 -73.5q0 -54 -38 -65v-4q47 -16 47 -76q0 -47 -35.5 -80t-90.5 -33q-50 0 -84 33.5t-39 85.5h74q2 -21 17 -34t32 -13q21 0 34.5 11t13.5 30q0 18 -10 30.5t-28 12.5h-27v65h24q32 0 32 37q0 14 -10 23t-25 9t-25.5 -13t-10.5 -31h-77
q0 48 32.5 82t80.5 34z" />
    <glyph glyph-name="acute" unicode="&#xb4;" horiz-adv-x="320" 
d="M103 523l-41 32l120 151l81 -45z" />
    <glyph glyph-name="mu" unicode="&#xb5;" horiz-adv-x="510" 
d="M451 435q0 -7 -0.5 -54t-0.5 -66v-272q-26 -23 -73.5 -39t-106.5 -16q-93 0 -122 37l-4 -2q6 -18 6 -77v-46q0 -20 0.5 -66t0.5 -54h-92q0 8 0.5 54t0.5 66v415q0 19 -0.5 66t-0.5 54h92q0 -7 -0.5 -54t-0.5 -66v-152q0 -41 30 -67t86 -26q54 0 94 18v227q0 19 -0.5 66
t-0.5 54h92z" />
    <glyph glyph-name="paragraph" unicode="&#xb6;" horiz-adv-x="555" 
d="M527 701v-90q-36 0 -62 1v-712q0 -20 0.5 -66t0.5 -54h-92q0 8 0.5 54t0.5 66v712h-95v-712q0 -20 0.5 -66t0.5 -54h-92q0 8 0.5 54t0.5 66v470q-73 0 -124 48.5t-51 116.5t51 116.5t124 48.5h185h72q18 0 47 0.5t33 0.5z" />
    <glyph glyph-name="periodcentered" unicode="&#xb7;" horiz-adv-x="536" 
d="M268 422q22 0 38 -16t16 -38t-16 -38t-38 -16t-38 16t-16 38t16 38t38 16z" />
    <glyph glyph-name="cedilla" unicode="&#xb8;" horiz-adv-x="300" 
d="M57 -150l76 113l66 -50l-91 -100z" />
    <glyph glyph-name="onesuperior" unicode="&#x2071;" horiz-adv-x="310" 
d="M62 688l42 72h101v-290q0 -10 0.5 -33.5t0.5 -26.5h-82q0 3 0.5 26.5t0.5 33.5v218h-63z" />
    <glyph glyph-name="onesuperior" unicode="&#xb9;" horiz-adv-x="310" 
d="M62 688l42 72h101v-290q0 -10 0.5 -33.5t0.5 -26.5h-82q0 3 0.5 26.5t0.5 33.5v218h-63z" />
    <glyph glyph-name="ordmasculine" unicode="&#xba;" horiz-adv-x="386" 
d="M193 712q60 0 102.5 -42.5t42.5 -102.5t-42.5 -102.5t-102.5 -42.5t-102.5 42.5t-42.5 102.5t42.5 102.5t102.5 42.5zM193 650q-33 0 -56 -24t-23 -59t23 -59t56 -24t56 24t23 59t-23 59t-56 24z" />
    <glyph glyph-name="guillemotright" unicode="&#xbb;" horiz-adv-x="405" 
d="M82 458q11 -14 34 -47t37 -51l98 -128l-97 -128l-72 -98l-50 38l73 94l71 94l-71 94l-73 94zM208 469l70 -98l101 -139l-101 -139l-70 -98l-50 36q14 20 70 94l78 107l-78 107q-56 74 -70 94z" />
    <glyph glyph-name="onequarter" unicode="&#xbc;" horiz-adv-x="491" 
d="M168 369h156q19 0 65.5 0.5t54.5 0.5v-72q-8 0 -54.5 0.5t-65.5 0.5h-156q-20 0 -66 -0.5t-54 -0.5v72q8 0 54 -0.5t66 -0.5zM150 688l42 72h101v-290q0 -10 0.5 -33.5t0.5 -26.5h-82q0 3 0.5 26.5t0.5 33.5v218h-63zM72 -37l257 308v-244q10 0 25 0.5t18 0.5v-66
q-3 0 -18 0.5t-25 0.5q0 -12 0.5 -31t0.5 -22h-74q0 3 0.5 22t0.5 31h-185zM207 27h50v60z" />
    <glyph glyph-name="onehalf" unicode="&#xbd;" horiz-adv-x="491" 
d="M168 369h156q19 0 65.5 0.5t54.5 0.5v-72q-8 0 -54.5 0.5t-65.5 0.5h-156q-20 0 -66 -0.5t-54 -0.5v72q8 0 54 -0.5t66 -0.5zM110 -90l151 182q33 38 33 60q0 18 -11.5 30t-30.5 12q-20 0 -33 -16t-13 -40h-78q0 53 36 90.5t88 37.5t86 -33t34 -81q0 -42 -38 -90l-33 -40
q-22 -30 -41 -40l1 -2q10 2 57 2q14 0 35.5 0.5t24.5 0.5v-74q-4 0 -27.5 0.5t-32.5 0.5h-208zM150 688l42 72h101v-290q0 -10 0.5 -33.5t0.5 -26.5h-82q0 3 0.5 26.5t0.5 33.5v218h-63z" />
    <glyph glyph-name="threequarters" unicode="&#xbe;" horiz-adv-x="491" 
d="M168 369h156q19 0 65.5 0.5t54.5 0.5v-72q-8 0 -54.5 0.5t-65.5 0.5h-156q-20 0 -66 -0.5t-54 -0.5v72q8 0 54 -0.5t66 -0.5zM239 766q47 0 80 -30.5t33 -73.5q0 -54 -38 -65v-4q47 -16 47 -76q0 -47 -35.5 -80t-90.5 -33q-50 0 -84 33.5t-39 85.5h74q2 -21 17 -34
t32 -13q21 0 34.5 11t13.5 30q0 18 -10 30.5t-28 12.5h-27v65h24q32 0 32 37q0 14 -10 23t-25 9t-25.5 -13t-10.5 -31h-77q0 48 32.5 82t80.5 34zM72 -37l257 308v-244q10 0 25 0.5t18 0.5v-66q-3 0 -18 0.5t-25 0.5q0 -12 0.5 -31t0.5 -22h-74q0 3 0.5 22t0.5 31h-185z
M207 27h50v60z" />
    <glyph glyph-name="questiondown" unicode="&#xbf;" horiz-adv-x="374" 
d="M185 324q61 0 105.5 -42.5t44.5 -99.5q0 -64 -39 -98.5t-105 -55.5q-44 -13 -65.5 -32.5t-21.5 -55.5q0 -33 23 -56.5t57 -23.5q43 0 65 30t23 71l78 -2q-2 -72 -43.5 -123.5t-122.5 -51.5q-66 0 -113 46.5t-47 109.5q0 67 36.5 103t105.5 58q41 13 65 31t24 50
q0 27 -20.5 46.5t-49.5 19.5q-32 0 -51.5 -21.5t-21.5 -55.5l-77 4q4 65 43.5 107t106.5 42zM187 492q23 0 38.5 -16t15.5 -38t-15.5 -38t-38.5 -16t-38.5 16t-15.5 38t15.5 38t38.5 16z" />
    <glyph glyph-name="Agrave" unicode="&#xc0;" 
d="M562 70l-13 28h-373l-12 -28q-15 -32 -31 -70h-103l50 109l279 629l287 -629q7 -16 27 -58.5t23 -50.5h-103q-16 38 -31 70zM246 186h231q26 0 35 -6l2 4q-6 3 -16 26l-111 243q-25 54 -25 75h-4q0 -21 -24 -75l-108 -243q-10 -22 -17 -26l2 -4q6 6 35 6zM334 790
l-41 -32l-160 138l81 45z" />
    <glyph glyph-name="Aacute" unicode="&#xc1;" 
d="M562 70l-13 28h-373l-12 -28q-15 -32 -31 -70h-103l50 109l279 629l287 -629q7 -16 27 -58.5t23 -50.5h-103q-16 38 -31 70zM246 186h231q26 0 35 -6l2 4q-6 3 -16 26l-111 243q-25 54 -25 75h-4q0 -21 -24 -75l-108 -243q-10 -22 -17 -26l2 -4q6 6 35 6zM413 758l-41 32
l120 151l81 -45z" />
    <glyph glyph-name="Acircumflex" unicode="&#xc2;" 
d="M562 70l-13 28h-373l-12 -28q-15 -32 -31 -70h-103l50 109l279 629l287 -629q7 -16 27 -58.5t23 -50.5h-103q-16 38 -31 70zM246 186h231q26 0 35 -6l2 4q-6 3 -16 26l-111 243q-25 54 -25 75h-4q0 -21 -24 -75l-108 -243q-10 -22 -17 -26l2 -4q6 6 35 6zM359 818
l-67 -67l-40 40l107 106l107 -106l-40 -40z" />
    <glyph glyph-name="Atilde" unicode="&#xc3;" 
d="M562 70l-13 28h-373l-12 -28q-15 -32 -31 -70h-103l50 109l279 629l287 -629q7 -16 27 -58.5t23 -50.5h-103q-16 38 -31 70zM246 186h231q26 0 35 -6l2 4q-6 3 -16 26l-111 243q-25 54 -25 75h-4q0 -21 -24 -75l-108 -243q-10 -22 -17 -26l2 -4q6 6 35 6zM245 759l-62 10
q8 45 47.5 73t84.5 23l96 -13q21 -3 39.5 11t22.5 37l62 -10q-8 -45 -47.5 -73t-84.5 -23l-96 13q-21 3 -39.5 -11t-22.5 -37z" />
    <glyph glyph-name="Adieresis" unicode="&#xc4;" 
d="M562 70l-13 28h-373l-12 -28q-15 -32 -31 -70h-103l50 109l279 629l287 -629q7 -16 27 -58.5t23 -50.5h-103q-16 38 -31 70zM246 186h231q26 0 35 -6l2 4q-6 3 -16 26l-111 243q-25 54 -25 75h-4q0 -21 -24 -75l-108 -243q-10 -22 -17 -26l2 -4q6 6 35 6zM271 893
q23 0 38.5 -15.5t15.5 -38.5t-15.5 -38.5t-38.5 -15.5t-38.5 15.5t-15.5 38.5t15.5 38.5t38.5 15.5zM449 893q23 0 38.5 -15.5t15.5 -38.5t-15.5 -38.5t-38.5 -15.5t-38.5 15.5t-15.5 38.5t15.5 38.5t38.5 15.5z" />
    <glyph glyph-name="Aring" unicode="&#xc5;" 
d="M562 70l-13 28h-373l-12 -28q-15 -32 -31 -70h-103l50 109l279 629l287 -629q7 -16 27 -58.5t23 -50.5h-103q-16 38 -31 70zM246 186h231q26 0 35 -6l2 4q-6 3 -16 26l-111 243q-25 54 -25 75h-4q0 -21 -24 -75l-108 -243q-10 -22 -17 -26l2 -4q6 6 35 6zM359 965
q43 0 73.5 -29.5t30.5 -70.5t-30.5 -70.5t-73.5 -29.5t-73.5 29.5t-30.5 70.5t30.5 70.5t73.5 29.5zM359 909q-18 0 -31 -13t-13 -31t13 -31t31 -13t31 13t13 31t-13 31t-31 13z" />
    <glyph glyph-name="AE" unicode="&#xc6;" horiz-adv-x="886" 
d="M469 0v98h-278l-14 -22l-48 -76h-119l87 127l372 573h232q19 0 66 0.5t54 0.5v-90q-7 0 -54 0.5t-66 0.5h-137v-184h88q20 0 66 0.5t54 0.5v-92q-8 0 -54 0.5t-66 0.5h-88v-246h157q19 0 65.5 0.5t54.5 0.5v-94q-8 0 -54.5 0.5t-65.5 0.5h-252zM242 180q6 6 35 6h192v274
q0 62 8 80l-5 2q-8 -23 -32 -61l-176 -271q-12 -18 -24 -26z" />
    <glyph glyph-name="Ccedilla" unicode="&#xc7;" 
d="M633 165l64 -65q-115 -120 -287 -120q-153 0 -261.5 108.5t-108.5 261.5t108.5 261.5t261.5 108.5q82 0 154 -33.5t124 -92.5l-68 -62q-38 47 -93 73.5t-117 26.5q-114 0 -194.5 -82.5t-80.5 -199.5t80.5 -199.5t194.5 -82.5q134 0 223 97zM413 -37l-76 -113l51 -37
l91 100z" />
    <glyph glyph-name="Egrave" unicode="&#xc8;" horiz-adv-x="467" 
d="M50 0v700h232q20 0 66.5 0.5t53.5 0.5v-90q-7 0 -53.5 0.5t-66.5 0.5h-137v-184h88q19 0 66 0.5t54 0.5v-92q-7 0 -54 0.5t-66 0.5h-88v-246h157q20 0 66 0.5t54 0.5v-94q-8 0 -54 0.5t-66 0.5h-252zM286 790l-41 -32l-160 138l81 45z" />
    <glyph glyph-name="Eacute" unicode="&#xc9;" horiz-adv-x="467" 
d="M50 0v700h232q20 0 66.5 0.5t53.5 0.5v-90q-7 0 -53.5 0.5t-66.5 0.5h-137v-184h88q19 0 66 0.5t54 0.5v-92q-7 0 -54 0.5t-66 0.5h-88v-246h157q20 0 66 0.5t54 0.5v-94q-8 0 -54 0.5t-66 0.5h-252zM170 758l-41 32l120 151l81 -45z" />
    <glyph glyph-name="Ecircumflex" unicode="&#xca;" horiz-adv-x="467" 
d="M50 0v700h232q20 0 66.5 0.5t53.5 0.5v-90q-7 0 -53.5 0.5t-66.5 0.5h-137v-184h88q19 0 66 0.5t54 0.5v-92q-7 0 -54 0.5t-66 0.5h-88v-246h157q20 0 66 0.5t54 0.5v-94q-8 0 -54 0.5t-66 0.5h-252zM232 818l-67 -67l-40 40l107 106l107 -106l-40 -40z" />
    <glyph glyph-name="Edieresis" unicode="&#xcb;" horiz-adv-x="467" 
d="M50 0v700h232q20 0 66.5 0.5t53.5 0.5v-90q-7 0 -53.5 0.5t-66.5 0.5h-137v-184h88q19 0 66 0.5t54 0.5v-92q-7 0 -54 0.5t-66 0.5h-88v-246h157q20 0 66 0.5t54 0.5v-94q-8 0 -54 0.5t-66 0.5h-252zM140 893q22 0 38 -15.5t16 -38.5t-16 -38.5t-38 -15.5t-38 15.5
t-16 38.5t16 38.5t38 15.5zM318 893q22 0 38 -15.5t16 -38.5t-16 -38.5t-38 -15.5t-38 15.5t-16 38.5t16 38.5t38 15.5z" />
    <glyph glyph-name="Igrave" unicode="&#xcc;" horiz-adv-x="235" 
d="M69 700h97q0 -8 -0.5 -54t-0.5 -66v-460q0 -20 0.5 -66.5t0.5 -53.5h-97q0 7 0.5 53.5t0.5 66.5v460q0 20 -0.5 66t-0.5 54zM168 790l-41 -32l-160 138l81 45z" />
    <glyph glyph-name="Iacute" unicode="&#xcd;" horiz-adv-x="235" 
d="M69 700h97q0 -8 -0.5 -54t-0.5 -66v-460q0 -20 0.5 -66.5t0.5 -53.5h-97q0 7 0.5 53.5t0.5 66.5v460q0 20 -0.5 66t-0.5 54zM114 758l-41 32l120 151l81 -45z" />
    <glyph glyph-name="Icircumflex" unicode="&#xce;" horiz-adv-x="235" 
d="M69 700h97q0 -8 -0.5 -54t-0.5 -66v-460q0 -20 0.5 -66.5t0.5 -53.5h-97q0 7 0.5 53.5t0.5 66.5v460q0 20 -0.5 66t-0.5 54zM117 818l-67 -67l-40 40l107 106l107 -106l-40 -40z" />
    <glyph glyph-name="Idieresis" unicode="&#xcf;" horiz-adv-x="235" 
d="M69 700h97q0 -8 -0.5 -54t-0.5 -66v-460q0 -20 0.5 -66.5t0.5 -53.5h-97q0 7 0.5 53.5t0.5 66.5v460q0 20 -0.5 66t-0.5 54zM28 893q22 0 38 -15.5t16 -38.5t-16 -38.5t-38 -15.5t-38 15.5t-16 38.5t16 38.5t38 15.5zM206 893q22 0 38 -15.5t16 -38.5t-16 -38.5
t-38 -15.5t-38 15.5t-16 38.5t16 38.5t38 15.5z" />
    <glyph glyph-name="Eth" unicode="&#xd0;" horiz-adv-x="660" 
d="M75 0v340q-27 -1 -65 -1v90l24 -1h41v272h185q149 0 254.5 -102.5t105.5 -247.5t-99.5 -247.5t-240.5 -102.5h-205zM260 612h-90v-184h25q9 0 53 0.5t47 0.5v-90q-3 0 -47 0.5t-53 0.5h-25v-252h110q101 0 173 76.5t72 185.5t-77.5 185.5t-187.5 76.5z" />
    <glyph glyph-name="Ntilde" unicode="&#xd1;" horiz-adv-x="725" 
d="M671 -28l-450 455q-63 65 -80 89l-3 -2q7 -35 7 -74v-320q0 -20 0.5 -66.5t0.5 -53.5h-97q0 7 0.5 53.5t0.5 66.5v608l450 -455q63 -65 80 -89l3 2q-7 35 -7 74v320q0 20 -0.5 66t-0.5 54h97q0 -8 -0.5 -54t-0.5 -66v-608zM248 759l-62 10q8 45 47.5 73t84.5 23l96 -13
q21 -3 39.5 11t22.5 37l62 -10q-8 -45 -47.5 -73t-84.5 -23l-96 13q-21 3 -39.5 -11t-22.5 -37z" />
    <glyph glyph-name="Ograve" unicode="&#xd2;" horiz-adv-x="820" 
d="M410 720q153 0 261.5 -108.5t108.5 -261.5t-108.5 -261.5t-261.5 -108.5t-261.5 108.5t-108.5 261.5t108.5 261.5t261.5 108.5zM410 632q-114 0 -194.5 -82.5t-80.5 -199.5t80.5 -199.5t194.5 -82.5t194.5 82.5t80.5 199.5t-80.5 199.5t-194.5 82.5zM474 790l-41 -32
l-160 138l81 45z" />
    <glyph glyph-name="Oacute" unicode="&#xd3;" horiz-adv-x="820" 
d="M410 720q153 0 261.5 -108.5t108.5 -261.5t-108.5 -261.5t-261.5 -108.5t-261.5 108.5t-108.5 261.5t108.5 261.5t261.5 108.5zM410 632q-114 0 -194.5 -82.5t-80.5 -199.5t80.5 -199.5t194.5 -82.5t194.5 82.5t80.5 199.5t-80.5 199.5t-194.5 82.5zM393 758l-41 32
l120 151l81 -45z" />
    <glyph glyph-name="Ocircumflex" unicode="&#xd4;" horiz-adv-x="820" 
d="M410 720q153 0 261.5 -108.5t108.5 -261.5t-108.5 -261.5t-261.5 -108.5t-261.5 108.5t-108.5 261.5t108.5 261.5t261.5 108.5zM410 632q-114 0 -194.5 -82.5t-80.5 -199.5t80.5 -199.5t194.5 -82.5t194.5 82.5t80.5 199.5t-80.5 199.5t-194.5 82.5zM410 818l-67 -67
l-40 40l107 106l107 -106l-40 -40z" />
    <glyph glyph-name="Otilde" unicode="&#xd5;" horiz-adv-x="820" 
d="M410 720q153 0 261.5 -108.5t108.5 -261.5t-108.5 -261.5t-261.5 -108.5t-261.5 108.5t-108.5 261.5t108.5 261.5t261.5 108.5zM410 632q-114 0 -194.5 -82.5t-80.5 -199.5t80.5 -199.5t194.5 -82.5t194.5 82.5t80.5 199.5t-80.5 199.5t-194.5 82.5zM296 759l-62 10
q8 45 47.5 73t84.5 23l96 -13q21 -3 39.5 11t22.5 37l62 -10q-8 -45 -47.5 -73t-84.5 -23l-96 13q-21 3 -39.5 -11t-22.5 -37z" />
    <glyph glyph-name="Odieresis" unicode="&#xd6;" horiz-adv-x="820" 
d="M410 720q153 0 261.5 -108.5t108.5 -261.5t-108.5 -261.5t-261.5 -108.5t-261.5 108.5t-108.5 261.5t108.5 261.5t261.5 108.5zM410 632q-114 0 -194.5 -82.5t-80.5 -199.5t80.5 -199.5t194.5 -82.5t194.5 82.5t80.5 199.5t-80.5 199.5t-194.5 82.5zM321 893
q23 0 38.5 -15.5t15.5 -38.5t-15.5 -38.5t-38.5 -15.5t-38.5 15.5t-15.5 38.5t15.5 38.5t38.5 15.5zM499 893q23 0 38.5 -15.5t15.5 -38.5t-15.5 -38.5t-38.5 -15.5t-38.5 15.5t-15.5 38.5t15.5 38.5t38.5 15.5z" />
    <glyph glyph-name="multiply" unicode="&#xd7;" horiz-adv-x="536" 
d="M268 427l25 26l85 85l60 -60l-21 -21l-35.5 -35.5l-28.5 -28.5l-26 -25l26 -25l85 -85l-60 -60l-85 85l-25 26l-25 -26l-28.5 -28.5l-35.5 -35.5l-21 -21l-60 60l21 21l35.5 35.5l28.5 28.5l26 25l-26 25l-28.5 28.5l-35.5 35.5l-21 21l60 60l21 -21l35.5 -35.5
l28.5 -28.5z" />
    <glyph glyph-name="Oslash" unicode="&#xd8;" horiz-adv-x="820" 
d="M410 720q125 0 227 -79l59 60l65 -65l-60 -59q79 -102 79 -227q0 -153 -108.5 -261.5t-261.5 -108.5q-128 0 -228 78l-58 -59l-65 65l59 58q-78 100 -78 228q0 153 108.5 261.5t261.5 108.5zM685 350q0 88 -50 162l-389 -389q74 -55 164 -55q114 0 194.5 82.5t80.5 199.5
zM410 632q-114 0 -194.5 -82.5t-80.5 -199.5q0 -90 50 -162l388 388q-72 56 -163 56z" />
    <glyph glyph-name="Ugrave" unicode="&#xd9;" horiz-adv-x="623" 
d="M146 700q0 -8 -0.5 -54t-0.5 -66v-340q0 -88 36 -125q48 -51 147 -51q103 0 147 40v476q0 20 -0.5 66t-0.5 54h97q0 -8 -0.5 -54t-0.5 -66v-514q-26 -36 -88.5 -61t-153.5 -25q-149 0 -220 75q-58 61 -58 165v360q0 20 -0.5 66t-0.5 54h97zM390 790l-41 -32l-160 138
l81 45z" />
    <glyph glyph-name="Uacute" unicode="&#xda;" horiz-adv-x="623" 
d="M146 700q0 -8 -0.5 -54t-0.5 -66v-340q0 -88 36 -125q48 -51 147 -51q103 0 147 40v476q0 20 -0.5 66t-0.5 54h97q0 -8 -0.5 -54t-0.5 -66v-514q-26 -36 -88.5 -61t-153.5 -25q-149 0 -220 75q-58 61 -58 165v360q0 20 -0.5 66t-0.5 54h97zM255 758l-41 32l120 151
l81 -45z" />
    <glyph glyph-name="Ucircumflex" unicode="&#xdb;" horiz-adv-x="623" 
d="M146 700q0 -8 -0.5 -54t-0.5 -66v-340q0 -88 36 -125q48 -51 147 -51q103 0 147 40v476q0 20 -0.5 66t-0.5 54h97q0 -8 -0.5 -54t-0.5 -66v-514q-26 -36 -88.5 -61t-153.5 -25q-149 0 -220 75q-58 61 -58 165v360q0 20 -0.5 66t-0.5 54h97zM312 818l-67 -67l-40 40
l107 106l107 -106l-40 -40z" />
    <glyph glyph-name="Udieresis" unicode="&#xdc;" horiz-adv-x="623" 
d="M216 883q22 0 38 -15.5t16 -38.5t-16 -38.5t-38 -15.5t-38 15.5t-16 38.5t16 38.5t38 15.5zM414 883q22 0 38 -15.5t16 -38.5t-16 -38.5t-38 -15.5t-38 15.5t-16 38.5t16 38.5t38 15.5zM146 700q0 -8 -0.5 -54t-0.5 -66v-340q0 -88 36 -125q48 -51 147 -51q103 0 147 40
v476q0 20 -0.5 66t-0.5 54h97q0 -8 -0.5 -54t-0.5 -66v-514q-26 -36 -88.5 -61t-153.5 -25q-149 0 -220 75q-58 61 -58 165v360q0 20 -0.5 66t-0.5 54h97z" />
    <glyph glyph-name="Yacute" unicode="&#xdd;" horiz-adv-x="596" 
d="M255 0q0 7 0.5 53.5t0.5 66.5v184l-159 271l-39 63.5t-37 61.5h108l44 -77l94 -160q32 -55 32 -69h4q0 9 33 69l91 161l42 76h106l-71 -123l-153 -270v-187q0 -20 0.5 -66.5t0.5 -53.5h-97zM279 758l-41 32l120 151l81 -45z" />
    <glyph glyph-name="Thorn" unicode="&#xde;" horiz-adv-x="480" 
d="M240 160h-95v-40q0 -20 0.5 -66.5t0.5 -53.5h-97q0 7 0.5 53.5t0.5 66.5v460q0 20 -0.5 66t-0.5 54h97q0 -8 -0.5 -54t-0.5 -66v-6h95q87 0 148.5 -61t61.5 -147q0 -85 -61.5 -145.5t-148.5 -60.5zM236 244q50 0 86 36t36 86q0 52 -36 89t-86 37h-91v-248h91z" />
    <glyph glyph-name="germandbls" unicode="&#xdf;" horiz-adv-x="590" 
d="M262 807q94 0 143.5 -56.5t49.5 -136.5q0 -38 -11.5 -74t-20 -51t-30.5 -50q-41 -61 -41 -97q0 -9 3.5 -17t13.5 -16.5t16 -12.5l21.5 -14t19.5 -12q30 -19 43 -28t34.5 -29t30 -42.5t8.5 -51.5q0 -54 -41 -92.5t-111 -38.5q-85 0 -168 70l57 65q59 -51 111 -51
q26 0 44 14t18 33q0 11 -5.5 21.5t-18.5 21t-22.5 16.5l-27.5 18q-37 23 -56 37.5t-37.5 44t-18.5 64.5q0 28 9.5 57t17 42l26.5 44q1 2 7 12t8 12.5t7 12t7 14l6 13.5t5.5 15t3.5 15t3 17.5t1 17.5q0 46 -27 77.5t-78 31.5q-45 0 -71 -29t-26 -77v-717q0 -20 0.5 -66
t0.5 -54h-92q0 8 0.5 54t0.5 66v717q0 88 49 139t138 51z" />
    <glyph glyph-name="agrave" unicode="&#xe0;" horiz-adv-x="488" 
d="M333 555l-41 -32l-160 138l81 45zM236 -12q-86 0 -139 46t-53 120q0 69 50.5 109.5t125.5 40.5q79 0 114 -46l4 2q-7 22 -9 41q-3 30 -29 47t-60 17q-55 0 -117 -35l-36 75q77 42 153 42q52 0 95 -20.5t65 -59.5q18 -31 18 -79v-244q-31 -21 -80 -38.5t-102 -17.5z
M236 68q55 0 92 26v85q-12 18 -40.5 34.5t-67.5 16.5q-37 0 -63.5 -21t-26.5 -55q0 -40 28.5 -63t77.5 -23z" />
    <glyph glyph-name="aacute" unicode="&#xe1;" horiz-adv-x="488" 
d="M208 523l-41 32l120 151l81 -45zM236 -12q-86 0 -139 46t-53 120q0 69 50.5 109.5t125.5 40.5q79 0 114 -46l4 2q-7 22 -9 41q-3 30 -29 47t-60 17q-55 0 -117 -35l-36 75q77 42 153 42q52 0 95 -20.5t65 -59.5q18 -31 18 -79v-244q-31 -21 -80 -38.5t-102 -17.5zM236 68
q55 0 92 26v85q-12 18 -40.5 34.5t-67.5 16.5q-37 0 -63.5 -21t-26.5 -55q0 -40 28.5 -63t77.5 -23z" />
    <glyph glyph-name="acircumflex" unicode="&#xe2;" horiz-adv-x="488" 
d="M250 583l-67 -67l-40 40l107 106l107 -106l-40 -40zM236 -12q-86 0 -139 46t-53 120q0 69 50.5 109.5t125.5 40.5q79 0 114 -46l4 2q-7 22 -9 41q-3 30 -29 47t-60 17q-55 0 -117 -35l-36 75q77 42 153 42q52 0 95 -20.5t65 -59.5q18 -31 18 -79v-244q-31 -21 -80 -38.5
t-102 -17.5zM236 68q55 0 92 26v85q-12 18 -40.5 34.5t-67.5 16.5q-37 0 -63.5 -21t-26.5 -55q0 -40 28.5 -63t77.5 -23z" />
    <glyph glyph-name="atilde" unicode="&#xe3;" horiz-adv-x="488" 
d="M122 494l-62 10q8 45 47.5 73t84.5 23l96 -13q21 -3 39.5 11t22.5 37l62 -10q-8 -45 -47.5 -73t-84.5 -23l-96 13q-21 3 -39.5 -11t-22.5 -37zM236 -12q-86 0 -139 46t-53 120q0 69 50.5 109.5t125.5 40.5q79 0 114 -46l4 2q-7 22 -9 41q-3 30 -29 47t-60 17
q-55 0 -117 -35l-36 75q77 42 153 42q52 0 95 -20.5t65 -59.5q18 -31 18 -79v-244q-31 -21 -80 -38.5t-102 -17.5zM236 68q55 0 92 26v85q-12 18 -40.5 34.5t-67.5 16.5q-37 0 -63.5 -21t-26.5 -55q0 -40 28.5 -63t77.5 -23z" />
    <glyph glyph-name="adieresis" unicode="&#xe4;" horiz-adv-x="488" 
d="M166 628q22 0 38 -16t16 -38t-16 -38t-38 -16t-38 16t-16 38t16 38t38 16zM344 628q22 0 38 -16t16 -38t-16 -38t-38 -16t-38 16t-16 38t16 38t38 16zM236 -12q-86 0 -139 46t-53 120q0 69 50.5 109.5t125.5 40.5q79 0 114 -46l4 2q-7 22 -9 41q-3 30 -29 47t-60 17
q-55 0 -117 -35l-36 75q77 42 153 42q52 0 95 -20.5t65 -59.5q18 -31 18 -79v-244q-31 -21 -80 -38.5t-102 -17.5zM236 68q55 0 92 26v85q-12 18 -40.5 34.5t-67.5 16.5q-37 0 -63.5 -21t-26.5 -55q0 -40 28.5 -63t77.5 -23z" />
    <glyph glyph-name="aring" unicode="&#xe5;" horiz-adv-x="488" 
d="M236 -12q-86 0 -139 46t-53 120q0 69 50.5 109.5t125.5 40.5q79 0 114 -46l4 2q-7 22 -9 41q-3 30 -29 47t-60 17q-55 0 -117 -35l-36 75q77 42 153 42q52 0 95 -20.5t65 -59.5q18 -31 18 -79v-244q-31 -21 -80 -38.5t-102 -17.5zM236 68q55 0 92 26v85
q-12 18 -40.5 34.5t-67.5 16.5q-37 0 -63.5 -21t-26.5 -55q0 -40 28.5 -63t77.5 -23zM244 700q43 0 73.5 -29.5t30.5 -70.5t-30.5 -70.5t-73.5 -29.5t-73.5 29.5t-30.5 70.5t30.5 70.5t73.5 29.5zM244 644q-18 0 -31 -13t-13 -31t13 -31t31 -13t31 13t13 31t-13 31t-31 13z
" />
    <glyph glyph-name="ae" unicode="&#xe6;" horiz-adv-x="794" 
d="M333 257l4 2q-9 26 -10 42q-4 30 -29.5 47t-59.5 17q-60 0 -117 -35l-36 75q77 42 153 42q100 0 148 -63q60 63 152 63q99 0 154 -67t55 -156q0 -13 -1 -20h-329q7 -61 42 -97.5t95 -36.5q78 0 128 65l62 -59q-79 -88 -190 -88q-91 0 -149 49q-80 -49 -171 -49
q-85 0 -139.5 46.5t-54.5 121.5q0 68 51 109t127 41q38 0 69 -14t46 -35zM538 369q-43 0 -73.5 -23.5t-42.5 -65.5h230q-5 34 -36 61.5t-78 27.5zM234 68q53 0 92 26v85q-12 18 -41 33.5t-67 15.5q-36 0 -62 -19.5t-26 -52.5q0 -40 28.5 -64t75.5 -24z" />
    <glyph glyph-name="ccedilla" unicode="&#xe7;" horiz-adv-x="478" 
d="M260 447q59 0 104 -27.5t72 -65.5l-69 -54q-40 63 -107 63q-54 0 -92 -42.5t-38 -103.5q0 -60 38 -102.5t92 -42.5q75 0 120 64l64 -60q-75 -88 -184 -88q-91 0 -155.5 67.5t-64.5 161.5q0 95 64.5 162.5t155.5 67.5zM246 -37l-76 -113l51 -37l91 100z" />
    <glyph glyph-name="egrave" unicode="&#xe8;" horiz-adv-x="508" 
d="M460 204h-329q7 -61 42 -97.5t95 -36.5q78 0 128 65l62 -59q-79 -88 -190 -88q-109 0 -168.5 67t-59.5 168q0 97 59.5 160.5t152.5 63.5q99 0 154 -67t55 -156q0 -13 -1 -20zM252 369q-43 0 -73.5 -23.5t-42.5 -65.5h230q-5 34 -36 61.5t-78 27.5zM338 555l-41 -32
l-160 138l81 45z" />
    <glyph glyph-name="eacute" unicode="&#xe9;" horiz-adv-x="508" 
d="M460 204h-329q7 -61 42 -97.5t95 -36.5q78 0 128 65l62 -59q-79 -88 -190 -88q-109 0 -168.5 67t-59.5 168q0 97 59.5 160.5t152.5 63.5q99 0 154 -67t55 -156q0 -13 -1 -20zM252 369q-43 0 -73.5 -23.5t-42.5 -65.5h230q-5 34 -36 61.5t-78 27.5zM241 523l-41 32
l120 151l81 -45z" />
    <glyph glyph-name="ecircumflex" unicode="&#xea;" horiz-adv-x="508" 
d="M460 204h-329q7 -61 42 -97.5t95 -36.5q78 0 128 65l62 -59q-79 -88 -190 -88q-109 0 -168.5 67t-59.5 168q0 97 59.5 160.5t152.5 63.5q99 0 154 -67t55 -156q0 -13 -1 -20zM252 369q-43 0 -73.5 -23.5t-42.5 -65.5h230q-5 34 -36 61.5t-78 27.5zM260 583l-67 -67
l-40 40l107 106l107 -106l-40 -40z" />
    <glyph glyph-name="edieresis" unicode="&#xeb;" horiz-adv-x="508" 
d="M460 204h-329q7 -61 42 -97.5t95 -36.5q78 0 128 65l62 -59q-79 -88 -190 -88q-109 0 -168.5 67t-59.5 168q0 97 59.5 160.5t152.5 63.5q99 0 154 -67t55 -156q0 -13 -1 -20zM252 369q-43 0 -73.5 -23.5t-42.5 -65.5h230q-5 34 -36 61.5t-78 27.5zM170 628q22 0 38 -16
t16 -38t-16 -38t-38 -16t-38 16t-16 38t16 38t38 16zM348 628q22 0 38 -16t16 -38t-16 -38t-38 -16t-38 16t-16 38t16 38t38 16z" />
    <glyph glyph-name="igrave" unicode="&#xec;" horiz-adv-x="250" 
d="M80 120v195q0 19 -0.5 66t-0.5 54h92q0 -7 -0.5 -54t-0.5 -66v-195q0 -20 0.5 -66.5t0.5 -53.5h-92q0 7 0.5 53.5t0.5 66.5zM187 555l-41 -32l-160 138l81 45z" />
    <glyph glyph-name="iacute" unicode="&#xed;" horiz-adv-x="250" 
d="M80 120v195q0 19 -0.5 66t-0.5 54h92q0 -7 -0.5 -54t-0.5 -66v-195q0 -20 0.5 -66.5t0.5 -53.5h-92q0 7 0.5 53.5t0.5 66.5zM104 523l-41 32l120 151l81 -45z" />
    <glyph glyph-name="icircumflex" unicode="&#xee;" horiz-adv-x="250" 
d="M80 120v195q0 19 -0.5 66t-0.5 54h92q0 -7 -0.5 -54t-0.5 -66v-195q0 -20 0.5 -66.5t0.5 -53.5h-92q0 7 0.5 53.5t0.5 66.5zM125 583l-67 -67l-40 40l107 106l107 -106l-40 -40z" />
    <glyph glyph-name="idieresis" unicode="&#xef;" horiz-adv-x="250" 
d="M42 648q22 0 38 -16t16 -38t-16 -38t-38 -16t-38 16t-16 38t16 38t38 16zM208 648q22 0 38 -16t16 -38t-16 -38t-38 -16t-38 16t-16 38t16 38t38 16zM80 120v195q0 19 -0.5 66t-0.5 54h92q0 -7 -0.5 -54t-0.5 -66v-195q0 -20 0.5 -66.5t0.5 -53.5h-92q0 7 0.5 53.5
t0.5 66.5z" />
    <glyph glyph-name="eth" unicode="&#xf0;" horiz-adv-x="539" 
d="M364 720l38 -77l-15.5 -7.5l-27 -13t-20.5 -10.5l-19 -10l155 -282q24 -45 24 -103q0 -95 -67.5 -162t-162.5 -67t-162 67t-67 162t67 162.5t162 67.5q29 0 52 -13l2 3q-20 13 -40 49l-42 77l-20 -10q-13 -6 -34 -17.5l-28 -15.5l-38 77l15.5 7.5l27 13t20.5 10.5l16 8
l-8 16l-58 105l79 43l57 -106l10 -18l22 11l31.5 17zM269 363q-58 0 -98.5 -42.5t-40.5 -103.5q0 -60 40.5 -102.5t98.5 -42.5t99 42.5t41 102.5q0 61 -41 103.5t-99 42.5z" />
    <glyph glyph-name="ntilde" unicode="&#xf1;" horiz-adv-x="526" 
d="M164 435q-2 -48 -5 -57l4 -2q13 30 48.5 50.5t82.5 20.5q77 0 119.5 -44.5t42.5 -123.5v-159q0 -20 0.5 -66.5t0.5 -53.5h-92q0 7 0.5 53.5t0.5 66.5v140q0 57 -25.5 84t-66.5 27q-46 0 -77.5 -31.5t-31.5 -85.5v-134q0 -20 0.5 -66.5t0.5 -53.5h-92q0 7 0.5 53.5
t0.5 66.5v195q0 19 -0.5 66t-0.5 54h90zM147 494l-62 10q8 45 47.5 73t84.5 23l96 -13q21 -3 39.5 11t22.5 37l62 -10q-8 -45 -47.5 -73t-84.5 -23l-96 13q-21 3 -39.5 -11t-22.5 -37z" />
    <glyph glyph-name="ograve" unicode="&#xf2;" horiz-adv-x="539" 
d="M269 363q-58 0 -98.5 -42.5t-40.5 -103.5q0 -60 40.5 -102.5t98.5 -42.5t99 42.5t41 102.5q0 61 -41 103.5t-99 42.5zM269 447q95 0 162.5 -67.5t67.5 -162.5t-67.5 -162t-162.5 -67t-162 67t-67 162t67 162.5t162 67.5zM337 555l-41 -32l-160 138l81 45z" />
    <glyph glyph-name="oacute" unicode="&#xf3;" horiz-adv-x="539" 
d="M269 363q-58 0 -98.5 -42.5t-40.5 -103.5q0 -60 40.5 -102.5t98.5 -42.5t99 42.5t41 102.5q0 61 -41 103.5t-99 42.5zM269 447q95 0 162.5 -67.5t67.5 -162.5t-67.5 -162t-162.5 -67t-162 67t-67 162t67 162.5t162 67.5zM269 513l-41 32l120 151l81 -45z" />
    <glyph glyph-name="ocircumflex" unicode="&#xf4;" horiz-adv-x="539" 
d="M269 363q-58 0 -98.5 -42.5t-40.5 -103.5q0 -60 40.5 -102.5t98.5 -42.5t99 42.5t41 102.5q0 61 -41 103.5t-99 42.5zM269 447q95 0 162.5 -67.5t67.5 -162.5t-67.5 -162t-162.5 -67t-162 67t-67 162t67 162.5t162 67.5zM269 583l-67 -67l-40 40l107 106l107 -106
l-40 -40z" />
    <glyph glyph-name="otilde" unicode="&#xf5;" horiz-adv-x="539" 
d="M269 363q-58 0 -98.5 -42.5t-40.5 -103.5q0 -60 40.5 -102.5t98.5 -42.5t99 42.5t41 102.5q0 61 -41 103.5t-99 42.5zM269 447q95 0 162.5 -67.5t67.5 -162.5t-67.5 -162t-162.5 -67t-162 67t-67 162t67 162.5t162 67.5zM155 494l-62 10q8 45 47.5 73t84.5 23l96 -13
q21 -3 39.5 11t22.5 37l62 -10q-8 -45 -47.5 -73t-84.5 -23l-96 13q-21 3 -39.5 -11t-22.5 -37z" />
    <glyph glyph-name="odieresis" unicode="&#xf6;" horiz-adv-x="539" 
d="M269 363q-58 0 -98.5 -42.5t-40.5 -103.5q0 -60 40.5 -102.5t98.5 -42.5t99 42.5t41 102.5q0 61 -41 103.5t-99 42.5zM269 447q95 0 162.5 -67.5t67.5 -162.5t-67.5 -162t-162.5 -67t-162 67t-67 162t67 162.5t162 67.5zM180 628q22 0 38 -16t16 -38t-16 -38t-38 -16
t-38 16t-16 38t16 38t38 16zM358 628q22 0 38 -16t16 -38t-16 -38t-38 -16t-38 16t-16 38t16 38t38 16z" />
    <glyph glyph-name="divide" unicode="&#xf7;" horiz-adv-x="536" 
d="M268 587q22 0 38 -15.5t16 -38.5t-16 -38.5t-38 -15.5t-38 15.5t-16 38.5t16 38.5t38 15.5zM268 257q22 0 38 -15.5t16 -38.5t-16 -38.5t-38 -15.5t-38 15.5t-16 38.5t16 38.5t38 15.5zM190 410h156q20 0 66 0.5t54 0.5v-86q-8 0 -54 0.5t-66 0.5h-156q-20 0 -66 -0.5
t-54 -0.5v86q8 0 54 -0.5t66 -0.5z" />
    <glyph glyph-name="oslash" unicode="&#xf8;" horiz-adv-x="539" 
d="M269 447q70 0 127 -38l37 37l65 -65l-38 -37q39 -58 39 -127q0 -95 -67.5 -162t-162.5 -67q-70 0 -127 38l-37 -37l-65 65l38 36q-38 57 -38 127q0 95 67 162.5t162 67.5zM395 280l-191 -191q31 -17 65 -17q58 0 99 42.5t41 102.5q0 33 -14 63zM269 363
q-58 0 -98.5 -42.5t-40.5 -103.5q0 -35 13 -62l191 191q-31 17 -65 17z" />
    <glyph glyph-name="ugrave" unicode="&#xf9;" horiz-adv-x="510" 
d="M451 435q0 -7 -0.5 -54t-0.5 -66v-274q-25 -22 -74.5 -37.5t-109.5 -15.5q-105 0 -155.5 46t-50.5 123v158q0 19 -0.5 66t-0.5 54h92q0 -7 -0.5 -54t-0.5 -66v-143q0 -104 116 -104q50 0 94 20v227q0 19 -0.5 66t-0.5 54h92zM318 555l-41 -32l-160 138l81 45z" />
    <glyph glyph-name="uacute" unicode="&#xfa;" horiz-adv-x="510" 
d="M451 435q0 -7 -0.5 -54t-0.5 -66v-274q-25 -22 -74.5 -37.5t-109.5 -15.5q-105 0 -155.5 46t-50.5 123v158q0 19 -0.5 66t-0.5 54h92q0 -7 -0.5 -54t-0.5 -66v-143q0 -104 116 -104q50 0 94 20v227q0 19 -0.5 66t-0.5 54h92zM223 523l-41 32l120 151l81 -45z" />
    <glyph glyph-name="ucircumflex" unicode="&#xfb;" horiz-adv-x="510" 
d="M451 435q0 -7 -0.5 -54t-0.5 -66v-274q-25 -22 -74.5 -37.5t-109.5 -15.5q-105 0 -155.5 46t-50.5 123v158q0 19 -0.5 66t-0.5 54h92q0 -7 -0.5 -54t-0.5 -66v-143q0 -104 116 -104q50 0 94 20v227q0 19 -0.5 66t-0.5 54h92zM255 583l-67 -67l-40 40l107 106l107 -106
l-40 -40z" />
    <glyph glyph-name="udieresis" unicode="&#xfc;" horiz-adv-x="510" 
d="M451 435q0 -7 -0.5 -54t-0.5 -66v-274q-25 -22 -74.5 -37.5t-109.5 -15.5q-105 0 -155.5 46t-50.5 123v158q0 19 -0.5 66t-0.5 54h92q0 -7 -0.5 -54t-0.5 -66v-143q0 -104 116 -104q50 0 94 20v227q0 19 -0.5 66t-0.5 54h92zM170 628q22 0 38 -16t16 -38t-16 -38t-38 -16
t-38 16t-16 38t16 38t38 16zM348 628q22 0 38 -16t16 -38t-16 -38t-38 -16t-38 16t-16 38t16 38t38 16z" />
    <glyph glyph-name="yacute" unicode="&#xfd;" horiz-adv-x="500" 
d="M494 435l-67 -130l-218 -438l-43 -87h-96q16 34 64 127l82 164l-136 236l-38 65.5l-36 62.5h101l11.5 -20.5l18 -32l16.5 -29.5l65 -115q38 -66 40 -91h4q2 24 37 91l54 108q9 17 24 49t19 40h98zM215 523l-41 32l120 151l81 -45z" />
    <glyph glyph-name="thorn" unicode="&#xfe;" horiz-adv-x="555" 
d="M166 -220h-92q0 8 0.5 54t0.5 66v775q0 19 -0.5 66t-0.5 54h92q0 -7 -0.5 -54t-0.5 -66v-224q0 -32 -5 -44l4 -2q44 42 125 42q96 0 156 -63t60 -164t-64.5 -166.5t-167.5 -65.5q-73 0 -109 33l-4 -2q5 -12 5 -44v-75q0 -20 0.5 -66t0.5 -54zM165 304v-200
q48 -32 108 -32q62 0 102 42t40 106t-36 103.5t-94 39.5q-76 0 -120 -59z" />
    <glyph glyph-name="ydieresis" unicode="&#xff;" horiz-adv-x="500" 
d="M494 435l-67 -130l-218 -438l-43 -87h-96q16 34 64 127l82 164l-136 236l-38 65.5l-36 62.5h101l11.5 -20.5l18 -32l16.5 -29.5l65 -115q38 -66 40 -91h4q2 24 37 91l54 108q9 17 24 49t19 40h98zM162 628q22 0 38 -16t16 -38t-16 -38t-38 -16t-38 16t-16 38t16 38t38 16
zM340 628q22 0 38 -16t16 -38t-16 -38t-38 -16t-38 16t-16 38t16 38t38 16z" />
    <glyph glyph-name="Amacron" unicode="&#x100;" 
d="M562 70l-13 28h-373l-12 -28q-15 -32 -31 -70h-103l50 109l279 629l287 -629q7 -16 27 -58.5t23 -50.5h-103q-16 38 -31 70zM246 186h231q26 0 35 -6l2 4q-6 3 -16 26l-111 243q-25 54 -25 75h-4q0 -21 -24 -75l-108 -243q-10 -22 -17 -26l2 -4q6 6 35 6zM248 872
q4 0 27 -0.5t33 -0.5h110q10 0 33 0.5t27 0.5v-66q-4 0 -27 0.5t-33 0.5h-110q-10 0 -33 -0.5t-27 -0.5v66z" />
    <glyph glyph-name="amacron" unicode="&#x101;" horiz-adv-x="488" 
d="M126 607q4 0 27 -0.5t33 -0.5h110q10 0 33 0.5t27 0.5v-66q-4 0 -27 0.5t-33 0.5h-110q-10 0 -33 -0.5t-27 -0.5v66zM236 -12q-86 0 -139 46t-53 120q0 69 50.5 109.5t125.5 40.5q79 0 114 -46l4 2q-7 22 -9 41q-3 30 -29 47t-60 17q-55 0 -117 -35l-36 75q77 42 153 42
q52 0 95 -20.5t65 -59.5q18 -31 18 -79v-244q-31 -21 -80 -38.5t-102 -17.5zM236 68q55 0 92 26v85q-12 18 -40.5 34.5t-67.5 16.5q-37 0 -63.5 -21t-26.5 -55q0 -40 28.5 -63t77.5 -23z" />
    <glyph glyph-name="Abreve" unicode="&#x102;" 
d="M562 70l-13 28h-373l-12 -28q-15 -32 -31 -70h-103l50 109l279 629l287 -629q7 -16 27 -58.5t23 -50.5h-103q-16 38 -31 70zM246 186h231q26 0 35 -6l2 4q-6 3 -16 26l-111 243q-25 54 -25 75h-4q0 -21 -24 -75l-108 -243q-10 -22 -17 -26l2 -4q6 6 35 6zM440 905l60 -16
q-13 -46 -49.5 -71.5t-87.5 -25.5t-87.5 25.5t-49.5 71.5l60 16q16 -55 77 -55t77 55z" />
    <glyph glyph-name="abreve" unicode="&#x103;" horiz-adv-x="488" 
d="M322 640l60 -16q-13 -46 -49.5 -71.5t-87.5 -25.5t-87.5 25.5t-49.5 71.5l60 16q16 -55 77 -55t77 55zM236 -12q-86 0 -139 46t-53 120q0 69 50.5 109.5t125.5 40.5q79 0 114 -46l4 2q-7 22 -9 41q-3 30 -29 47t-60 17q-55 0 -117 -35l-36 75q77 42 153 42q52 0 95 -20.5
t65 -59.5q18 -31 18 -79v-244q-31 -21 -80 -38.5t-102 -17.5zM236 68q55 0 92 26v85q-12 18 -40.5 34.5t-67.5 16.5q-37 0 -63.5 -21t-26.5 -55q0 -40 28.5 -63t77.5 -23z" />
    <glyph glyph-name="Aogonek" unicode="&#x104;" 
d="M359 738l287 -629q7 -16 27 -58.5t23 -50.5h-70q-21 -32 -21 -56q0 -14 8.5 -24t23.5 -10q19 0 46 10l22 -63q-31 -17 -68 -17q-56 0 -82 30.5t-26 73.5q0 48 46 98l-26 56h-373l-12 -28q-15 -32 -31 -70h-103l50 109zM362 528h-4q0 -21 -24 -75l-108 -243
q-10 -22 -17 -26l2 -4q6 6 35 6h231q26 0 35 -6l2 4q-6 3 -16 26l-111 243q-25 54 -25 75z" />
    <glyph glyph-name="aogonek" unicode="&#x105;" horiz-adv-x="488" 
d="M234 -12q-86 1 -138 46.5t-52 119.5q0 69 50.5 109.5t125.5 40.5q79 0 114 -46l4 2q-7 22 -9 41q-3 30 -29 47t-60 17q-55 0 -117 -35l-36 75q77 42 153 42q52 0 95 -20.5t65 -59.5q18 -31 18 -79v-244q-45 -30 -98 -44h1q-21 -32 -21 -56q0 -14 8.5 -24t23.5 -10
q19 0 46 10l22 -63q-31 -17 -68 -17q-56 0 -82 30.5t-26 73.5q0 22 10 44zM236 68q55 0 92 26v85q-12 18 -40.5 34.5t-67.5 16.5q-37 0 -63.5 -21t-26.5 -55q0 -40 28.5 -63t77.5 -23z" />
    <glyph glyph-name="Cacute" unicode="&#x106;" 
d="M633 165l64 -65q-115 -120 -287 -120q-153 0 -261.5 108.5t-108.5 261.5t108.5 261.5t261.5 108.5q82 0 154 -33.5t124 -92.5l-68 -62q-38 47 -93 73.5t-117 26.5q-114 0 -194.5 -82.5t-80.5 -199.5t80.5 -199.5t194.5 -82.5q134 0 223 97zM393 758l-41 32l120 151
l81 -45z" />
    <glyph glyph-name="cacute" unicode="&#x107;" horiz-adv-x="460" 
d="M260 447q59 0 104 -27.5t72 -65.5l-69 -54q-40 63 -107 63q-54 0 -92 -42.5t-38 -103.5q0 -60 38 -102.5t92 -42.5q75 0 120 64l64 -60q-75 -88 -184 -88q-91 0 -155.5 67.5t-64.5 161.5q0 95 64.5 162.5t155.5 67.5zM227 523l-41 32l120 151l81 -45z" />
    <glyph glyph-name="Ccircumflex" unicode="&#x108;" 
d="M633 165l64 -65q-115 -120 -287 -120q-153 0 -261.5 108.5t-108.5 261.5t108.5 261.5t261.5 108.5q82 0 154 -33.5t124 -92.5l-68 -62q-38 47 -93 73.5t-117 26.5q-114 0 -194.5 -82.5t-80.5 -199.5t80.5 -199.5t194.5 -82.5q134 0 223 97zM410 848l-67 -67l-40 40
l107 106l107 -106l-40 -40z" />
    <glyph glyph-name="ccircumflex" unicode="&#x109;" horiz-adv-x="478" 
d="M260 447q59 0 104 -27.5t72 -65.5l-69 -54q-40 63 -107 63q-54 0 -92 -42.5t-38 -103.5q0 -60 38 -102.5t92 -42.5q75 0 120 64l64 -60q-75 -88 -184 -88q-91 0 -155.5 67.5t-64.5 161.5q0 95 64.5 162.5t155.5 67.5zM258 583l-67 -67l-40 40l107 106l107 -106l-40 -40z
" />
    <glyph glyph-name="Cdotaccent" unicode="&#x10a;" 
d="M633 165l64 -65q-115 -120 -287 -120q-153 0 -261.5 108.5t-108.5 261.5t108.5 261.5t261.5 108.5q82 0 154 -33.5t124 -92.5l-68 -62q-38 47 -93 73.5t-117 26.5q-114 0 -194.5 -82.5t-80.5 -199.5t80.5 -199.5t194.5 -82.5q134 0 223 97zM404 893q22 0 38 -15.5
t16 -38.5t-16 -38.5t-38 -15.5t-38 15.5t-16 38.5t16 38.5t38 15.5z" />
    <glyph glyph-name="cdotaccent" unicode="&#x10b;" horiz-adv-x="478" 
d="M260 447q59 0 104 -27.5t72 -65.5l-69 -54q-40 63 -107 63q-54 0 -92 -42.5t-38 -103.5q0 -60 38 -102.5t92 -42.5q75 0 120 64l64 -60q-75 -88 -184 -88q-91 0 -155.5 67.5t-64.5 161.5q0 95 64.5 162.5t155.5 67.5zM255 628q23 0 38.5 -16t15.5 -38t-15.5 -38
t-38.5 -16t-38.5 16t-15.5 38t15.5 38t38.5 16z" />
    <glyph glyph-name="Ccaron" unicode="&#x10c;" 
d="M633 165l64 -65q-115 -120 -287 -120q-153 0 -261.5 108.5t-108.5 261.5t108.5 261.5t261.5 108.5q82 0 154 -33.5t124 -92.5l-68 -62q-38 47 -93 73.5t-117 26.5q-114 0 -194.5 -82.5t-80.5 -199.5t80.5 -199.5t194.5 -82.5q134 0 223 97zM345 908l67 -67l67 67l40 -40
l-107 -106l-107 106z" />
    <glyph glyph-name="ccaron" unicode="&#x10d;" horiz-adv-x="478" 
d="M260 447q59 0 104 -27.5t72 -65.5l-69 -54q-40 63 -107 63q-54 0 -92 -42.5t-38 -103.5q0 -60 38 -102.5t92 -42.5q75 0 120 64l64 -60q-75 -88 -184 -88q-91 0 -155.5 67.5t-64.5 161.5q0 95 64.5 162.5t155.5 67.5zM193 643l67 -67l67 67l40 -40l-107 -106l-107 106z
" />
    <glyph glyph-name="Dcaron" unicode="&#x10e;" horiz-adv-x="645" 
d="M50 0v700h195q149 0 254.5 -102.5t105.5 -247.5t-99.5 -247.5t-240.5 -102.5h-215zM228 614h-83v-526h104q108 0 184.5 76.5t76.5 185.5q0 110 -82.5 187t-199.5 77zM189 908l67 -67l67 67l40 -40l-107 -106l-107 106z" />
    <glyph glyph-name="dcaron" unicode="&#x10f;" horiz-adv-x="710" 
d="M389 795h92q0 -7 -0.5 -54t-0.5 -66v-613q-89 -74 -198 -74q-103 0 -167.5 65.5t-64.5 166.5t60 164t156 63q81 0 125 -42l4 2q-5 12 -5 44v224q0 19 -0.5 66t-0.5 54zM390 104v200q-15 22 -46 40.5t-74 18.5q-58 0 -94 -39.5t-36 -103.5t39.5 -106t102.5 -42
q60 0 108 32zM580 709v86h86v-109q0 -35 -28 -69l-22 -25l-34 30l22 25q16 20 16 39v23h-40z" />
    <glyph glyph-name="Dcroat" unicode="&#x110;" horiz-adv-x="660" 
d="M75 0v340q-27 -1 -65 -1v90l24 -1h41v272h185q149 0 254.5 -102.5t105.5 -247.5t-99.5 -247.5t-240.5 -102.5h-205zM260 612h-90v-184h25q9 0 53 0.5t47 0.5v-90q-3 0 -47 0.5t-53 0.5h-25v-252h110q101 0 173 76.5t72 185.5t-77.5 185.5t-187.5 76.5z" />
    <glyph glyph-name="dcroat" unicode="&#x111;" horiz-adv-x="555" 
d="M389 795h92q0 -7 -0.5 -50t-0.5 -63q10 0 33 0.5t26 0.5v-86q-3 0 -26 0.5t-33 0.5v-535q-90 -75 -202 -75q-101 0 -164.5 64t-63.5 166q0 108 61 168.5t155 60.5q81 0 125 -42l4 2q-5 12 -5 44v147h-101q-9 0 -33 -0.5t-27 -0.5v86q3 0 27 -0.5t33 -0.5h101
q0 20 -0.5 63t-0.5 50zM390 109v192q-16 26 -46.5 44t-69.5 18q-64 0 -99 -40.5t-35 -104.5q0 -61 38.5 -103.5t99.5 -42.5q60 0 112 37z" />
    <glyph glyph-name="Emacron" unicode="&#x112;" horiz-adv-x="467" 
d="M50 0v700h232q20 0 66.5 0.5t53.5 0.5v-90q-7 0 -53.5 0.5t-66.5 0.5h-137v-184h88q19 0 66 0.5t54 0.5v-92q-7 0 -54 0.5t-66 0.5h-88v-246h157q20 0 66 0.5t54 0.5v-94q-8 0 -54 0.5t-66 0.5h-252zM110 872q4 0 27 -0.5t33 -0.5h110q10 0 33 0.5t27 0.5v-66
q-4 0 -27 0.5t-33 0.5h-110q-10 0 -33 -0.5t-27 -0.5v66z" />
    <glyph glyph-name="emacron" unicode="&#x113;" horiz-adv-x="508" 
d="M460 204h-329q7 -61 42 -97.5t95 -36.5q78 0 128 65l62 -59q-79 -88 -190 -88q-109 0 -168.5 67t-59.5 168q0 97 59.5 160.5t152.5 63.5q99 0 154 -67t55 -156q0 -13 -1 -20zM252 369q-43 0 -73.5 -23.5t-42.5 -65.5h230q-5 34 -36 61.5t-78 27.5zM144 607q4 0 27.5 -0.5
t32.5 -0.5h110q10 0 33 0.5t27 0.5v-66q-4 0 -27 0.5t-33 0.5h-110q-9 0 -32.5 -0.5t-27.5 -0.5v66z" />
    <glyph glyph-name="Ebreve" unicode="&#x114;" horiz-adv-x="467" 
d="M50 0v700h232q20 0 66.5 0.5t53.5 0.5v-90q-7 0 -53.5 0.5t-66.5 0.5h-137v-184h88q19 0 66 0.5t54 0.5v-92q-7 0 -54 0.5t-66 0.5h-88v-246h157q20 0 66 0.5t54 0.5v-94q-8 0 -54 0.5t-66 0.5h-252zM306 905l60 -16q-13 -46 -49.5 -71.5t-87.5 -25.5t-87.5 25.5
t-49.5 71.5l60 16q16 -55 77 -55t77 55z" />
    <glyph glyph-name="ebreve" unicode="&#x115;" horiz-adv-x="508" 
d="M460 204h-329q7 -61 42 -97.5t95 -36.5q78 0 128 65l62 -59q-79 -88 -190 -88q-109 0 -168.5 67t-59.5 168q0 97 59.5 160.5t152.5 63.5q99 0 154 -67t55 -156q0 -13 -1 -20zM252 369q-43 0 -73.5 -23.5t-42.5 -65.5h230q-5 34 -36 61.5t-78 27.5zM334 640l60 -16
q-13 -46 -49.5 -71.5t-87.5 -25.5t-87.5 25.5t-49.5 71.5l60 16q16 -55 77 -55t77 55z" />
    <glyph glyph-name="Edotaccent" unicode="&#x116;" horiz-adv-x="467" 
d="M50 0v700h232q20 0 66.5 0.5t53.5 0.5v-90q-7 0 -53.5 0.5t-66.5 0.5h-137v-184h88q19 0 66 0.5t54 0.5v-92q-7 0 -54 0.5t-66 0.5h-88v-246h157q20 0 66 0.5t54 0.5v-94q-8 0 -54 0.5t-66 0.5h-252zM223 893q23 0 38.5 -15.5t15.5 -38.5t-15.5 -38.5t-38.5 -15.5
t-38.5 15.5t-15.5 38.5t15.5 38.5t38.5 15.5z" />
    <glyph glyph-name="edotaccent" unicode="&#x117;" horiz-adv-x="508" 
d="M460 204h-329q7 -61 42 -97.5t95 -36.5q78 0 128 65l62 -59q-79 -88 -190 -88q-109 0 -168.5 67t-59.5 168q0 97 59.5 160.5t152.5 63.5q99 0 154 -67t55 -156q0 -13 -1 -20zM252 369q-43 0 -73.5 -23.5t-42.5 -65.5h230q-5 34 -36 61.5t-78 27.5zM259 628q23 0 38.5 -16
t15.5 -38t-15.5 -38t-38.5 -16t-38.5 16t-15.5 38t15.5 38t38.5 16z" />
    <glyph glyph-name="Eogonek" unicode="&#x118;" horiz-adv-x="467" 
d="M50 0v700h232q20 0 66.5 0.5t53.5 0.5v-90q-7 0 -53.5 0.5t-66.5 0.5h-137v-184h88q19 0 66 0.5t54 0.5v-92q-7 0 -54 0.5t-66 0.5h-88v-246h157q20 0 66 0.5t54 0.5v-94q-8 0 -54 0.5t-66 0.5h-3q-21 -32 -21 -56q0 -14 8.5 -24t23.5 -10q19 0 46 10l22 -63
q-31 -17 -68 -17q-56 0 -82 30.5t-26 73.5q0 29 15 56h-167z" />
    <glyph glyph-name="eogonek" unicode="&#x119;" horiz-adv-x="508" 
d="M460 204h-329q7 -61 42 -97.5t95 -36.5q78 0 128 65l62 -59q-50 -55 -115 -76q-21 -32 -21 -56q0 -14 8.5 -24t23.5 -10q19 0 46 10l22 -63q-31 -17 -68 -17q-56 0 -82 30.5t-26 73.5q0 22 10 44q-103 4 -159.5 70.5t-56.5 164.5q0 97 59.5 160.5t152.5 63.5
q99 0 154 -67t55 -156q0 -13 -1 -20zM252 369q-43 0 -73.5 -23.5t-42.5 -65.5h230q-5 34 -36 61.5t-78 27.5z" />
    <glyph glyph-name="Ecaron" unicode="&#x11a;" horiz-adv-x="467" 
d="M50 0v700h232q20 0 66.5 0.5t53.5 0.5v-90q-7 0 -53.5 0.5t-66.5 0.5h-137v-184h88q19 0 66 0.5t54 0.5v-92q-7 0 -54 0.5t-66 0.5h-88v-246h157q20 0 66 0.5t54 0.5v-94q-8 0 -54 0.5t-66 0.5h-252zM157 908l67 -67l67 67l40 -40l-107 -106l-107 106z" />
    <glyph glyph-name="ecaron" unicode="&#x11b;" horiz-adv-x="508" 
d="M460 204h-329q7 -61 42 -97.5t95 -36.5q78 0 128 65l62 -59q-79 -88 -190 -88q-109 0 -168.5 67t-59.5 168q0 97 59.5 160.5t152.5 63.5q99 0 154 -67t55 -156q0 -13 -1 -20zM252 369q-43 0 -73.5 -23.5t-42.5 -65.5h230q-5 34 -36 61.5t-78 27.5zM185 643l67 -67l67 67
l40 -40l-107 -106l-107 106z" />
    <glyph glyph-name="Gcircumflex" unicode="&#x11c;" horiz-adv-x="767" 
d="M606 222h-87q-19 0 -66 -0.5t-54 -0.5v90q7 0 54 -0.5t66 -0.5h211q2 -22 2 -34q0 -122 -94.5 -209t-227.5 -87q-153 0 -261.5 108.5t-108.5 261.5t108.5 261.5t261.5 108.5q86 0 160.5 -38.5t124.5 -105.5l-70 -61q-37 54 -93.5 85.5t-121.5 31.5q-114 0 -194.5 -82.5
t-80.5 -199.5t80.5 -199.5t194.5 -82.5q70 0 129.5 36t81.5 90q9 23 19 30l-3 4q-9 -6 -31 -6zM404 848l-67 -67l-40 40l107 106l107 -106l-40 -40z" />
    <glyph glyph-name="gcircumflex" unicode="&#x11d;" horiz-adv-x="555" 
d="M390 -40v24q0 32 5 44l-4 2q-44 -42 -125 -42q-94 0 -155 61t-61 170q0 101 63.5 164.5t164.5 63.5q112 0 202 -75v-412q0 -97 -60 -144.5t-167 -47.5q-108 0 -179 54l51 68q52 -42 128 -42q137 0 137 112zM390 134v192q-52 37 -112 37q-61 0 -99.5 -41.5t-38.5 -102.5
q0 -64 35 -105.5t99 -41.5q39 0 69.5 18t46.5 44zM284 583l-67 -67l-40 40l107 106l107 -106l-40 -40z" />
    <glyph glyph-name="Gbreve" unicode="&#x11e;" horiz-adv-x="767" 
d="M606 222h-87q-19 0 -66 -0.5t-54 -0.5v90q7 0 54 -0.5t66 -0.5h211q2 -22 2 -34q0 -122 -94.5 -209t-227.5 -87q-153 0 -261.5 108.5t-108.5 261.5t108.5 261.5t261.5 108.5q86 0 160.5 -38.5t124.5 -105.5l-70 -61q-37 54 -93.5 85.5t-121.5 31.5q-114 0 -194.5 -82.5
t-80.5 -199.5t80.5 -199.5t194.5 -82.5q70 0 129.5 36t81.5 90q9 23 19 30l-3 4q-9 -6 -31 -6zM482 905l60 -16q-13 -46 -49.5 -71.5t-87.5 -25.5t-87.5 25.5t-49.5 71.5l60 16q16 -55 77 -55t77 55z" />
    <glyph glyph-name="gbreve" unicode="&#x11f;" horiz-adv-x="555" 
d="M390 -40v24q0 32 5 44l-4 2q-44 -42 -125 -42q-94 0 -155 61t-61 170q0 101 63.5 164.5t164.5 63.5q112 0 202 -75v-412q0 -97 -60 -144.5t-167 -47.5q-108 0 -179 54l51 68q52 -42 128 -42q137 0 137 112zM390 134v192q-52 37 -112 37q-61 0 -99.5 -41.5t-38.5 -102.5
q0 -64 35 -105.5t99 -41.5q39 0 69.5 18t46.5 44zM354 640l60 -16q-13 -46 -49.5 -71.5t-87.5 -25.5t-87.5 25.5t-49.5 71.5l60 16q16 -55 77 -55t77 55z" />
    <glyph glyph-name="Gdotaccent" unicode="&#x120;" horiz-adv-x="767" 
d="M606 222h-87q-19 0 -66 -0.5t-54 -0.5v90q7 0 54 -0.5t66 -0.5h211q2 -22 2 -34q0 -122 -94.5 -209t-227.5 -87q-153 0 -261.5 108.5t-108.5 261.5t108.5 261.5t261.5 108.5q86 0 160.5 -38.5t124.5 -105.5l-70 -61q-37 54 -93.5 85.5t-121.5 31.5q-114 0 -194.5 -82.5
t-80.5 -199.5t80.5 -199.5t194.5 -82.5q70 0 129.5 36t81.5 90q9 23 19 30l-3 4q-9 -6 -31 -6zM411 893q23 0 38.5 -15.5t15.5 -38.5t-15.5 -38.5t-38.5 -15.5t-38.5 15.5t-15.5 38.5t15.5 38.5t38.5 15.5z" />
    <glyph glyph-name="gdotaccent" unicode="&#x121;" horiz-adv-x="555" 
d="M390 -40v24q0 32 5 44l-4 2q-44 -42 -125 -42q-94 0 -155 61t-61 170q0 101 63.5 164.5t164.5 63.5q112 0 202 -75v-412q0 -97 -60 -144.5t-167 -47.5q-108 0 -179 54l51 68q52 -42 128 -42q137 0 137 112zM390 134v192q-52 37 -112 37q-61 0 -99.5 -41.5t-38.5 -102.5
q0 -64 35 -105.5t99 -41.5q39 0 69.5 18t46.5 44zM281 628q23 0 38.5 -16t15.5 -38t-15.5 -38t-38.5 -16t-38.5 16t-15.5 38t15.5 38t38.5 16z" />
    <glyph glyph-name="Hcircumflex" unicode="&#x124;" horiz-adv-x="624" 
d="M574 580v-460q0 -20 0.5 -66.5t0.5 -53.5h-97q0 7 0.5 53.5t0.5 66.5v215h-334v-215q0 -20 0.5 -66.5t0.5 -53.5h-97q0 7 0.5 53.5t0.5 66.5v460q0 20 -0.5 66t-0.5 54h97q0 -8 -0.5 -54t-0.5 -66v-157h334v157q0 20 -0.5 66t-0.5 54h97q0 -8 -0.5 -54t-0.5 -66zM312 818
l-67 -67l-40 40l107 106l107 -106l-40 -40z" />
    <glyph glyph-name="hcircumflex" unicode="&#x125;" horiz-adv-x="522" 
d="M166 725q0 -7 -0.5 -54t-0.5 -66v-117q0 -62 -11 -92l4 -2q49 53 128 53q76 0 124 -43.5t48 -117.5v-166q0 -20 0.5 -66.5t0.5 -53.5h-92q0 7 0.5 53.5t0.5 66.5v150q0 52 -28 75.5t-70 23.5q-105 0 -105 -127v-122q0 -20 0.5 -66.5t0.5 -53.5h-92q0 7 0.5 53.5t0.5 66.5
v485q0 19 -0.5 66t-0.5 54h92zM254 848l-67 -67l-40 40l107 106l107 -106l-40 -40z" />
    <glyph glyph-name="Itilde" unicode="&#x128;" horiz-adv-x="235" 
d="M69 700h97q0 -8 -0.5 -54t-0.5 -66v-460q0 -20 0.5 -66.5t0.5 -53.5h-97q0 7 0.5 53.5t0.5 66.5v460q0 20 -0.5 66t-0.5 54zM3 759l-62 10q8 45 47.5 73t84.5 23l96 -13q21 -3 39.5 11t22.5 37l62 -10q-8 -45 -47.5 -73t-84.5 -23l-96 13q-21 3 -39.5 -11t-22.5 -37z" />
    <glyph glyph-name="itilde" unicode="&#x129;" horiz-adv-x="250" 
d="M80 120v195q0 19 -0.5 66t-0.5 54h92q0 -7 -0.5 -54t-0.5 -66v-195q0 -20 0.5 -66.5t0.5 -53.5h-92q0 7 0.5 53.5t0.5 66.5zM11 494l-62 10q8 45 47.5 73t84.5 23l96 -13q21 -3 39.5 11t22.5 37l62 -10q-8 -45 -47.5 -73t-84.5 -23l-96 13q-21 3 -39.5 -11t-22.5 -37z
" />
    <glyph glyph-name="Imacron" unicode="&#x12a;" horiz-adv-x="235" 
d="M69 700h97q0 -8 -0.5 -54t-0.5 -66v-460q0 -20 0.5 -66.5t0.5 -53.5h-97q0 7 0.5 53.5t0.5 66.5v460q0 20 -0.5 66t-0.5 54zM2 872q3 0 27 -0.5t33 -0.5h110q10 0 33 0.5t27 0.5v-66q-4 0 -27 0.5t-33 0.5h-110q-9 0 -33 -0.5t-27 -0.5v66z" />
    <glyph glyph-name="imacron" unicode="&#x12b;" horiz-adv-x="250" 
d="M80 120v195q0 19 -0.5 66t-0.5 54h92q0 -7 -0.5 -54t-0.5 -66v-195q0 -20 0.5 -66.5t0.5 -53.5h-92q0 7 0.5 53.5t0.5 66.5zM10 607q3 0 27 -0.5t33 -0.5h110q10 0 33 0.5t27 0.5v-66q-4 0 -27 0.5t-33 0.5h-110q-9 0 -33 -0.5t-27 -0.5v66z" />
    <glyph glyph-name="Ibreve" unicode="&#x12c;" horiz-adv-x="235" 
d="M69 700h97q0 -8 -0.5 -54t-0.5 -66v-460q0 -20 0.5 -66.5t0.5 -53.5h-97q0 7 0.5 53.5t0.5 66.5v460q0 20 -0.5 66t-0.5 54zM194 905l60 -16q-13 -46 -49.5 -71.5t-87.5 -25.5t-87.5 25.5t-49.5 71.5l60 16q16 -55 77 -55t77 55z" />
    <glyph glyph-name="ibreve" unicode="&#x12d;" horiz-adv-x="250" 
d="M80 120v195q0 19 -0.5 66t-0.5 54h92q0 -7 -0.5 -54t-0.5 -66v-195q0 -20 0.5 -66.5t0.5 -53.5h-92q0 7 0.5 53.5t0.5 66.5zM202 640l60 -16q-13 -46 -49.5 -71.5t-87.5 -25.5t-87.5 25.5t-49.5 71.5l60 16q16 -55 77 -55t77 55z" />
    <glyph glyph-name="Iogonek" unicode="&#x12e;" horiz-adv-x="235" 
d="M69 700h97q0 -8 -0.5 -54t-0.5 -66v-460q0 -20 0.5 -66.5t0.5 -53.5h-16q-21 -32 -21 -56q0 -14 8.5 -24t23.5 -10q19 0 46 10l22 -63q-31 -17 -68 -17q-56 0 -82 30.5t-26 73.5q0 29 16 57q0 8 0.5 54t0.5 65v460q0 20 -0.5 66t-0.5 54z" />
    <glyph glyph-name="iogonek" unicode="&#x12f;" horiz-adv-x="250" 
d="M171 435q0 -7 -0.5 -54t-0.5 -66v-195q0 -20 0.5 -66.5t0.5 -53.5h-11q-21 -32 -21 -56q0 -14 8.5 -24t23.5 -10q19 0 46 10l22 -63q-31 -17 -68 -17q-56 0 -82 30.5t-26 73.5q0 29 16 57q0 8 0.5 54t0.5 65v195q0 19 -0.5 66t-0.5 54h92zM170 654v-78q0 -6 -13.5 -11
t-31.5 -5t-31.5 5t-13.5 11v78q0 6 14 11t32 5t31 -5t13 -11z" />
    <glyph glyph-name="Idotaccent" unicode="&#x130;" horiz-adv-x="235" 
d="M69 700h97q0 -8 -0.5 -54t-0.5 -66v-460q0 -20 0.5 -66.5t0.5 -53.5h-97q0 7 0.5 53.5t0.5 66.5v460q0 20 -0.5 66t-0.5 54zM117 893q23 0 38.5 -15.5t15.5 -38.5t-15.5 -38.5t-38.5 -15.5t-38.5 15.5t-15.5 38.5t15.5 38.5t38.5 15.5z" />
    <glyph glyph-name="dotlessi" unicode="&#x131;" horiz-adv-x="250" 
d="M80 120v195q0 19 -0.5 66t-0.5 54h92q0 -7 -0.5 -54t-0.5 -66v-195q0 -20 0.5 -66.5t0.5 -53.5h-92q0 7 0.5 53.5t0.5 66.5z" />
    <glyph glyph-name="Jcircumflex" unicode="&#x134;" horiz-adv-x="375" 
d="M8 11l40 75q28 -22 65 -22q40 0 68.5 30.5t28.5 73.5v412q0 20 -0.5 66t-0.5 54h97q0 -8 -0.5 -54t-0.5 -66v-408q0 -80 -56.5 -136t-135.5 -56q-59 0 -105 31zM189 848l-67 -67l-40 40l107 106l107 -106l-40 -40z" />
    <glyph glyph-name="jcircumflex" unicode="&#x135;" horiz-adv-x="250" 
d="M125 583l-67 -67l-40 40l107 106l107 -106l-40 -40zM-12 -232v88q40 0 66 27.5t26 74.5v357q0 19 -0.5 66t-0.5 54h92q0 -7 -0.5 -54t-0.5 -66v-357q0 -88 -51.5 -139t-130.5 -51z" />
    <glyph glyph-name="kgreenlandic" unicode="&#x138;" horiz-adv-x="480" 
d="M445 435l-112 -109l-78 -77l106 -129l99 -120h-115l-52 66l-102 128l-26 -19v-55q0 -20 0.5 -66.5t0.5 -53.5h-92q0 7 0.5 53.5t0.5 66.5v195q0 19 -0.5 66t-0.5 54h92q0 -10 -0.5 -32t-0.5 -29q0 -97 -6 -110l4 -2q11 18 72 79l36 36q1 1 55 58h119z" />
    <glyph glyph-name="Lacute" unicode="&#x139;" horiz-adv-x="381" 
d="M50 0v580q0 20 -0.5 66t-0.5 54h97q0 -8 -0.5 -54t-0.5 -66v-492h96q19 0 66 0.5t54 0.5v-90q-7 0 -54 0.5t-66 0.5h-191zM116 758l-41 32l120 151l81 -45z" />
    <glyph glyph-name="lacute" unicode="&#x13a;" horiz-adv-x="250" 
d="M79 795h92q0 -7 -0.5 -54t-0.5 -66v-555q0 -20 0.5 -66.5t0.5 -53.5h-92q0 7 0.5 53.5t0.5 66.5v555q0 19 -0.5 66t-0.5 54zM78 813l-41 32l120 151l81 -45z" />
    <glyph glyph-name="Lcaron" unicode="&#x13d;" horiz-adv-x="450" 
d="M50 0v580q0 20 -0.5 66t-0.5 54h97q0 -8 -0.5 -54t-0.5 -66v-492h96q19 0 66 0.5t54 0.5v-90q-7 0 -54 0.5t-66 0.5h-191zM326 709v86h86v-109q0 -35 -28 -69l-22 -25l-34 30l22 25q16 20 16 39v23h-40z" />
    <glyph glyph-name="lcaron" unicode="&#x13e;" horiz-adv-x="320" 
d="M56 795h92q0 -7 -0.5 -54t-0.5 -66v-555q0 -20 0.5 -66.5t0.5 -53.5h-92q0 7 0.5 53.5t0.5 66.5v555q0 19 -0.5 66t-0.5 54zM212 709v86h86v-109q0 -35 -28 -69l-22 -25l-34 30l22 25q16 20 16 39v23h-40z" />
    <glyph glyph-name="Lslash" unicode="&#x141;" horiz-adv-x="431" 
d="M100 0v264l-40 -41l-61 61l86 84l15 15v197q0 20 -0.5 66t-0.5 54h97q0 -8 -0.5 -54t-0.5 -66v-102l29 29l34.5 35l20.5 21l61 -61l-86 -84l-59 -59v-271h96q19 0 66 0.5t54 0.5v-90q-7 0 -54 0.5t-66 0.5h-191z" />
    <glyph glyph-name="lslash" unicode="&#x142;" horiz-adv-x="320" 
d="M206 795q0 -7 -0.5 -54t-0.5 -66v-169q45 46 65 65l60 -60l-85 -85l-40 -40v-266q0 -20 0.5 -66.5t0.5 -53.5h-92q0 7 0.5 53.5t0.5 66.5v175q-54 -54 -65 -64l-60 60l85 85l40 40v259q0 19 -0.5 66t-0.5 54h92z" />
    <glyph glyph-name="Nacute" unicode="&#x143;" horiz-adv-x="721" 
d="M671 -28l-450 455q-63 65 -80 89l-3 -2q7 -35 7 -74v-320q0 -20 0.5 -66.5t0.5 -53.5h-97q0 7 0.5 53.5t0.5 66.5v608l450 -455q63 -65 80 -89l3 2q-7 35 -7 74v320q0 20 -0.5 66t-0.5 54h97q0 -8 -0.5 -54t-0.5 -66v-608zM320 758l-41 32l120 151l81 -45z" />
    <glyph glyph-name="nacute" unicode="&#x144;" horiz-adv-x="526" 
d="M164 435q-2 -48 -5 -57l4 -2q13 30 48.5 50.5t82.5 20.5q77 0 119.5 -44.5t42.5 -123.5v-159q0 -20 0.5 -66.5t0.5 -53.5h-92q0 7 0.5 53.5t0.5 66.5v140q0 57 -25.5 84t-66.5 27q-46 0 -77.5 -31.5t-31.5 -85.5v-134q0 -20 0.5 -66.5t0.5 -53.5h-92q0 7 0.5 53.5
t0.5 66.5v195q0 19 -0.5 66t-0.5 54h90zM233 523l-41 32l120 151l81 -45z" />
    <glyph glyph-name="Ncaron" unicode="&#x147;" horiz-adv-x="721" 
d="M671 -28l-450 455q-63 65 -80 89l-3 -2q7 -35 7 -74v-320q0 -20 0.5 -66.5t0.5 -53.5h-97q0 7 0.5 53.5t0.5 66.5v608l450 -455q63 -65 80 -89l3 2q-7 35 -7 74v320q0 20 -0.5 66t-0.5 54h97q0 -8 -0.5 -54t-0.5 -66v-608zM295 908l67 -67l67 67l40 -40l-107 -106
l-107 106z" />
    <glyph glyph-name="ncaron" unicode="&#x148;" horiz-adv-x="526" 
d="M164 435q-2 -48 -5 -57l4 -2q13 30 48.5 50.5t82.5 20.5q77 0 119.5 -44.5t42.5 -123.5v-159q0 -20 0.5 -66.5t0.5 -53.5h-92q0 7 0.5 53.5t0.5 66.5v140q0 57 -25.5 84t-66.5 27q-46 0 -77.5 -31.5t-31.5 -85.5v-134q0 -20 0.5 -66.5t0.5 -53.5h-92q0 7 0.5 53.5
t0.5 66.5v195q0 19 -0.5 66t-0.5 54h90zM194 643l67 -67l67 67l40 -40l-107 -106l-107 106z" />
    <glyph glyph-name="Eng" unicode="&#x14a;" horiz-adv-x="725" 
d="M378 -201l40 75q28 -22 65 -22q40 0 68.5 30.5t28.5 73.5v104l-359 372q-38 39 -80 89l-3 -2q7 -35 7 -74v-325q0 -20 0.5 -66.5t0.5 -53.5h-97q0 7 0.5 53.5t0.5 66.5v622l454 -464q38 -39 80 -89l3 2q-7 35 -7 74v315q0 20 -0.5 66t-0.5 54h97q0 -8 -0.5 -54t-0.5 -66
v-620q0 -80 -56.5 -136t-135.5 -56q-59 0 -105 31z" />
    <glyph glyph-name="eng" unicode="&#x14b;" horiz-adv-x="526" 
d="M159 378l4 -2q13 30 48.5 50.5t82.5 20.5q77 0 119.5 -44.5t42.5 -123.5v-321q0 -88 -51.5 -139t-130.5 -51v88q40 0 66 27.5t26 74.5v302q0 57 -25.5 84t-66.5 27q-46 0 -77.5 -31.5t-31.5 -85.5v-134q0 -20 0.5 -66.5t0.5 -53.5h-92q0 7 0.5 53.5t0.5 66.5v195
q0 19 -0.5 66t-0.5 54h90q-2 -48 -5 -57z" />
    <glyph glyph-name="Omacron" unicode="&#x14c;" horiz-adv-x="820" 
d="M410 720q153 0 261.5 -108.5t108.5 -261.5t-108.5 -261.5t-261.5 -108.5t-261.5 108.5t-108.5 261.5t108.5 261.5t261.5 108.5zM410 632q-114 0 -194.5 -82.5t-80.5 -199.5t80.5 -199.5t194.5 -82.5t194.5 82.5t80.5 199.5t-80.5 199.5t-194.5 82.5zM295 872q3 0 27 -0.5
t33 -0.5h110q9 0 33 0.5t27 0.5v-66q-3 0 -27 0.5t-33 0.5h-110q-9 0 -33 -0.5t-27 -0.5v66z" />
    <glyph glyph-name="omacron" unicode="&#x14d;" horiz-adv-x="539" 
d="M269 363q-58 0 -98.5 -42.5t-40.5 -103.5q0 -60 40.5 -102.5t98.5 -42.5t99 42.5t41 102.5q0 61 -41 103.5t-99 42.5zM269 447q95 0 162.5 -67.5t67.5 -162.5t-67.5 -162t-162.5 -67t-162 67t-67 162t67 162.5t162 67.5zM154 607q4 0 27 -0.5t33 -0.5h110q10 0 33.5 0.5
t26.5 0.5v-66q-3 0 -26.5 0.5t-33.5 0.5h-110q-10 0 -33 -0.5t-27 -0.5v66z" />
    <glyph glyph-name="Obreve" unicode="&#x14e;" horiz-adv-x="820" 
d="M410 720q153 0 261.5 -108.5t108.5 -261.5t-108.5 -261.5t-261.5 -108.5t-261.5 108.5t-108.5 261.5t108.5 261.5t261.5 108.5zM410 632q-114 0 -194.5 -82.5t-80.5 -199.5t80.5 -199.5t194.5 -82.5t194.5 82.5t80.5 199.5t-80.5 199.5t-194.5 82.5zM487 905l60 -16
q-13 -46 -49.5 -71.5t-87.5 -25.5t-87.5 25.5t-49.5 71.5l60 16q16 -55 77 -55t77 55z" />
    <glyph glyph-name="obreve" unicode="&#x14f;" horiz-adv-x="539" 
d="M269 363q-58 0 -98.5 -42.5t-40.5 -103.5q0 -60 40.5 -102.5t98.5 -42.5t99 42.5t41 102.5q0 61 -41 103.5t-99 42.5zM269 447q95 0 162.5 -67.5t67.5 -162.5t-67.5 -162t-162.5 -67t-162 67t-67 162t67 162.5t162 67.5zM346 640l60 -16q-13 -46 -49.5 -71.5t-87.5 -25.5
t-87.5 25.5t-49.5 71.5l60 16q16 -55 77 -55t77 55z" />
    <glyph glyph-name="Ohungarumlaut" unicode="&#x150;" horiz-adv-x="820" 
d="M410 720q153 0 261.5 -108.5t108.5 -261.5t-108.5 -261.5t-261.5 -108.5t-261.5 108.5t-108.5 261.5t108.5 261.5t261.5 108.5zM410 632q-114 0 -194.5 -82.5t-80.5 -199.5t80.5 -199.5t194.5 -82.5t194.5 82.5t80.5 199.5t-80.5 199.5t-194.5 82.5zM353 758l-36 30
l99 121l47 -38zM479 758l-36 30l99 121l47 -38z" />
    <glyph glyph-name="ohungarumlaut" unicode="&#x151;" horiz-adv-x="539" 
d="M269 363q-58 0 -98.5 -42.5t-40.5 -103.5q0 -60 40.5 -102.5t98.5 -42.5t99 42.5t41 102.5q0 61 -41 103.5t-99 42.5zM269 447q95 0 162.5 -67.5t67.5 -162.5t-67.5 -162t-162.5 -67t-162 67t-67 162t67 162.5t162 67.5zM203 523l-36 30l99 121l47 -38zM329 523l-36 30
l99 121l47 -38z" />
    <glyph glyph-name="OE" unicode="&#x152;" horiz-adv-x="1102" 
d="M685 0v103q-52 -58 -123.5 -90.5t-151.5 -32.5q-153 0 -261.5 108.5t-108.5 261.5t108.5 261.5t261.5 108.5q163 0 275 -123v103h232q20 0 66.5 0.5t53.5 0.5v-90q-7 0 -53.5 0.5t-66.5 0.5h-137v-184h84q20 0 66 0.5t54 0.5v-90q-8 0 -54 0.5t-66 0.5h-84v-252h157
q19 0 66 0.5t54 0.5v-90q-7 0 -54 0.5t-66 0.5h-252zM410 632q-114 0 -194.5 -82.5t-80.5 -199.5t80.5 -199.5t194.5 -82.5t194.5 82.5t80.5 199.5t-80.5 199.5t-194.5 82.5z" />
    <glyph glyph-name="oe" unicode="&#x153;" horiz-adv-x="877" 
d="M829 204h-329q7 -61 42 -97.5t95 -36.5q78 0 128 65l62 -59q-79 -88 -190 -88q-125 0 -186 89q-32 -41 -79.5 -65t-102.5 -24q-95 0 -162 67t-67 162t67 162.5t162 67.5q111 0 180 -87q61 87 172 87q99 0 154 -67t55 -156q0 -13 -1 -20zM621 369q-43 0 -73.5 -23.5
t-42.5 -65.5h230q-5 34 -36 61.5t-78 27.5zM269 363q-58 0 -98.5 -42.5t-40.5 -103.5q0 -60 40.5 -102.5t98.5 -42.5t99 42.5t41 102.5q0 61 -41 103.5t-99 42.5z" />
    <glyph glyph-name="Racute" unicode="&#x154;" horiz-adv-x="492" 
d="M187 758l-41 32l120 151l81 -45zM372 0q-1 2 -15.5 35.5t-24.5 53.5l-105 223h-82v-192q0 -20 0.5 -66.5t0.5 -53.5h-97q0 7 0.5 53.5t0.5 66.5v580h208q86 0 140 -56t54 -138q0 -66 -36.5 -117t-95.5 -65l-1 -2q8 -8 17 -27l88 -187l52 -108h-104zM246 618h-101v-222
h101q52 0 81.5 31.5t29.5 79.5t-29.5 79.5t-81.5 31.5z" />
    <glyph glyph-name="racute" unicode="&#x155;" horiz-adv-x="365" 
d="M137 523l-41 32l120 151l81 -45zM348 419l-50 -77q-18 18 -44 18q-38 0 -63.5 -30.5t-25.5 -69.5v-140q0 -20 0.5 -66.5t0.5 -53.5h-92q0 7 0.5 53.5t0.5 66.5v195q0 19 -0.5 66t-0.5 54h89q0 -43 -3 -56l5 -2q10 24 41 45.5t68 21.5q23 0 44.5 -7.5t29.5 -17.5z" />
    <glyph glyph-name="Rcaron" unicode="&#x158;" horiz-adv-x="492" 
d="M157 908l67 -67l67 67l40 -40l-107 -106l-107 106zM372 0q-1 2 -15.5 35.5t-24.5 53.5l-105 223h-82v-192q0 -20 0.5 -66.5t0.5 -53.5h-97q0 7 0.5 53.5t0.5 66.5v580h208q86 0 140 -56t54 -138q0 -66 -36.5 -117t-95.5 -65l-1 -2q8 -8 17 -27l88 -187l52 -108h-104z
M246 618h-101v-222h101q52 0 81.5 31.5t29.5 79.5t-29.5 79.5t-81.5 31.5z" />
    <glyph glyph-name="rcaron" unicode="&#x159;" horiz-adv-x="365" 
d="M135 643l67 -67l67 67l40 -40l-107 -106l-107 106zM348 419l-50 -77q-18 18 -44 18q-38 0 -63.5 -30.5t-25.5 -69.5v-140q0 -20 0.5 -66.5t0.5 -53.5h-92q0 7 0.5 53.5t0.5 66.5v195q0 19 -0.5 66t-0.5 54h89q0 -43 -3 -56l5 -2q10 24 41 45.5t68 21.5q23 0 44.5 -7.5
t29.5 -17.5z" />
    <glyph glyph-name="Sacute" unicode="&#x15a;" horiz-adv-x="474" 
d="M12 120l81 44q52 -90 137 -90q53 0 84 28t31 70q0 26 -9.5 48.5t-30 43.5t-37.5 35t-47 35q-42 30 -60.5 44.5t-48 43t-42 59.5t-12.5 67q0 72 49.5 118t128.5 46q107 0 189 -99l-73 -55q-51 70 -116 70q-40 0 -62 -22t-22 -54q0 -27 18 -52.5t34.5 -38.5t58.5 -42
q9 -7 14 -10q37 -26 59.5 -44t50 -47.5t40.5 -63.5t13 -74q0 -86 -57 -139t-153 -53q-77 0 -132 38t-86 94zM226 758l-41 32l120 151l81 -45z" />
    <glyph glyph-name="sacute" unicode="&#x15b;" horiz-adv-x="394" 
d="M317 395l-48 -59q-37 37 -75 37q-20 0 -32 -9.5t-12 -25.5q0 -9 4 -16.5t13.5 -15l15.5 -12t21.5 -13.5t19.5 -11q30 -19 43 -28t34.5 -29t30 -42.5t8.5 -51.5q0 -54 -41 -92.5t-111 -38.5q-85 0 -168 70l57 65q61 -53 111 -53q26 0 44 14.5t18 34.5q0 11 -5.5 21.5
t-18.5 21t-22 17t-28 17.5q-27 17 -42 27.5t-34 28t-27.5 39t-8.5 47.5q0 44 36 76.5t94 32.5q65 0 123 -52zM163 523l-41 32l120 151l81 -45z" />
    <glyph glyph-name="Scircumflex" unicode="&#x15c;" horiz-adv-x="474" 
d="M12 120l81 44q52 -90 137 -90q53 0 84 28t31 70q0 26 -9.5 48.5t-30 43.5t-37.5 35t-47 35q-42 30 -60.5 44.5t-48 43t-42 59.5t-12.5 67q0 72 49.5 118t128.5 46q107 0 189 -99l-73 -55q-51 70 -116 70q-40 0 -62 -22t-22 -54q0 -27 18 -52.5t34.5 -38.5t58.5 -42
q9 -7 14 -10q37 -26 59.5 -44t50 -47.5t40.5 -63.5t13 -74q0 -86 -57 -139t-153 -53q-77 0 -132 38t-86 94zM238 848l-67 -67l-40 40l107 106l107 -106l-40 -40z" />
    <glyph glyph-name="scircumflex" unicode="&#x15d;" horiz-adv-x="394" 
d="M317 395l-48 -59q-37 37 -75 37q-20 0 -32 -9.5t-12 -25.5q0 -9 4 -16.5t13.5 -15l15.5 -12t21.5 -13.5t19.5 -11q30 -19 43 -28t34.5 -29t30 -42.5t8.5 -51.5q0 -54 -41 -92.5t-111 -38.5q-85 0 -168 70l57 65q61 -53 111 -53q26 0 44 14.5t18 34.5q0 11 -5.5 21.5
t-18.5 21t-22 17t-28 17.5q-27 17 -42 27.5t-34 28t-27.5 39t-8.5 47.5q0 44 36 76.5t94 32.5q65 0 123 -52zM194 583l-67 -67l-40 40l107 106l107 -106l-40 -40z" />
    <glyph glyph-name="Scedilla" unicode="&#x15e;" horiz-adv-x="474" 
d="M12 120l81 44q52 -90 137 -90q53 0 84 28t31 70q0 26 -9.5 48.5t-30 43.5t-37.5 35t-47 35q-42 30 -60.5 44.5t-48 43t-42 59.5t-12.5 67q0 72 49.5 118t128.5 46q107 0 189 -99l-73 -55q-51 70 -116 70q-40 0 -62 -22t-22 -54q0 -27 18 -52.5t34.5 -38.5t58.5 -42
q9 -7 14 -10q37 -26 59.5 -44t50 -47.5t40.5 -63.5t13 -74q0 -86 -57 -139t-153 -53q-77 0 -132 38t-86 94zM223 -37l-76 -113l51 -37l91 100z" />
    <glyph glyph-name="scedilla" unicode="&#x15f;" horiz-adv-x="394" 
d="M317 395l-48 -59q-37 37 -75 37q-20 0 -32 -9.5t-12 -25.5q0 -9 4 -16.5t13.5 -15l15.5 -12t21.5 -13.5t19.5 -11q30 -19 43 -28t34.5 -29t30 -42.5t8.5 -51.5q0 -54 -41 -92.5t-111 -38.5q-85 0 -168 70l57 65q61 -53 111 -53q26 0 44 14.5t18 34.5q0 11 -5.5 21.5
t-18.5 21t-22 17t-28 17.5q-27 17 -42 27.5t-34 28t-27.5 39t-8.5 47.5q0 44 36 76.5t94 32.5q65 0 123 -52zM187 -37l-76 -113l51 -37l91 100z" />
    <glyph glyph-name="Scaron" unicode="&#x160;" horiz-adv-x="474" 
d="M12 120l81 44q52 -90 137 -90q53 0 84 28t31 70q0 26 -9.5 48.5t-30 43.5t-37.5 35t-47 35q-42 30 -60.5 44.5t-48 43t-42 59.5t-12.5 67q0 72 49.5 118t128.5 46q107 0 189 -99l-73 -55q-51 70 -116 70q-40 0 -62 -22t-22 -54q0 -27 18 -52.5t34.5 -38.5t58.5 -42
q9 -7 14 -10q37 -26 59.5 -44t50 -47.5t40.5 -63.5t13 -74q0 -86 -57 -139t-153 -53q-77 0 -132 38t-86 94zM173 908l67 -67l67 67l40 -40l-107 -106l-107 106z" />
    <glyph glyph-name="scaron" unicode="&#x161;" horiz-adv-x="394" 
d="M317 395l-48 -59q-37 37 -75 37q-20 0 -32 -9.5t-12 -25.5q0 -9 4 -16.5t13.5 -15l15.5 -12t21.5 -13.5t19.5 -11q30 -19 43 -28t34.5 -29t30 -42.5t8.5 -51.5q0 -54 -41 -92.5t-111 -38.5q-85 0 -168 70l57 65q61 -53 111 -53q26 0 44 14.5t18 34.5q0 11 -5.5 21.5
t-18.5 21t-22 17t-28 17.5q-27 17 -42 27.5t-34 28t-27.5 39t-8.5 47.5q0 44 36 76.5t94 32.5q65 0 123 -52zM127 643l67 -67l67 67l40 -40l-107 -106l-107 106z" />
    <glyph glyph-name="Tcommaaccent" unicode="&#x162;" horiz-adv-x="445" 
d="M431 701v-90q-7 0 -54 0.5t-66 0.5h-41v-492q0 -20 0.5 -66.5t0.5 -53.5h-97q0 7 0.5 53.5t0.5 66.5v492h-41q-20 0 -66 -0.5t-54 -0.5v90q8 0 54 -0.5t66 -0.5h177q19 0 66 0.5t54 0.5zM203 -37l-76 -113l51 -37l91 100z" />
    <glyph glyph-name="tcommaaccent" unicode="&#x163;" horiz-adv-x="273" 
d="M166 585q0 -7 -0.5 -54t-0.5 -66v-30q17 0 41.5 0.5t28.5 0.5v-90q-6 0 -35 0.5t-35 0.5v-227q0 -20 0.5 -66.5t0.5 -53.5h-92q0 7 0.5 53.5t0.5 66.5v345q0 19 -0.5 66t-0.5 54h92zM117 -37l-76 -113l51 -37l91 100z" />
    <glyph glyph-name="Tcaron" unicode="&#x164;" horiz-adv-x="445" 
d="M431 701v-90q-7 0 -54 0.5t-66 0.5h-41v-492q0 -20 0.5 -66.5t0.5 -53.5h-97q0 7 0.5 53.5t0.5 66.5v492h-41q-20 0 -66 -0.5t-54 -0.5v90q8 0 54 -0.5t66 -0.5h177q19 0 66 0.5t54 0.5zM155 908l67 -67l67 67l40 -40l-107 -106l-107 106z" />
    <glyph glyph-name="tcaron" unicode="&#x165;" horiz-adv-x="350" 
d="M166 585q0 -7 -0.5 -54t-0.5 -66v-30q17 0 41.5 0.5t28.5 0.5v-90q-6 0 -35 0.5t-35 0.5v-227q0 -20 0.5 -66.5t0.5 -53.5h-92q0 7 0.5 53.5t0.5 66.5v345q0 19 -0.5 66t-0.5 54h92zM250 709v86h86v-109q0 -35 -28 -69l-22 -25l-34 30l22 25q16 20 16 39v23h-40z" />
    <glyph glyph-name="Utilde" unicode="&#x168;" horiz-adv-x="620" 
d="M146 700q0 -8 -0.5 -54t-0.5 -66v-340q0 -88 36 -125q48 -51 147 -51q103 0 147 40v476q0 20 -0.5 66t-0.5 54h97q0 -8 -0.5 -54t-0.5 -66v-514q-26 -36 -88.5 -61t-153.5 -25q-149 0 -220 75q-58 61 -58 165v360q0 20 -0.5 66t-0.5 54h97zM196 759l-62 10q8 45 47.5 73
t84.5 23l96 -13q21 -3 39.5 11t22.5 37l62 -10q-8 -45 -47.5 -73t-84.5 -23l-96 13q-21 3 -39.5 -11t-22.5 -37z" />
    <glyph glyph-name="utilde" unicode="&#x169;" horiz-adv-x="510" 
d="M451 435q0 -7 -0.5 -54t-0.5 -66v-274q-25 -22 -74.5 -37.5t-109.5 -15.5q-105 0 -155.5 46t-50.5 123v158q0 19 -0.5 66t-0.5 54h92q0 -7 -0.5 -54t-0.5 -66v-143q0 -104 116 -104q50 0 94 20v227q0 19 -0.5 66t-0.5 54h92zM141 494l-62 10q8 45 47.5 73t84.5 23l96 -13
q21 -3 39.5 11t22.5 37l62 -10q-8 -45 -47.5 -73t-84.5 -23l-96 13q-21 3 -39.5 -11t-22.5 -37z" />
    <glyph glyph-name="Umacron" unicode="&#x16a;" horiz-adv-x="620" 
d="M146 700q0 -8 -0.5 -54t-0.5 -66v-340q0 -88 36 -125q48 -51 147 -51q103 0 147 40v476q0 20 -0.5 66t-0.5 54h97q0 -8 -0.5 -54t-0.5 -66v-514q-26 -36 -88.5 -61t-153.5 -25q-149 0 -220 75q-58 61 -58 165v360q0 20 -0.5 66t-0.5 54h97zM195 872q3 0 27 -0.5t33 -0.5
h110q10 0 33.5 0.5t26.5 0.5v-66q-3 0 -26.5 0.5t-33.5 0.5h-110q-9 0 -33 -0.5t-27 -0.5v66z" />
    <glyph glyph-name="umacron" unicode="&#x16b;" horiz-adv-x="510" 
d="M451 435q0 -7 -0.5 -54t-0.5 -66v-274q-25 -22 -74.5 -37.5t-109.5 -15.5q-105 0 -155.5 46t-50.5 123v158q0 19 -0.5 66t-0.5 54h92q0 -7 -0.5 -54t-0.5 -66v-143q0 -104 116 -104q50 0 94 20v227q0 19 -0.5 66t-0.5 54h92zM140 607q4 0 27 -0.5t33 -0.5h110
q10 0 33 0.5t27 0.5v-66q-4 0 -27 0.5t-33 0.5h-110q-10 0 -33 -0.5t-27 -0.5v66z" />
    <glyph glyph-name="Ubreve" unicode="&#x16c;" horiz-adv-x="620" 
d="M146 700q0 -8 -0.5 -54t-0.5 -66v-340q0 -88 36 -125q48 -51 147 -51q103 0 147 40v476q0 20 -0.5 66t-0.5 54h97q0 -8 -0.5 -54t-0.5 -66v-514q-26 -36 -88.5 -61t-153.5 -25q-149 0 -220 75q-58 61 -58 165v360q0 20 -0.5 66t-0.5 54h97zM382 905l60 -16
q-13 -46 -49.5 -71.5t-87.5 -25.5t-87.5 25.5t-49.5 71.5l60 16q16 -55 77 -55t77 55z" />
    <glyph glyph-name="ubreve" unicode="&#x16d;" horiz-adv-x="510" 
d="M451 435q0 -7 -0.5 -54t-0.5 -66v-274q-25 -22 -74.5 -37.5t-109.5 -15.5q-105 0 -155.5 46t-50.5 123v158q0 19 -0.5 66t-0.5 54h92q0 -7 -0.5 -54t-0.5 -66v-143q0 -104 116 -104q50 0 94 20v227q0 19 -0.5 66t-0.5 54h92zM334 640l60 -16q-13 -46 -49.5 -71.5
t-87.5 -25.5t-87.5 25.5t-49.5 71.5l60 16q16 -55 77 -55t77 55z" />
    <glyph glyph-name="Uring" unicode="&#x16e;" horiz-adv-x="620" 
d="M146 700q0 -8 -0.5 -54t-0.5 -66v-340q0 -88 36 -125q48 -51 147 -51q103 0 147 40v476q0 20 -0.5 66t-0.5 54h97q0 -8 -0.5 -54t-0.5 -66v-514q-26 -36 -88.5 -61t-153.5 -25q-149 0 -220 75q-58 61 -58 165v360q0 20 -0.5 66t-0.5 54h97zM310 965q43 0 73.5 -29.5
t30.5 -70.5t-30.5 -70.5t-73.5 -29.5t-73.5 29.5t-30.5 70.5t30.5 70.5t73.5 29.5zM310 909q-18 0 -31 -13t-13 -31t13 -31t31 -13t31 13t13 31t-13 31t-31 13z" />
    <glyph glyph-name="uring" unicode="&#x16f;" horiz-adv-x="510" 
d="M451 435q0 -7 -0.5 -54t-0.5 -66v-274q-25 -22 -74.5 -37.5t-109.5 -15.5q-105 0 -155.5 46t-50.5 123v158q0 19 -0.5 66t-0.5 54h92q0 -7 -0.5 -54t-0.5 -66v-143q0 -104 116 -104q50 0 94 20v227q0 19 -0.5 66t-0.5 54h92zM255 700q43 0 73.5 -29.5t30.5 -70.5
t-30.5 -70.5t-73.5 -29.5t-73.5 29.5t-30.5 70.5t30.5 70.5t73.5 29.5zM255 644q-18 0 -31 -13t-13 -31t13 -31t31 -13t31 13t13 31t-13 31t-31 13z" />
    <glyph glyph-name="Uhungarumlaut" unicode="&#x170;" horiz-adv-x="620" 
d="M146 700q0 -8 -0.5 -54t-0.5 -66v-340q0 -88 36 -125q48 -51 147 -51q103 0 147 40v476q0 20 -0.5 66t-0.5 54h97q0 -8 -0.5 -54t-0.5 -66v-514q-26 -36 -88.5 -61t-153.5 -25q-149 0 -220 75q-58 61 -58 165v360q0 20 -0.5 66t-0.5 54h97zM233 758l-36 30l99 121l47 -38
zM359 758l-36 30l99 121l47 -38z" />
    <glyph glyph-name="uhungarumlaut" unicode="&#x171;" horiz-adv-x="510" 
d="M451 435q0 -7 -0.5 -54t-0.5 -66v-274q-25 -22 -74.5 -37.5t-109.5 -15.5q-105 0 -155.5 46t-50.5 123v158q0 19 -0.5 66t-0.5 54h92q0 -7 -0.5 -54t-0.5 -66v-143q0 -104 116 -104q50 0 94 20v227q0 19 -0.5 66t-0.5 54h92zM183 523l-36 30l99 121l47 -38zM309 523
l-36 30l99 121l47 -38z" />
    <glyph glyph-name="Uogonek" unicode="&#x172;" horiz-adv-x="620" 
d="M146 700q0 -8 -0.5 -54t-0.5 -66v-340q0 -88 36 -125q48 -51 147 -51q103 0 147 40v476q0 20 -0.5 66t-0.5 54h97q0 -8 -0.5 -54t-0.5 -66v-514q-33 -44 -103 -66q-21 -32 -21 -56q0 -14 8.5 -24t23.5 -10q19 0 46 10l22 -63q-31 -17 -68 -17q-56 0 -82 30.5t-26 73.5
q0 18 7 39q-23 -3 -49 -3q-149 0 -220 75q-58 61 -58 165v360q0 20 -0.5 66t-0.5 54h97z" />
    <glyph glyph-name="uogonek" unicode="&#x173;" horiz-adv-x="510" 
d="M451 435q0 -7 -0.5 -54t-0.5 -66v-272q-32 -29 -87 -43q-21 -32 -21 -56q0 -14 8.5 -24t23.5 -10q19 0 46 10l22 -63q-31 -17 -68 -17q-56 0 -82 30.5t-26 73.5q0 22 10 44h-6q-117 0 -171 57q-39 40 -39 106v164q0 19 -0.5 66t-0.5 54h92q0 -7 -0.5 -54t-0.5 -66v-152
q0 -42 29.5 -68.5t86.5 -26.5q50 0 94 20v227q0 19 -0.5 66t-0.5 54h92z" />
    <glyph glyph-name="Wcircumflex" unicode="&#x174;" horiz-adv-x="1000" 
d="M499 496q-2 -27 -30 -100l-162 -426l-244 602q-7 18 -28.5 69t-24.5 59h102l18.5 -47l19.5 -49l126 -312q23 -58 27 -100h4q3 35 28 100l165 428l163 -428q28 -72 30 -100h4q3 32 30 100l127 312l19.5 49l18.5 47h98q-3 -8 -24.5 -59t-28.5 -69l-244 -602l-162 426
q-28 73 -30 100h-2zM500 848l-67 -67l-40 40l107 106l107 -106l-40 -40z" />
    <glyph glyph-name="wcircumflex" unicode="&#x175;" 
d="M361 279h-4q0 -18 -34 -100l-87 -209l-165 339l-63 126h96q8 -19 43 -91l46 -96q32 -68 35 -100h4q2 21 34 100l90 216l97 -221q34 -82 36 -100h4q3 32 36 102l48 99l43 91h96l-63 -126l-163 -334l-92 204q-35 75 -37 100zM358 583l-67 -67l-40 40l107 106l107 -106
l-40 -40z" />
    <glyph glyph-name="Ycircumflex" unicode="&#x176;" horiz-adv-x="596" 
d="M255 0q0 7 0.5 53.5t0.5 66.5v184l-159 271l-39 63.5t-37 61.5h108l44 -77l94 -160q32 -55 32 -69h4q0 9 33 69l91 161l42 76h106l-71 -123l-153 -270v-187q0 -20 0.5 -66.5t0.5 -53.5h-97zM300 848l-67 -67l-40 40l107 106l107 -106l-40 -40z" />
    <glyph glyph-name="ycircumflex" unicode="&#x177;" horiz-adv-x="500" 
d="M494 435l-67 -130l-218 -438l-43 -87h-96q16 34 64 127l82 164l-136 236l-38 65.5l-36 62.5h101l11.5 -20.5l18 -32l16.5 -29.5l65 -115q38 -66 40 -91h4q2 24 37 91l54 108q9 17 24 49t19 40h98zM248 583l-67 -67l-40 40l107 106l107 -106l-40 -40z" />
    <glyph glyph-name="Ydieresis" unicode="&#x178;" horiz-adv-x="596" 
d="M255 0q0 7 0.5 53.5t0.5 66.5v184l-159 271l-39 63.5t-37 61.5h108l44 -77l94 -160q32 -55 32 -69h4q0 9 33 69l91 161l42 76h106l-71 -123l-153 -270v-187q0 -20 0.5 -66.5t0.5 -53.5h-97zM212 893q22 0 38 -15.5t16 -38.5t-16 -38.5t-38 -15.5t-38 15.5t-16 38.5
t16 38.5t38 15.5zM390 893q22 0 38 -15.5t16 -38.5t-16 -38.5t-38 -15.5t-38 15.5t-16 38.5t16 38.5t38 15.5z" />
    <glyph glyph-name="Zacute" unicode="&#x179;" horiz-adv-x="550" 
d="M262 78h131q19 0 66 0.5t54 0.5v-80q-7 0 -54 0.5t-66 0.5h-373l310 539q44 76 63 85l-2 4q-14 -6 -107 -6h-88q-20 0 -66 -0.5t-54 -0.5v80q8 0 54 -0.5t66 -0.5h330l-309 -539q-17 -29 -37 -55.5t-27 -29.5l2 -4q13 6 107 6zM248 758l-41 32l120 151l81 -45z" />
    <glyph glyph-name="zacute" unicode="&#x17a;" horiz-adv-x="483" 
d="M238 74h91q19 0 65.5 0.5t54.5 0.5v-76q-8 0 -54.5 0.5t-65.5 0.5h-314l254 316q29 36 53 48l-1 4q-15 -5 -77 -5h-61q-19 0 -66 -0.5t-54 -0.5v74q7 0 54 -0.5t66 -0.5h285l-255 -314q-31 -39 -53 -48l1 -4q15 5 77 5zM226 523l-41 32l120 151l81 -45z" />
    <glyph glyph-name="Zdotaccent" unicode="&#x17b;" horiz-adv-x="550" 
d="M262 78h131q19 0 66 0.5t54 0.5v-80q-7 0 -54 0.5t-66 0.5h-373l310 539q44 76 63 85l-2 4q-14 -6 -107 -6h-88q-20 0 -66 -0.5t-54 -0.5v80q8 0 54 -0.5t66 -0.5h330l-309 -539q-17 -29 -37 -55.5t-27 -29.5l2 -4q13 6 107 6zM275 893q23 0 38.5 -15.5t15.5 -38.5
t-15.5 -38.5t-38.5 -15.5t-38.5 15.5t-15.5 38.5t15.5 38.5t38.5 15.5z" />
    <glyph glyph-name="zdotaccent" unicode="&#x17c;" horiz-adv-x="483" 
d="M238 74h91q19 0 65.5 0.5t54.5 0.5v-76q-8 0 -54.5 0.5t-65.5 0.5h-314l254 316q29 36 53 48l-1 4q-15 -5 -77 -5h-61q-19 0 -66 -0.5t-54 -0.5v74q7 0 54 -0.5t66 -0.5h285l-255 -314q-31 -39 -53 -48l1 -4q15 5 77 5zM244 628q22 0 38 -16t16 -38t-16 -38t-38 -16
t-38 16t-16 38t16 38t38 16z" />
    <glyph glyph-name="Zcaron" unicode="&#x17d;" horiz-adv-x="550" 
d="M262 78h131q19 0 66 0.5t54 0.5v-80q-7 0 -54 0.5t-66 0.5h-373l310 539q44 76 63 85l-2 4q-14 -6 -107 -6h-88q-20 0 -66 -0.5t-54 -0.5v80q8 0 54 -0.5t66 -0.5h330l-309 -539q-17 -29 -37 -55.5t-27 -29.5l2 -4q13 6 107 6zM211 908l67 -67l67 67l40 -40l-107 -106
l-107 106z" />
    <glyph glyph-name="zcaron" unicode="&#x17e;" horiz-adv-x="483" 
d="M238 74h91q19 0 65.5 0.5t54.5 0.5v-76q-8 0 -54.5 0.5t-65.5 0.5h-314l254 316q29 36 53 48l-1 4q-15 -5 -77 -5h-61q-19 0 -66 -0.5t-54 -0.5v74q7 0 54 -0.5t66 -0.5h285l-255 -314q-31 -39 -53 -48l1 -4q15 5 77 5zM187 643l67 -67l67 67l40 -40l-107 -106l-107 106z
" />
    <glyph glyph-name="longs" unicode="&#x17f;" horiz-adv-x="265" 
d="M257 807v-88q-40 0 -66 -27.5t-26 -74.5v-717q0 -20 0.5 -66t0.5 -54h-92q0 8 0.5 54t0.5 66v717q0 88 51.5 139t130.5 51z" />
    <glyph glyph-name="uni018E" unicode="&#x18e;" horiz-adv-x="467" 
d="M417 700v-700h-252q-19 0 -65.5 -0.5t-54.5 -0.5v90q8 0 54.5 -0.5t65.5 -0.5h157v252h-84q-19 0 -65.5 -0.5t-54.5 -0.5v90q8 0 54.5 -0.5t65.5 -0.5h84v184h-137q-19 0 -66 -0.5t-54 -0.5v90q7 0 54 -0.5t66 -0.5h232z" />
    <glyph glyph-name="Schwa" unicode="&#x18f;" horiz-adv-x="767" 
d="M632 350q0 117 -80.5 199.5t-194.5 82.5q-65 0 -121.5 -31.5t-93.5 -85.5l-70 61q50 67 124.5 105.5t160.5 38.5q153 0 261.5 -108.5t108.5 -261.5t-108.5 -261.5t-261.5 -108.5q-133 0 -227.5 87t-94.5 209q0 12 2 34h592q3 20 3 40zM602 222h-439q-22 0 -31 6l-3 -4
q6 -4 19 -30q27 -57 83.5 -91.5t125.5 -34.5q79 0 144.5 42t100.5 112z" />
    <glyph glyph-name="uni0191" unicode="&#x191;" horiz-adv-x="425" 
d="M394 701v-88q-7 0 -53.5 0.5t-66.5 0.5h-129v-186h77q19 0 65.5 0.5t54.5 0.5v-90q-8 0 -54.5 0.5t-65.5 0.5h-77v-380q0 -80 -56.5 -136t-135.5 -56q-59 0 -105 31l40 75q28 -22 65 -22q40 0 68.5 30.5t28.5 73.5v744h224q20 0 66.5 0.5t53.5 0.5z" />
    <glyph glyph-name="florin" unicode="&#x192;" horiz-adv-x="295" 
d="M75 -42v666q0 88 51.5 139t130.5 51v-88q-40 0 -66 -27.5t-26 -74.5v-189q17 0 45.5 0.5t32.5 0.5v-90q-6 0 -39 0.5t-39 0.5v-389q0 -88 -51.5 -139t-130.5 -51v88q40 0 66 27.5t26 74.5z" />
    <glyph glyph-name="uni01B5" unicode="&#x1b5;" horiz-adv-x="550" 
d="M262 78h131q19 0 66 0.5t54 0.5v-80q-7 0 -54 0.5t-66 0.5h-373l187 326q-19 0 -66 -0.5t-54 -0.5v86q7 0 54 -0.5t66 -0.5h49l74 129q44 76 63 85l-2 4q-14 -6 -107 -6h-88q-20 0 -66 -0.5t-54 -0.5v80q8 0 54 -0.5t66 -0.5h330l-167 -290h4q19 0 66 0.5t54 0.5v-86
q-7 0 -54 0.5t-66 0.5h-52l-94 -165q-17 -29 -37 -55.5t-27 -29.5l2 -4q13 6 107 6z" />
    <glyph glyph-name="uni01B6" unicode="&#x1b6;" horiz-adv-x="483" 
d="M262 70h72q20 0 66.5 0.5t53.5 0.5v-72q-7 0 -53.5 0.5t-66.5 0.5h-319l154 192q-34 -1 -90 -1v76q7 0 54 -0.5t66 -0.5h30l19 24q50 63 76 76l-1 4q-15 -5 -107 -5h-36q-20 0 -66 -0.5t-54 -0.5v72q8 0 54 -0.5t66 -0.5h288l-139 -169q19 0 50 0.5t36 0.5v-76
q-7 0 -54 0.5t-66 0.5h-27l-38 -47q-64 -71 -76 -76l1 -4q15 5 107 5z" />
    <glyph glyph-name="uni01CD" unicode="&#x1cd;" 
d="M562 70l-13 28h-373l-12 -28q-15 -32 -31 -70h-103l50 109l279 629l287 -629q7 -16 27 -58.5t23 -50.5h-103q-16 38 -31 70zM246 186h231q26 0 35 -6l2 4q-6 3 -16 26l-111 243q-25 54 -25 75h-4q0 -21 -24 -75l-108 -243q-10 -22 -17 -26l2 -4q6 6 35 6zM292 908l67 -67
l67 67l40 -40l-107 -106l-107 106z" />
    <glyph glyph-name="uni01CE" unicode="&#x1ce;" horiz-adv-x="488" 
d="M173 643l67 -67l67 67l40 -40l-107 -106l-107 106zM236 -12q-86 0 -139 46t-53 120q0 69 50.5 109.5t125.5 40.5q79 0 114 -46l4 2q-7 22 -9 41q-3 30 -29 47t-60 17q-55 0 -117 -35l-36 75q77 42 153 42q52 0 95 -20.5t65 -59.5q18 -31 18 -79v-244q-31 -21 -80 -38.5
t-102 -17.5zM236 68q55 0 92 26v85q-12 18 -40.5 34.5t-67.5 16.5q-37 0 -63.5 -21t-26.5 -55q0 -40 28.5 -63t77.5 -23z" />
    <glyph glyph-name="uni01CF" unicode="&#x1cf;" horiz-adv-x="235" 
d="M69 700h97q0 -8 -0.5 -54t-0.5 -66v-460q0 -20 0.5 -66.5t0.5 -53.5h-97q0 7 0.5 53.5t0.5 66.5v460q0 20 -0.5 66t-0.5 54zM50 908l67 -67l67 67l40 -40l-107 -106l-107 106z" />
    <glyph glyph-name="uni01D0" unicode="&#x1d0;" horiz-adv-x="250" 
d="M80 120v195q0 19 -0.5 66t-0.5 54h92q0 -7 -0.5 -54t-0.5 -66v-195q0 -20 0.5 -66.5t0.5 -53.5h-92q0 7 0.5 53.5t0.5 66.5zM58 643l67 -67l67 67l40 -40l-107 -106l-107 106z" />
    <glyph glyph-name="uni01D1" unicode="&#x1d1;" horiz-adv-x="820" 
d="M410 720q153 0 261.5 -108.5t108.5 -261.5t-108.5 -261.5t-261.5 -108.5t-261.5 108.5t-108.5 261.5t108.5 261.5t261.5 108.5zM410 632q-114 0 -194.5 -82.5t-80.5 -199.5t80.5 -199.5t194.5 -82.5t194.5 82.5t80.5 199.5t-80.5 199.5t-194.5 82.5zM343 908l67 -67
l67 67l40 -40l-107 -106l-107 106z" />
    <glyph glyph-name="uni01D2" unicode="&#x1d2;" horiz-adv-x="539" 
d="M269 363q-58 0 -98.5 -42.5t-40.5 -103.5q0 -60 40.5 -102.5t98.5 -42.5t99 42.5t41 102.5q0 61 -41 103.5t-99 42.5zM269 447q95 0 162.5 -67.5t67.5 -162.5t-67.5 -162t-162.5 -67t-162 67t-67 162t67 162.5t162 67.5zM202 643l67 -67l67 67l40 -40l-107 -106l-107 106
z" />
    <glyph glyph-name="uni01D3" unicode="&#x1d3;" horiz-adv-x="620" 
d="M146 700q0 -8 -0.5 -54t-0.5 -66v-340q0 -88 36 -125q48 -51 147 -51q103 0 147 40v476q0 20 -0.5 66t-0.5 54h97q0 -8 -0.5 -54t-0.5 -66v-514q-26 -36 -88.5 -61t-153.5 -25q-149 0 -220 75q-58 61 -58 165v360q0 20 -0.5 66t-0.5 54h97zM239 908l67 -67l67 67l40 -40
l-107 -106l-107 106z" />
    <glyph glyph-name="uni01D4" unicode="&#x1d4;" horiz-adv-x="510" 
d="M451 435q0 -7 -0.5 -54t-0.5 -66v-274q-25 -22 -74.5 -37.5t-109.5 -15.5q-105 0 -155.5 46t-50.5 123v158q0 19 -0.5 66t-0.5 54h92q0 -7 -0.5 -54t-0.5 -66v-143q0 -104 116 -104q50 0 94 20v227q0 19 -0.5 66t-0.5 54h92zM189 643l67 -67l67 67l40 -40l-107 -106
l-107 106z" />
    <glyph glyph-name="uni01DD" unicode="&#x1dd;" horiz-adv-x="510" 
d="M50 231h329q-7 61 -42 97.5t-95 36.5q-78 0 -128 -65l-62 59q79 88 190 88q109 0 168.5 -67t59.5 -168q0 -97 -59.5 -160.5t-152.5 -63.5q-99 0 -154 67t-55 156q0 13 1 20zM258 66q43 0 73.5 23.5t42.5 65.5h-230q5 -34 36 -61.5t78 -27.5z" />
    <glyph glyph-name="uni01E2" unicode="&#x1e2;" horiz-adv-x="886" 
d="M469 0v98h-278l-14 -22l-48 -76h-119l87 127l372 573h232q19 0 66 0.5t54 0.5v-90q-7 0 -54 0.5t-66 0.5h-137v-184h88q20 0 66 0.5t54 0.5v-92q-8 0 -54 0.5t-66 0.5h-88v-246h157q19 0 65.5 0.5t54.5 0.5v-94q-8 0 -54.5 0.5t-65.5 0.5h-252zM242 180q6 6 35 6h192v274
q0 62 8 80l-5 2q-8 -23 -32 -61l-176 -271q-12 -18 -24 -26zM428 872q4 0 27 -0.5t33 -0.5h110q10 0 33 0.5t27 0.5v-66q-4 0 -27 0.5t-33 0.5h-110q-10 0 -33 -0.5t-27 -0.5v66z" />
    <glyph glyph-name="uni01E3" unicode="&#x1e3;" horiz-adv-x="794" 
d="M333 257l4 2q-9 26 -10 42q-4 30 -29.5 47t-59.5 17q-60 0 -117 -35l-36 75q77 42 153 42q100 0 148 -63q60 63 152 63q99 0 154 -67t55 -156q0 -13 -1 -20h-329q7 -61 42 -97.5t95 -36.5q78 0 128 65l62 -59q-79 -88 -190 -88q-91 0 -149 49q-80 -49 -171 -49
q-85 0 -139.5 46.5t-54.5 121.5q0 68 51 109t127 41q38 0 69 -14t46 -35zM538 369q-43 0 -73.5 -23.5t-42.5 -65.5h230q-5 34 -36 61.5t-78 27.5zM234 68q53 0 92 26v85q-12 18 -41 33.5t-67 15.5q-36 0 -62 -19.5t-26 -52.5q0 -40 28.5 -64t75.5 -24zM274 607q4 0 27 -0.5
t33 -0.5h110q10 0 33.5 0.5t26.5 0.5v-66q-3 0 -26.5 0.5t-33.5 0.5h-110q-10 0 -33 -0.5t-27 -0.5v66z" />
    <glyph glyph-name="Gcaron" unicode="&#x1e6;" horiz-adv-x="767" 
d="M606 222h-87q-19 0 -66 -0.5t-54 -0.5v90q7 0 54 -0.5t66 -0.5h211q2 -22 2 -34q0 -122 -94.5 -209t-227.5 -87q-153 0 -261.5 108.5t-108.5 261.5t108.5 261.5t261.5 108.5q86 0 160.5 -38.5t124.5 -105.5l-70 -61q-37 54 -93.5 85.5t-121.5 31.5q-114 0 -194.5 -82.5
t-80.5 -199.5t80.5 -199.5t194.5 -82.5q70 0 129.5 36t81.5 90q9 23 19 30l-3 4q-9 -6 -31 -6zM342 908l67 -67l67 67l40 -40l-107 -106l-107 106z" />
    <glyph glyph-name="gcaron" unicode="&#x1e7;" horiz-adv-x="555" 
d="M390 -40v24q0 32 5 44l-4 2q-44 -42 -125 -42q-94 0 -155 61t-61 170q0 101 63.5 164.5t164.5 63.5q112 0 202 -75v-412q0 -97 -60 -144.5t-167 -47.5q-108 0 -179 54l51 68q52 -42 128 -42q137 0 137 112zM390 134v192q-52 37 -112 37q-61 0 -99.5 -41.5t-38.5 -102.5
q0 -64 35 -105.5t99 -41.5q39 0 69.5 18t46.5 44zM213 643l67 -67l67 67l40 -40l-107 -106l-107 106z" />
    <glyph glyph-name="uni01E8" unicode="&#x1e8;" horiz-adv-x="580" 
d="M560 700l-123 -118l-196 -192l213 -264l104 -126h-123q-6 7 -24.5 31t-29.5 37l-206 257l-30 -29v-176q0 -20 0.5 -66.5t0.5 -53.5h-97q0 7 0.5 53.5t0.5 66.5v460q0 20 -0.5 66t-0.5 54h97q0 -8 -0.5 -54t-0.5 -66v-95q0 -63 -7 -79l4 -2q9 18 50 58l185 181
q15 14 34.5 34.5l21.5 22.5h127zM199 908l67 -67l67 67l40 -40l-107 -106l-107 106z" />
    <glyph glyph-name="uni01E9" unicode="&#x1e9;" horiz-adv-x="480" 
d="M326 435h119l-112 -109l-78 -77l106 -129l99 -120h-115l-52 66l-102 128l-26 -19v-55q0 -20 0.5 -66.5t0.5 -53.5h-92q0 7 0.5 53.5t0.5 66.5v555q0 19 -0.5 66t-0.5 54h92q0 -7 -0.5 -54t-0.5 -66v-301q0 -97 -6 -110l4 -2q11 18 72 79l36 36q1 1 55 58zM182 908l67 -67
l67 67l40 -40l-107 -106l-107 106z" />
    <glyph glyph-name="uni01EA" unicode="&#x1ea;" horiz-adv-x="820" 
d="M410 720q153 0 261.5 -108.5t108.5 -261.5q0 -120 -70 -216t-180 -134q-21 -32 -21 -56q0 -14 8.5 -24t23.5 -10q19 0 46 10l22 -63q-31 -17 -68 -17q-56 0 -82 30.5t-26 73.5q0 22 7 37q-10 -1 -30 -1q-153 0 -261.5 108.5t-108.5 261.5t108.5 261.5t261.5 108.5z
M410 632q-114 0 -194.5 -82.5t-80.5 -199.5t80.5 -199.5t194.5 -82.5t194.5 82.5t80.5 199.5t-80.5 199.5t-194.5 82.5z" />
    <glyph glyph-name="uni01EB" unicode="&#x1eb;" horiz-adv-x="539" 
d="M269 447q95 0 162.5 -67.5t67.5 -162.5q0 -75 -44 -134.5t-112 -82.5q-21 -32 -21 -56q0 -14 8.5 -24t23.5 -10q19 0 46 10l22 -63q-31 -17 -68 -17q-56 0 -82 30.5t-26 73.5q0 22 10 45q-91 5 -153.5 70.5t-62.5 157.5q0 95 67 162.5t162 67.5zM269 363
q-58 0 -98.5 -42.5t-40.5 -103.5q0 -60 40.5 -102.5t98.5 -42.5t99 42.5t41 102.5q0 61 -41 103.5t-99 42.5z" />
    <glyph glyph-name="uni01EC" unicode="&#x1ec;" horiz-adv-x="820" 
d="M410 720q153 0 261.5 -108.5t108.5 -261.5q0 -120 -70 -216t-180 -134q-21 -32 -21 -56q0 -14 8.5 -24t23.5 -10q19 0 46 10l22 -63q-31 -17 -68 -17q-56 0 -82 30.5t-26 73.5q0 22 7 37q-10 -1 -30 -1q-153 0 -261.5 108.5t-108.5 261.5t108.5 261.5t261.5 108.5z
M410 632q-114 0 -194.5 -82.5t-80.5 -199.5t80.5 -199.5t194.5 -82.5t194.5 82.5t80.5 199.5t-80.5 199.5t-194.5 82.5zM295 872q3 0 27 -0.5t33 -0.5h110q9 0 33 0.5t27 0.5v-66q-3 0 -27 0.5t-33 0.5h-110q-9 0 -33 -0.5t-27 -0.5v66z" />
    <glyph glyph-name="uni01ED" unicode="&#x1ed;" horiz-adv-x="539" 
d="M269 447q95 0 162.5 -67.5t67.5 -162.5q0 -75 -44 -134.5t-112 -82.5q-21 -32 -21 -56q0 -14 8.5 -24t23.5 -10q19 0 46 10l22 -63q-31 -17 -68 -17q-56 0 -82 30.5t-26 73.5q0 22 10 45q-91 5 -153.5 70.5t-62.5 157.5q0 95 67 162.5t162 67.5zM269 363
q-58 0 -98.5 -42.5t-40.5 -103.5q0 -60 40.5 -102.5t98.5 -42.5t99 42.5t41 102.5q0 61 -41 103.5t-99 42.5zM154 607q4 0 27 -0.5t33 -0.5h110q10 0 33.5 0.5t26.5 0.5v-66q-3 0 -26.5 0.5t-33.5 0.5h-110q-10 0 -33 -0.5t-27 -0.5v66z" />
    <glyph glyph-name="uni01F0" unicode="&#x1f0;" horiz-adv-x="250" 
d="M-12 -232v88q40 0 66 27.5t26 74.5v357q0 19 -0.5 66t-0.5 54h92q0 -7 -0.5 -54t-0.5 -66v-357q0 -88 -51.5 -139t-130.5 -51zM58 643l67 -67l67 67l40 -40l-107 -106l-107 106z" />
    <glyph glyph-name="uni01F4" unicode="&#x1f4;" horiz-adv-x="767" 
d="M606 222h-87q-19 0 -66 -0.5t-54 -0.5v90q7 0 54 -0.5t66 -0.5h211q2 -22 2 -34q0 -122 -94.5 -209t-227.5 -87q-153 0 -261.5 108.5t-108.5 261.5t108.5 261.5t261.5 108.5q86 0 160.5 -38.5t124.5 -105.5l-70 -61q-37 54 -93.5 85.5t-121.5 31.5q-114 0 -194.5 -82.5
t-80.5 -199.5t80.5 -199.5t194.5 -82.5q70 0 129.5 36t81.5 90q9 23 19 30l-3 4q-9 -6 -31 -6zM377 758l-41 32l120 151l81 -45z" />
    <glyph glyph-name="uni01F5" unicode="&#x1f5;" horiz-adv-x="555" 
d="M390 -40v24q0 32 5 44l-4 2q-44 -42 -125 -42q-94 0 -155 61t-61 170q0 101 63.5 164.5t164.5 63.5q112 0 202 -75v-412q0 -97 -60 -144.5t-167 -47.5q-108 0 -179 54l51 68q52 -42 128 -42q137 0 137 112zM390 134v192q-52 37 -112 37q-61 0 -99.5 -41.5t-38.5 -102.5
q0 -64 35 -105.5t99 -41.5q39 0 69.5 18t46.5 44zM245 523l-41 32l120 151l81 -45z" />
    <glyph glyph-name="uni01F8" unicode="&#x1f8;" horiz-adv-x="721" 
d="M671 -28l-450 455q-63 65 -80 89l-3 -2q7 -35 7 -74v-320q0 -20 0.5 -66.5t0.5 -53.5h-97q0 7 0.5 53.5t0.5 66.5v608l450 -455q63 -65 80 -89l3 2q-7 35 -7 74v320q0 20 -0.5 66t-0.5 54h97q0 -8 -0.5 -54t-0.5 -66v-608zM424 790l-41 -32l-160 138l81 45z" />
    <glyph glyph-name="uni01F9" unicode="&#x1f9;" horiz-adv-x="526" 
d="M164 435q-2 -48 -5 -57l4 -2q13 30 48.5 50.5t82.5 20.5q77 0 119.5 -44.5t42.5 -123.5v-159q0 -20 0.5 -66.5t0.5 -53.5h-92q0 7 0.5 53.5t0.5 66.5v140q0 57 -25.5 84t-66.5 27q-46 0 -77.5 -31.5t-31.5 -85.5v-134q0 -20 0.5 -66.5t0.5 -53.5h-92q0 7 0.5 53.5
t0.5 66.5v195q0 19 -0.5 66t-0.5 54h90zM335 555l-41 -32l-160 138l81 45z" />
    <glyph glyph-name="AEacute" unicode="&#x1fc;" horiz-adv-x="886" 
d="M469 0v98h-278l-14 -22l-48 -76h-119l87 127l372 573h232q19 0 66 0.5t54 0.5v-90q-7 0 -54 0.5t-66 0.5h-137v-184h88q20 0 66 0.5t54 0.5v-92q-8 0 -54 0.5t-66 0.5h-88v-246h157q19 0 65.5 0.5t54.5 0.5v-94q-8 0 -54.5 0.5t-65.5 0.5h-252zM242 180q6 6 35 6h192v274
q0 62 8 80l-5 2q-8 -23 -32 -61l-176 -271q-12 -18 -24 -26zM539 788l-41 32l120 151l81 -45z" />
    <glyph glyph-name="aeacute" unicode="&#x1fd;" horiz-adv-x="794" 
d="M333 257l4 2q-9 26 -10 42q-4 30 -29.5 47t-59.5 17q-60 0 -117 -35l-36 75q77 42 153 42q100 0 148 -63q60 63 152 63q99 0 154 -67t55 -156q0 -13 -1 -20h-329q7 -61 42 -97.5t95 -36.5q78 0 128 65l62 -59q-79 -88 -190 -88q-91 0 -149 49q-80 -49 -171 -49
q-85 0 -139.5 46.5t-54.5 121.5q0 68 51 109t127 41q38 0 69 -14t46 -35zM538 369q-43 0 -73.5 -23.5t-42.5 -65.5h230q-5 34 -36 61.5t-78 27.5zM234 68q53 0 92 26v85q-12 18 -41 33.5t-67 15.5q-36 0 -62 -19.5t-26 -52.5q0 -40 28.5 -64t75.5 -24zM383 523l-41 32
l120 151l81 -45z" />
    <glyph glyph-name="Oslashacute" unicode="&#x1fe;" horiz-adv-x="820" 
d="M410 720q125 0 227 -79l59 60l65 -65l-60 -59q79 -102 79 -227q0 -153 -108.5 -261.5t-261.5 -108.5q-128 0 -228 78l-58 -59l-65 65l59 58q-78 100 -78 228q0 153 108.5 261.5t261.5 108.5zM685 350q0 88 -50 162l-389 -389q74 -55 164 -55q114 0 194.5 82.5t80.5 199.5
zM410 632q-114 0 -194.5 -82.5t-80.5 -199.5q0 -90 50 -162l388 388q-72 56 -163 56zM393 758l-41 32l120 151l81 -45z" />
    <glyph glyph-name="oslashacute" unicode="&#x1ff;" horiz-adv-x="539" 
d="M269 447q70 0 127 -38l37 37l65 -65l-38 -37q39 -58 39 -127q0 -95 -67.5 -162t-162.5 -67q-70 0 -127 38l-37 -37l-65 65l38 36q-38 57 -38 127q0 95 67 162.5t162 67.5zM395 280l-191 -191q31 -17 65 -17q58 0 99 42.5t41 102.5q0 33 -14 63zM269 363
q-58 0 -98.5 -42.5t-40.5 -103.5q0 -35 13 -62l191 191q-31 17 -65 17zM269 513l-41 32l120 151l81 -45z" />
    <glyph glyph-name="uni0202" unicode="&#x202;" 
d="M562 70l-13 28h-373l-12 -28q-15 -32 -31 -70h-103l50 109l279 629l287 -629q7 -16 27 -58.5t23 -50.5h-103q-16 38 -31 70zM246 186h231q26 0 35 -6l2 4q-6 3 -16 26l-111 243q-25 54 -25 75h-4q0 -21 -24 -75l-108 -243q-10 -22 -17 -26l2 -4q6 6 35 6zM286 785l-68 19
q14 48 52 75t90 27t90 -27t52 -75l-68 -19q-15 51 -74 51t-74 -51z" />
    <glyph glyph-name="uni0203" unicode="&#x203;" horiz-adv-x="488" 
d="M171 520l-68 19q14 48 52 75t90 27t90 -27t52 -75l-68 -19q-15 51 -74 51t-74 -51zM236 -12q-86 0 -139 46t-53 120q0 69 50.5 109.5t125.5 40.5q79 0 114 -46l4 2q-7 22 -9 41q-3 30 -29 47t-60 17q-55 0 -117 -35l-36 75q77 42 153 42q52 0 95 -20.5t65 -59.5
q18 -31 18 -79v-244q-31 -21 -80 -38.5t-102 -17.5zM236 68q55 0 92 26v85q-12 18 -40.5 34.5t-67.5 16.5q-37 0 -63.5 -21t-26.5 -55q0 -40 28.5 -63t77.5 -23z" />
    <glyph glyph-name="uni0206" unicode="&#x206;" horiz-adv-x="467" 
d="M50 0v700h232q20 0 66.5 0.5t53.5 0.5v-90q-7 0 -53.5 0.5t-66.5 0.5h-137v-184h88q19 0 66 0.5t54 0.5v-92q-7 0 -54 0.5t-66 0.5h-88v-246h157q20 0 66 0.5t54 0.5v-94q-8 0 -54 0.5t-66 0.5h-252zM155 785l-68 19q14 48 52 75t90 27t90 -27t52 -75l-68 -19
q-15 51 -74 51t-74 -51z" />
    <glyph glyph-name="uni0207" unicode="&#x207;" horiz-adv-x="510" 
d="M460 204h-329q7 -61 42 -97.5t95 -36.5q78 0 128 65l62 -59q-79 -88 -190 -88q-109 0 -168.5 67t-59.5 168q0 97 59.5 160.5t152.5 63.5q99 0 154 -67t55 -156q0 -13 -1 -20zM252 369q-43 0 -73.5 -23.5t-42.5 -65.5h230q-5 34 -36 61.5t-78 27.5zM185 520l-68 19
q14 48 52 75t90 27t90 -27t52 -75l-68 -19q-15 51 -74 51t-74 -51z" />
    <glyph glyph-name="uni020A" unicode="&#x20a;" horiz-adv-x="235" 
d="M69 700h97q0 -8 -0.5 -54t-0.5 -66v-460q0 -20 0.5 -66.5t0.5 -53.5h-97q0 7 0.5 53.5t0.5 66.5v460q0 20 -0.5 66t-0.5 54zM43 785l-68 19q14 48 52 75t90 27t90 -27t52 -75l-68 -19q-15 51 -74 51t-74 -51z" />
    <glyph glyph-name="uni020B" unicode="&#x20b;" horiz-adv-x="250" 
d="M80 120v195q0 19 -0.5 66t-0.5 54h92q0 -7 -0.5 -54t-0.5 -66v-195q0 -20 0.5 -66.5t0.5 -53.5h-92q0 7 0.5 53.5t0.5 66.5zM51 520l-68 19q14 48 52 75t90 27t90 -27t52 -75l-68 -19q-15 51 -74 51t-74 -51z" />
    <glyph glyph-name="uni020E" unicode="&#x20e;" horiz-adv-x="820" 
d="M410 720q153 0 261.5 -108.5t108.5 -261.5t-108.5 -261.5t-261.5 -108.5t-261.5 108.5t-108.5 261.5t108.5 261.5t261.5 108.5zM410 632q-114 0 -194.5 -82.5t-80.5 -199.5t80.5 -199.5t194.5 -82.5t194.5 82.5t80.5 199.5t-80.5 199.5t-194.5 82.5zM336 785l-68 19
q14 48 52 75t90 27t90 -27t52 -75l-68 -19q-15 51 -74 51t-74 -51z" />
    <glyph glyph-name="uni020F" unicode="&#x20f;" horiz-adv-x="539" 
d="M269 363q-58 0 -98.5 -42.5t-40.5 -103.5q0 -60 40.5 -102.5t98.5 -42.5t99 42.5t41 102.5q0 61 -41 103.5t-99 42.5zM269 447q95 0 162.5 -67.5t67.5 -162.5t-67.5 -162t-162.5 -67t-162 67t-67 162t67 162.5t162 67.5zM195 520l-68 19q14 48 52 75t90 27t90 -27t52 -75
l-68 -19q-15 51 -74 51t-74 -51z" />
    <glyph glyph-name="uni0212" unicode="&#x212;" horiz-adv-x="492" 
d="M149 785l-68 19q14 48 52 75t90 27t90 -27t52 -75l-68 -19q-15 51 -74 51t-74 -51zM372 0q-1 2 -15.5 35.5t-24.5 53.5l-105 223h-82v-192q0 -20 0.5 -66.5t0.5 -53.5h-97q0 7 0.5 53.5t0.5 66.5v580h208q86 0 140 -56t54 -138q0 -66 -36.5 -117t-95.5 -65l-1 -2
q8 -8 17 -27l88 -187l52 -108h-104zM246 618h-101v-222h101q52 0 81.5 31.5t29.5 79.5t-29.5 79.5t-81.5 31.5z" />
    <glyph glyph-name="uni0213" unicode="&#x213;" horiz-adv-x="365" 
d="M127 520l-68 19q14 48 52 75t90 27t90 -27t52 -75l-68 -19q-15 51 -74 51t-74 -51zM348 419l-50 -77q-18 18 -44 18q-38 0 -63.5 -30.5t-25.5 -69.5v-140q0 -20 0.5 -66.5t0.5 -53.5h-92q0 7 0.5 53.5t0.5 66.5v195q0 19 -0.5 66t-0.5 54h89q0 -43 -3 -56l5 -2
q10 24 41 45.5t68 21.5q23 0 44.5 -7.5t29.5 -17.5z" />
    <glyph glyph-name="uni0216" unicode="&#x216;" horiz-adv-x="623" 
d="M146 700q0 -8 -0.5 -54t-0.5 -66v-340q0 -88 36 -125q48 -51 147 -51q103 0 147 40v476q0 20 -0.5 66t-0.5 54h97q0 -8 -0.5 -54t-0.5 -66v-514q-26 -36 -88.5 -61t-153.5 -25q-149 0 -220 75q-58 61 -58 165v360q0 20 -0.5 66t-0.5 54h97zM239 785l-68 19q14 48 52 75
t90 27t90 -27t52 -75l-68 -19q-15 51 -74 51t-74 -51z" />
    <glyph glyph-name="uni0217" unicode="&#x217;" horiz-adv-x="510" 
d="M451 435q0 -7 -0.5 -54t-0.5 -66v-274q-25 -22 -74.5 -37.5t-109.5 -15.5q-105 0 -155.5 46t-50.5 123v158q0 19 -0.5 66t-0.5 54h92q0 -7 -0.5 -54t-0.5 -66v-143q0 -104 116 -104q50 0 94 20v227q0 19 -0.5 66t-0.5 54h92zM179 520l-68 19q14 48 52 75t90 27t90 -27
t52 -75l-68 -19q-15 51 -74 51t-74 -51z" />
    <glyph glyph-name="Scommaaccent" unicode="&#x218;" horiz-adv-x="474" 
d="M12 120l81 44q52 -90 137 -90q53 0 84 28t31 70q0 26 -9.5 48.5t-30 43.5t-37.5 35t-47 35q-42 30 -60.5 44.5t-48 43t-42 59.5t-12.5 67q0 72 49.5 118t128.5 46q107 0 189 -99l-73 -55q-51 70 -116 70q-40 0 -62 -22t-22 -54q0 -27 18 -52.5t34.5 -38.5t58.5 -42
q9 -7 14 -10q37 -26 59.5 -44t50 -47.5t40.5 -63.5t13 -74q0 -86 -57 -139t-153 -53q-77 0 -132 38t-86 94zM223 -37l-76 -113l51 -37l91 100z" />
    <glyph glyph-name="scommaaccent" unicode="&#x219;" horiz-adv-x="394" 
d="M317 395l-48 -59q-37 37 -75 37q-20 0 -32 -9.5t-12 -25.5q0 -9 4 -16.5t13.5 -15l15.5 -12t21.5 -13.5t19.5 -11q30 -19 43 -28t34.5 -29t30 -42.5t8.5 -51.5q0 -54 -41 -92.5t-111 -38.5q-85 0 -168 70l57 65q61 -53 111 -53q26 0 44 14.5t18 34.5q0 11 -5.5 21.5
t-18.5 21t-22 17t-28 17.5q-27 17 -42 27.5t-34 28t-27.5 39t-8.5 47.5q0 44 36 76.5t94 32.5q65 0 123 -52zM187 -37l-76 -113l51 -37l91 100z" />
    <glyph glyph-name="uni021E" unicode="&#x21e;" horiz-adv-x="624" 
d="M574 580v-460q0 -20 0.5 -66.5t0.5 -53.5h-97q0 7 0.5 53.5t0.5 66.5v215h-334v-215q0 -20 0.5 -66.5t0.5 -53.5h-97q0 7 0.5 53.5t0.5 66.5v460q0 20 -0.5 66t-0.5 54h97q0 -8 -0.5 -54t-0.5 -66v-157h334v157q0 20 -0.5 66t-0.5 54h97q0 -8 -0.5 -54t-0.5 -66zM245 908
l67 -67l67 67l40 -40l-107 -106l-107 106z" />
    <glyph glyph-name="uni021F" unicode="&#x21f;" horiz-adv-x="527" 
d="M166 795q0 -7 -0.5 -54t-0.5 -66v-187q0 -62 -11 -92l4 -2q49 53 128 53q76 0 124 -43.5t48 -117.5v-166q0 -20 0.5 -66.5t0.5 -53.5h-92q0 7 0.5 53.5t0.5 66.5v150q0 52 -28 75.5t-70 23.5q-105 0 -105 -127v-122q0 -20 0.5 -66.5t0.5 -53.5h-92q0 7 0.5 53.5t0.5 66.5
v555q0 19 -0.5 66t-0.5 54h92zM191 908l67 -67l67 67l40 -40l-107 -106l-107 106z" />
    <glyph glyph-name="uni0226" unicode="&#x226;" 
d="M562 70l-13 28h-373l-12 -28q-15 -32 -31 -70h-103l50 109l279 629l287 -629q7 -16 27 -58.5t23 -50.5h-103q-16 38 -31 70zM246 186h231q26 0 35 -6l2 4q-6 3 -16 26l-111 243q-25 54 -25 75h-4q0 -21 -24 -75l-108 -243q-10 -22 -17 -26l2 -4q6 6 35 6zM360 893
q22 0 38 -15.5t16 -38.5t-16 -38.5t-38 -15.5t-38 15.5t-16 38.5t16 38.5t38 15.5z" />
    <glyph glyph-name="uni0227" unicode="&#x227;" horiz-adv-x="488" 
d="M245 628q23 0 38.5 -16t15.5 -38t-15.5 -38t-38.5 -16t-38.5 16t-15.5 38t15.5 38t38.5 16zM236 -12q-86 0 -139 46t-53 120q0 69 50.5 109.5t125.5 40.5q79 0 114 -46l4 2q-7 22 -9 41q-3 30 -29 47t-60 17q-55 0 -117 -35l-36 75q77 42 153 42q52 0 95 -20.5t65 -59.5
q18 -31 18 -79v-244q-31 -21 -80 -38.5t-102 -17.5zM236 68q55 0 92 26v85q-12 18 -40.5 34.5t-67.5 16.5q-37 0 -63.5 -21t-26.5 -55q0 -40 28.5 -63t77.5 -23z" />
    <glyph glyph-name="uni0228" unicode="&#x228;" horiz-adv-x="417" 
d="M50 0v700h232q20 0 66.5 0.5t53.5 0.5v-90q-7 0 -53.5 0.5t-66.5 0.5h-137v-184h88q19 0 66 0.5t54 0.5v-92q-7 0 -54 0.5t-66 0.5h-88v-246h157q20 0 66 0.5t54 0.5v-94q-8 0 -54 0.5t-66 0.5h-252zM235 -37l-76 -113l51 -37l91 100z" />
    <glyph glyph-name="uni0229" unicode="&#x229;" horiz-adv-x="508" 
d="M460 204h-329q7 -61 42 -97.5t95 -36.5q78 0 128 65l62 -59q-79 -88 -190 -88q-109 0 -168.5 67t-59.5 168q0 97 59.5 160.5t152.5 63.5q99 0 154 -67t55 -156q0 -13 -1 -20zM252 369q-43 0 -73.5 -23.5t-42.5 -65.5h230q-5 34 -36 61.5t-78 27.5zM263 -37l-76 -113
l51 -37l91 100z" />
    <glyph glyph-name="uni022E" unicode="&#x22e;" horiz-adv-x="820" 
d="M410 720q153 0 261.5 -108.5t108.5 -261.5t-108.5 -261.5t-261.5 -108.5t-261.5 108.5t-108.5 261.5t108.5 261.5t261.5 108.5zM410 632q-114 0 -194.5 -82.5t-80.5 -199.5t80.5 -199.5t194.5 -82.5t194.5 82.5t80.5 199.5t-80.5 199.5t-194.5 82.5zM410 863
q22 0 38 -15.5t16 -38.5t-16 -38.5t-38 -15.5t-38 15.5t-16 38.5t16 38.5t38 15.5z" />
    <glyph glyph-name="uni022F" unicode="&#x22f;" horiz-adv-x="539" 
d="M269 363q-58 0 -98.5 -42.5t-40.5 -103.5q0 -60 40.5 -102.5t98.5 -42.5t99 42.5t41 102.5q0 61 -41 103.5t-99 42.5zM269 447q95 0 162.5 -67.5t67.5 -162.5t-67.5 -162t-162.5 -67t-162 67t-67 162t67 162.5t162 67.5zM269 628q23 0 38.5 -16t15.5 -38t-15.5 -38
t-38.5 -16t-38.5 16t-15.5 38t15.5 38t38.5 16z" />
    <glyph glyph-name="uni0232" unicode="&#x232;" horiz-adv-x="596" 
d="M255 0q0 7 0.5 53.5t0.5 66.5v184l-159 271l-39 63.5t-37 61.5h108l44 -77l94 -160q32 -55 32 -69h4q0 9 33 69l91 161l42 76h106l-71 -123l-153 -270v-187q0 -20 0.5 -66.5t0.5 -53.5h-97zM185 872q3 0 27 -0.5t33 -0.5h110q9 0 33 0.5t27 0.5v-66q-3 0 -27 0.5t-33 0.5
h-110q-9 0 -33 -0.5t-27 -0.5v66z" />
    <glyph glyph-name="uni0233" unicode="&#x233;" horiz-adv-x="500" 
d="M494 435l-67 -130l-218 -438l-43 -87h-96q16 34 64 127l82 164l-136 236l-38 65.5l-36 62.5h101l11.5 -20.5l18 -32l16.5 -29.5l65 -115q38 -66 40 -91h4q2 24 37 91l54 108q9 17 24 49t19 40h98zM129 607q3 0 27 -0.5t33 -0.5h110q9 0 33 0.5t27 0.5v-66q-3 0 -27 0.5
t-33 0.5h-110q-9 0 -33 -0.5t-27 -0.5v66z" />
    <glyph glyph-name="dotlessj" unicode="&#x237;" horiz-adv-x="250" 
d="M-12 -232v88q40 0 66 27.5t26 74.5v357q0 19 -0.5 66t-0.5 54h92q0 -7 -0.5 -54t-0.5 -66v-357q0 -88 -51.5 -139t-130.5 -51z" />
    <glyph glyph-name="uni0245" unicode="&#x245;" 
d="M359 738l287 -629q7 -16 27 -58.5t23 -50.5h-103q-16 38 -31 70l-175 383q-25 54 -25 75h-4q0 -21 -24 -75l-170 -383q-15 -32 -31 -70h-103l50 109z" />
    <glyph glyph-name="apostrophe" unicode="&#x2bc;" horiz-adv-x="266" 
d="M90 709v86h86v-109q0 -35 -28 -69l-22 -25l-34 30l22 25q16 20 16 39v23h-40z" />
    <glyph glyph-name="circumflex" unicode="&#x2c6;" horiz-adv-x="376" 
d="M188 583l-67 -67l-40 40l107 106l107 -106l-40 -40z" />
    <glyph glyph-name="caron" unicode="&#x2c7;" horiz-adv-x="376" 
d="M121 643l67 -67l67 67l40 -40l-107 -106l-107 106z" />
    <glyph glyph-name="breve" unicode="&#x2d8;" horiz-adv-x="390" 
d="M272 640l60 -16q-13 -46 -49.5 -71.5t-87.5 -25.5t-87.5 25.5t-49.5 71.5l60 16q16 -55 77 -55t77 55z" />
    <glyph glyph-name="dotaccent" unicode="&#x2d9;" horiz-adv-x="390" 
d="M195 628q23 0 38.5 -16t15.5 -38t-15.5 -38t-38.5 -16t-38.5 16t-15.5 38t15.5 38t38.5 16z" />
    <glyph glyph-name="ring" unicode="&#x2da;" horiz-adv-x="400" 
d="M200 700q43 0 73.5 -29.5t30.5 -70.5t-30.5 -70.5t-73.5 -29.5t-73.5 29.5t-30.5 70.5t30.5 70.5t73.5 29.5zM200 644q-18 0 -31 -13t-13 -31t13 -31t31 -13t31 13t13 31t-13 31t-31 13z" />
    <glyph glyph-name="ogonek" unicode="&#x2db;" horiz-adv-x="450" 
d="M186 42l51 -42q-21 -32 -21 -56q0 -14 8.5 -24t23.5 -10q19 0 46 10l22 -63q-31 -17 -68 -17q-56 0 -82 30.5t-26 73.5q0 48 46 98z" />
    <glyph glyph-name="tilde" unicode="&#x2dc;" horiz-adv-x="512" 
d="M142 494l-62 10q8 45 47.5 73t84.5 23l96 -13q21 -3 39.5 11t22.5 37l62 -10q-8 -45 -47.5 -73t-84.5 -23l-96 13q-21 3 -39.5 -11t-22.5 -37z" />
    <glyph glyph-name="hungarumlaut" unicode="&#x2dd;" horiz-adv-x="410" 
d="M113 523l-36 30l99 121l47 -38zM239 523l-36 30l99 121l47 -38z" />
    <glyph glyph-name="uni0311" unicode="&#x311;" horiz-adv-x="390" 
d="M121 520l-68 19q14 48 52 75t90 27t90 -27t52 -75l-68 -19q-15 51 -74 51t-74 -51z" />
    <glyph glyph-name="delta" unicode="&#x3b4;" horiz-adv-x="539" 
d="M213 800l57 -106l205 -374q24 -45 24 -103q0 -95 -67.5 -162t-162.5 -67t-162 67t-67 162t67 162.5t162 67.5q29 0 52 -13l2 3q-20 13 -40 49l-91 166l-58 105zM269 363q-58 0 -98.5 -42.5t-40.5 -103.5q0 -60 40.5 -102.5t98.5 -42.5t99 42.5t41 102.5q0 61 -41 103.5
t-99 42.5z" />
    <glyph glyph-name="pi" unicode="&#x3c0;" horiz-adv-x="595" 
d="M373 359h-151v-239q0 -20 0.5 -66.5t0.5 -53.5h-92q0 7 0.5 53.5t0.5 66.5v239q-20 0 -58 -0.5t-44 -0.5v78q7 0 53.5 -0.5t66.5 -0.5h295q19 0 66 0.5t54 0.5v-78q-6 0 -44 0.5t-58 0.5v-239q0 -20 0.5 -66.5t0.5 -53.5h-92q0 7 0.5 53.5t0.5 66.5v239z" />
    <glyph glyph-name="uni1E02" unicode="&#x1e02;" horiz-adv-x="520" 
d="M50 0v700h204q78 0 133.5 -55t55.5 -133q0 -48 -21.5 -84.5t-56.5 -50.5v-4q48 -12 81.5 -60.5t33.5 -109.5q0 -84 -59.5 -143.5t-143.5 -59.5h-227zM269 320h-124v-232h124q48 0 82 34t34 81q0 49 -34 83t-82 34zM351 512q0 44 -31.5 75t-75.5 31h-99v-214h99
q44 0 75.5 31.5t31.5 76.5zM223 893q23 0 38.5 -15.5t15.5 -38.5t-15.5 -38.5t-38.5 -15.5t-38.5 15.5t-15.5 38.5t15.5 38.5t38.5 15.5z" />
    <glyph glyph-name="uni1E03" unicode="&#x1e03;" horiz-adv-x="555" 
d="M74 795h92q0 -7 -0.5 -54t-0.5 -66v-224q0 -32 -5 -44l4 -2q44 42 125 42q96 0 156 -63t60 -164t-64.5 -166.5t-167.5 -65.5q-109 0 -198 74v613q0 19 -0.5 66t-0.5 54zM165 304v-200q48 -32 108 -32q63 0 102.5 42t39.5 106t-36 103.5t-94 39.5q-43 0 -74 -18.5
t-46 -40.5zM309 628q23 0 38.5 -16t15.5 -38t-15.5 -38t-38.5 -16t-38.5 16t-15.5 38t15.5 38t38.5 16z" />
    <glyph glyph-name="uni1E08" unicode="&#x1e08;" 
d="M633 165l64 -65q-115 -120 -287 -120q-153 0 -261.5 108.5t-108.5 261.5t108.5 261.5t261.5 108.5q82 0 154 -33.5t124 -92.5l-68 -62q-38 47 -93 73.5t-117 26.5q-114 0 -194.5 -82.5t-80.5 -199.5t80.5 -199.5t194.5 -82.5q134 0 223 97zM419 -37l-76 -113l51 -37
l91 100zM393 758l-41 32l120 151l81 -45z" />
    <glyph glyph-name="uni1E09" unicode="&#x1e09;" horiz-adv-x="478" 
d="M226 523l-41 32l120 151l81 -45zM260 447q59 0 104 -27.5t72 -65.5l-69 -54q-40 63 -107 63q-54 0 -92 -42.5t-38 -103.5q0 -60 38 -102.5t92 -42.5q75 0 120 64l64 -60q-75 -88 -184 -88q-91 0 -155.5 67.5t-64.5 161.5q0 95 64.5 162.5t155.5 67.5zM246 -37l-76 -113
l51 -37l91 100z" />
    <glyph glyph-name="uni1E0A" unicode="&#x1e0a;" horiz-adv-x="645" 
d="M50 0v700h195q149 0 254.5 -102.5t105.5 -247.5t-99.5 -247.5t-240.5 -102.5h-215zM228 614h-83v-526h104q108 0 184.5 76.5t76.5 185.5q0 110 -82.5 187t-199.5 77zM271 893q23 0 38.5 -15.5t15.5 -38.5t-15.5 -38.5t-38.5 -15.5t-38.5 15.5t-15.5 38.5t15.5 38.5
t38.5 15.5z" />
    <glyph glyph-name="uni1E0B" unicode="&#x1e0b;" horiz-adv-x="555" 
d="M389 795h92q0 -7 -0.5 -54t-0.5 -66v-613q-89 -74 -198 -74q-103 0 -167.5 65.5t-64.5 166.5t60 164t156 63q81 0 125 -42l4 2q-5 12 -5 44v224q0 19 -0.5 66t-0.5 54zM390 104v200q-15 22 -46 40.5t-74 18.5q-58 0 -94 -39.5t-36 -103.5t39.5 -106t102.5 -42
q60 0 108 32zM255 628q23 0 38.5 -16t15.5 -38t-15.5 -38t-38.5 -16t-38.5 16t-15.5 38t15.5 38t38.5 16z" />
    <glyph glyph-name="Wgrave" unicode="&#x1e80;" horiz-adv-x="1000" 
d="M499 496q-2 -27 -30 -100l-162 -426l-244 602q-7 18 -28.5 69t-24.5 59h102l18.5 -47l19.5 -49l126 -312q23 -58 27 -100h4q3 35 28 100l165 428l163 -428q28 -72 30 -100h4q3 32 30 100l127 312l19.5 49l18.5 47h98q-3 -8 -24.5 -59t-28.5 -69l-244 -602l-162 426
q-28 73 -30 100h-2zM588 820l-41 -32l-160 138l81 45z" />
    <glyph glyph-name="wgrave" unicode="&#x1e81;" 
d="M361 279h-4q0 -18 -34 -100l-87 -209l-165 339l-63 126h96q8 -19 43 -91l46 -96q32 -68 35 -100h4q2 21 34 100l90 216l97 -221q34 -82 36 -100h4q3 32 36 102l48 99l43 91h96l-63 -126l-163 -334l-92 204q-35 75 -37 100zM428 555l-41 -32l-160 138l81 45z" />
    <glyph glyph-name="Wacute" unicode="&#x1e82;" horiz-adv-x="1000" 
d="M499 496q-2 -27 -30 -100l-162 -426l-244 602q-7 18 -28.5 69t-24.5 59h102l18.5 -47l19.5 -49l126 -312q23 -58 27 -100h4q3 35 28 100l165 428l163 -428q28 -72 30 -100h4q3 32 30 100l127 312l19.5 49l18.5 47h98q-3 -8 -24.5 -59t-28.5 -69l-244 -602l-162 426
q-28 73 -30 100h-2zM463 788l-41 32l120 151l81 -45z" />
    <glyph glyph-name="wacute" unicode="&#x1e83;" 
d="M361 279h-4q0 -18 -34 -100l-87 -209l-165 339l-63 126h96q8 -19 43 -91l46 -96q32 -68 35 -100h4q2 21 34 100l90 216l97 -221q34 -82 36 -100h4q3 32 36 102l48 99l43 91h96l-63 -126l-163 -334l-92 204q-35 75 -37 100zM323 523l-41 32l120 151l81 -45z" />
    <glyph glyph-name="Wdieresis" unicode="&#x1e84;" horiz-adv-x="1000" 
d="M499 496q-2 -27 -30 -100l-162 -426l-244 602q-7 18 -28.5 69t-24.5 59h102l18.5 -47l19.5 -49l126 -312q23 -58 27 -100h4q3 35 28 100l165 428l163 -428q28 -72 30 -100h4q3 32 30 100l127 312l19.5 49l18.5 47h98q-3 -8 -24.5 -59t-28.5 -69l-244 -602l-162 426
q-28 73 -30 100h-2zM411 893q23 0 38.5 -15.5t15.5 -38.5t-15.5 -38.5t-38.5 -15.5t-38.5 15.5t-15.5 38.5t15.5 38.5t38.5 15.5zM589 893q23 0 38.5 -15.5t15.5 -38.5t-15.5 -38.5t-38.5 -15.5t-38.5 15.5t-15.5 38.5t15.5 38.5t38.5 15.5z" />
    <glyph glyph-name="wdieresis" unicode="&#x1e85;" 
d="M361 279h-4q0 -18 -34 -100l-87 -209l-165 339l-63 126h96q8 -19 43 -91l46 -96q32 -68 35 -100h4q2 21 34 100l90 216l97 -221q34 -82 36 -100h4q3 32 36 102l48 99l43 91h96l-63 -126l-163 -334l-92 204q-35 75 -37 100zM269 628q23 0 38.5 -16t15.5 -38t-15.5 -38
t-38.5 -16t-38.5 16t-15.5 38t15.5 38t38.5 16zM447 628q23 0 38.5 -16t15.5 -38t-15.5 -38t-38.5 -16t-38.5 16t-15.5 38t15.5 38t38.5 16z" />
    <glyph glyph-name="uni1E86" unicode="&#x1e86;" horiz-adv-x="1000" 
d="M499 496q-2 -27 -30 -100l-162 -426l-244 602q-7 18 -28.5 69t-24.5 59h102l18.5 -47l19.5 -49l126 -312q23 -58 27 -100h4q3 35 28 100l165 428l163 -428q28 -72 30 -100h4q3 32 30 100l127 312l19.5 49l18.5 47h98q-3 -8 -24.5 -59t-28.5 -69l-244 -602l-162 426
q-28 73 -30 100h-2zM500 893q22 0 38 -15.5t16 -38.5t-16 -38.5t-38 -15.5t-38 15.5t-16 38.5t16 38.5t38 15.5z" />
    <glyph glyph-name="uni1E87" unicode="&#x1e87;" 
d="M361 279h-4q0 -18 -34 -100l-87 -209l-165 339l-63 126h96q8 -19 43 -91l46 -96q32 -68 35 -100h4q2 21 34 100l90 216l97 -221q34 -82 36 -100h4q3 32 36 102l48 99l43 91h96l-63 -126l-163 -334l-92 204q-35 75 -37 100zM357 628q23 0 38.5 -16t15.5 -38t-15.5 -38
t-38.5 -16t-38.5 16t-15.5 38t15.5 38t38.5 16z" />
    <glyph glyph-name="uni1E8A" unicode="&#x1e8a;" horiz-adv-x="586" 
d="M261 227l-89 -149l-45 -78h-111l79 127l145 238l-128 210l-40 64.5t-37 60.5h110q8 -15 45 -76l71 -119q22 -36 30 -69h4q0 2 3.5 12.5t11 26.5t15.5 30l71 119q9 14 24.5 41t20.5 35h110q-5 -9 -37 -60.5l-40 -64.5l-128 -210l145 -238l79 -127h-111l-45 78l-89 149
q-30 51 -30 69h-4q-6 -28 -30 -69zM293 893q23 0 38.5 -15.5t15.5 -38.5t-15.5 -38.5t-38.5 -15.5t-38.5 15.5t-15.5 38.5t15.5 38.5t38.5 15.5z" />
    <glyph glyph-name="uni1E8B" unicode="&#x1e8b;" horiz-adv-x="495" 
d="M464 435l-97 -119l-63 -78l87 -111l102 -127h-113l-55 71l-15 19q-58 72 -60 98h-4q-2 -24 -61 -98l-14 -18l-55 -72h-114l105 128l89 110l-60 76l-30.5 38.5l-41 52t-23.5 30.5h111l37 -49q53 -69 59 -98h4q1 8 21.5 41t40.5 57l40 49h110zM249 628q23 0 38.5 -16
t15.5 -38t-15.5 -38t-38.5 -16t-38.5 16t-15.5 38t15.5 38t38.5 16z" />
    <glyph glyph-name="uni1E8C" unicode="&#x1e8c;" horiz-adv-x="586" 
d="M261 227l-89 -149l-45 -78h-111l79 127l145 238l-128 210l-40 64.5t-37 60.5h110q8 -15 45 -76l71 -119q22 -36 30 -69h4q0 2 3.5 12.5t11 26.5t15.5 30l71 119q9 14 24.5 41t20.5 35h110q-5 -9 -37 -60.5l-40 -64.5l-128 -210l145 -238l79 -127h-111l-45 78l-89 149
q-30 51 -30 69h-4q-6 -28 -30 -69zM204 893q22 0 38 -15.5t16 -38.5t-16 -38.5t-38 -15.5t-38 15.5t-16 38.5t16 38.5t38 15.5zM382 893q22 0 38 -15.5t16 -38.5t-16 -38.5t-38 -15.5t-38 15.5t-16 38.5t16 38.5t38 15.5z" />
    <glyph glyph-name="uni1E8D" unicode="&#x1e8d;" horiz-adv-x="495" 
d="M464 435l-97 -119l-63 -78l87 -111l102 -127h-113l-55 71l-15 19q-58 72 -60 98h-4q-2 -24 -61 -98l-14 -18l-55 -72h-114l105 128l89 110l-60 76l-30.5 38.5l-41 52t-23.5 30.5h111l37 -49q53 -69 59 -98h4q1 8 21.5 41t40.5 57l40 49h110zM162 628q22 0 38 -16t16 -38
t-16 -38t-38 -16t-38 16t-16 38t16 38t38 16zM340 628q22 0 38 -16t16 -38t-16 -38t-38 -16t-38 16t-16 38t16 38t38 16z" />
    <glyph glyph-name="uni1E8E" unicode="&#x1e8e;" horiz-adv-x="596" 
d="M255 0q0 7 0.5 53.5t0.5 66.5v184l-159 271l-39 63.5t-37 61.5h108l44 -77l94 -160q32 -55 32 -69h4q0 9 33 69l91 161l42 76h106l-71 -123l-153 -270v-187q0 -20 0.5 -66.5t0.5 -53.5h-97zM299 893q23 0 38.5 -15.5t15.5 -38.5t-15.5 -38.5t-38.5 -15.5t-38.5 15.5
t-15.5 38.5t15.5 38.5t38.5 15.5z" />
    <glyph glyph-name="uni1E8F" unicode="&#x1e8f;" horiz-adv-x="500" 
d="M494 435l-67 -130l-218 -438l-43 -87h-96q16 34 64 127l82 164l-136 236l-38 65.5l-36 62.5h101l11.5 -20.5l18 -32l16.5 -29.5l65 -115q38 -66 40 -91h4q2 24 37 91l54 108q9 17 24 49t19 40h98zM247 628q23 0 38.5 -16t15.5 -38t-15.5 -38t-38.5 -16t-38.5 16t-15.5 38
t15.5 38t38.5 16z" />
    <glyph glyph-name="uni1E90" unicode="&#x1e90;" horiz-adv-x="550" 
d="M262 78h131q19 0 66 0.5t54 0.5v-80q-7 0 -54 0.5t-66 0.5h-373l310 539q44 76 63 85l-2 4q-14 -6 -107 -6h-88q-20 0 -66 -0.5t-54 -0.5v80q8 0 54 -0.5t66 -0.5h330l-309 -539q-17 -29 -37 -55.5t-27 -29.5l2 -4q13 6 107 6zM288 848l-67 -67l-40 40l107 106l107 -106
l-40 -40z" />
    <glyph glyph-name="uni1E91" unicode="&#x1e91;" horiz-adv-x="483" 
d="M238 74h91q19 0 65.5 0.5t54.5 0.5v-76q-8 0 -54.5 0.5t-65.5 0.5h-314l254 316q29 36 53 48l-1 4q-15 -5 -77 -5h-61q-19 0 -66 -0.5t-54 -0.5v74q7 0 54 -0.5t66 -0.5h285l-255 -314q-31 -39 -53 -48l1 -4q15 5 77 5zM248 583l-67 -67l-40 40l107 106l107 -106l-40 -40
z" />
    <glyph glyph-name="uni1E9E" unicode="&#x1e9e;" horiz-adv-x="700" 
d="M255 61l59 73q42 -58 115 -58q58 0 99 42t41 104q0 66 -49.5 111t-120.5 45q-72 0 -116 -44l183 271q-52 27 -140 27q-181 0 -181 -174v-338q0 -20 0.5 -66.5t0.5 -53.5h-97q0 7 0.5 53.5t0.5 66.5v360q0 120 76.5 180t199.5 60q154 0 270 -78l-131 -196q81 -9 140 -72
t59 -152q0 -99 -68.5 -166.5t-166.5 -67.5q-56 0 -101.5 22t-72.5 51z" />
    <glyph glyph-name="Ygrave" unicode="&#x1ef2;" horiz-adv-x="596" 
d="M255 0q0 7 0.5 53.5t0.5 66.5v184l-159 271l-39 63.5t-37 61.5h108l44 -77l94 -160q32 -55 32 -69h4q0 9 33 69l91 161l42 76h106l-71 -123l-153 -270v-187q0 -20 0.5 -66.5t0.5 -53.5h-97zM378 820l-41 -32l-160 138l81 45z" />
    <glyph glyph-name="ygrave" unicode="&#x1ef3;" horiz-adv-x="500" 
d="M494 435l-67 -130l-218 -438l-43 -87h-96q16 34 64 127l82 164l-136 236l-38 65.5l-36 62.5h101l11.5 -20.5l18 -32l16.5 -29.5l65 -115q38 -66 40 -91h4q2 24 37 91l54 108q9 17 24 49t19 40h98zM315 555l-41 -32l-160 138l81 45z" />
    <glyph glyph-name="uni1EF8" unicode="&#x1ef8;" horiz-adv-x="596" 
d="M255 0q0 7 0.5 53.5t0.5 66.5v184l-159 271l-39 63.5t-37 61.5h108l44 -77l94 -160q32 -55 32 -69h4q0 9 33 69l91 161l42 76h106l-71 -123l-153 -270v-187q0 -20 0.5 -66.5t0.5 -53.5h-97zM190 759l-62 10q8 45 47.5 73t84.5 23l96 -13q21 -3 39.5 11t22.5 37l62 -10
q-8 -45 -47.5 -73t-84.5 -23l-96 13q-21 3 -39.5 -11t-22.5 -37z" />
    <glyph glyph-name="uni1EF9" unicode="&#x1ef9;" horiz-adv-x="500" 
d="M494 435l-67 -130l-218 -438l-43 -87h-96q16 34 64 127l82 164l-136 236l-38 65.5l-36 62.5h101l11.5 -20.5l18 -32l16.5 -29.5l65 -115q38 -66 40 -91h4q2 24 37 91l54 108q9 17 24 49t19 40h98zM142 494l-62 10q8 45 47.5 73t84.5 23l96 -13q21 -3 39.5 11t22.5 37
l62 -10q-8 -45 -47.5 -73t-84.5 -23l-96 13q-21 3 -39.5 -11t-22.5 -37z" />
    <glyph glyph-name="endash" unicode="&#x2013;" horiz-adv-x="1110" 
d="M320 368h470q20 0 66 0.5t54 0.5v-86q-8 0 -54 0.5t-66 0.5h-470q-20 0 -66 -0.5t-54 -0.5v86q8 0 54 -0.5t66 -0.5z" />
    <glyph glyph-name="emdash" unicode="&#x2014;" horiz-adv-x="1350" 
d="M320 368h710q20 0 66 0.5t54 0.5v-86q-8 0 -54 0.5t-66 0.5h-710q-20 0 -66 -0.5t-54 -0.5v86q8 0 54 -0.5t66 -0.5z" />
    <glyph glyph-name="quoteleft" unicode="&#x2018;" horiz-adv-x="266" 
d="M176 678v-86h-86v109q0 35 28 69l22 25l34 -30l-22 -25q-16 -20 -16 -39v-23h40z" />
    <glyph glyph-name="quoteright" unicode="&#x2019;" horiz-adv-x="266" 
d="M90 709v86h86v-109q0 -35 -28 -69l-22 -25l-34 30l22 25q16 20 16 39v23h-40z" />
    <glyph glyph-name="quotesinglbase" unicode="&#x201a;" horiz-adv-x="266" 
d="M90 0v86h86v-109q0 -35 -28 -69l-22 -25l-34 30l22 25q16 20 16 39v23h-40z" />
    <glyph glyph-name="quotedblleft" unicode="&#x201c;" horiz-adv-x="540" 
d="M462 689l-107 -241l-69 37l131 225zM290 703l-121 -236l-70 39l147 221z" />
    <glyph glyph-name="quotedblright" unicode="&#x201d;" horiz-adv-x="540" 
d="M185 448l-107 241l45 21l131 -225zM371 467l-121 236l44 24l147 -221z" />
    <glyph glyph-name="quotedblbase" unicode="&#x201e;" horiz-adv-x="535" 
d="M185 -142l-107 241l45 21l131 -225zM371 -123l-121 236l44 24l147 -221z" />
    <glyph glyph-name="dagger" unicode="&#x2020;" horiz-adv-x="590" 
d="M250 483v192q0 19 -0.5 66t-0.5 54h92q0 -7 -0.5 -54t-0.5 -66v-192h85q20 0 66.5 0.5t53.5 0.5v-90q-7 0 -53.5 0.5t-66.5 0.5h-85v-495q0 -20 0.5 -66t0.5 -54h-92q0 8 0.5 54t0.5 66v495h-85q-19 0 -65.5 -0.5t-54.5 -0.5v90q8 0 54.5 -0.5t65.5 -0.5h85z" />
    <glyph glyph-name="daggerdbl" unicode="&#x2021;" horiz-adv-x="590" 
d="M340 95v-195q0 -20 0.5 -66t0.5 -54h-92q0 8 0.5 54t0.5 66v195h-85q-19 0 -65.5 -0.5t-54.5 -0.5v90q8 0 54.5 -0.5t65.5 -0.5h85v212h-85q-19 0 -65.5 -0.5t-54.5 -0.5v90q8 0 54.5 -0.5t65.5 -0.5h85v192q0 19 -0.5 66t-0.5 54h92q0 -7 -0.5 -54t-0.5 -66v-192h85
q20 0 66.5 0.5t53.5 0.5v-90q-7 0 -53.5 0.5t-66.5 0.5h-85v-212h85q20 0 66.5 0.5t53.5 0.5v-90q-7 0 -53.5 0.5t-66.5 0.5h-85z" />
    <glyph glyph-name="bullet" unicode="&#x2022;" horiz-adv-x="460" 
d="M230 400q50 0 85 -35t35 -85t-35 -85t-85 -35t-85 35t-35 85t35 85t85 35z" />
    <glyph glyph-name="ellipsis" unicode="&#x2026;" horiz-adv-x="628" 
d="M114 96q22 0 38 -16t16 -38t-16 -38t-38 -16t-38 16t-16 38t16 38t38 16zM314 96q22 0 38 -16t16 -38t-16 -38t-38 -16t-38 16t-16 38t16 38t38 16zM514 96q22 0 38 -16t16 -38t-16 -38t-38 -16t-38 16t-16 38t16 38t38 16z" />
    <glyph glyph-name="perthousand" unicode="&#x2030;" horiz-adv-x="836" 
d="M163 730q56 0 95.5 -38t39.5 -92t-39.5 -92t-95.5 -38t-95.5 38t-39.5 92t39.5 92t95.5 38zM163 664q-26 0 -44.5 -19t-18.5 -45t18.5 -45t44.5 -19t44.5 19t18.5 45t-18.5 45t-44.5 19zM453 751l71 -40l-61 -103l-321 -555q-8 -13 -59 -104l-71 40l61 103l321 555
q8 13 59 104zM373 230q56 0 95.5 -38t39.5 -92t-39.5 -92t-95.5 -38t-95.5 38t-39.5 92t39.5 92t95.5 38zM373 164q-26 0 -44.5 -19t-18.5 -45t18.5 -45t44.5 -19t44.5 19t18.5 45t-18.5 45t-44.5 19zM673 230q56 0 95.5 -38t39.5 -92t-39.5 -92t-95.5 -38t-95.5 38
t-39.5 92t39.5 92t95.5 38zM673 164q-26 0 -44.5 -19t-18.5 -45t18.5 -45t44.5 -19t44.5 19t18.5 45t-18.5 45t-44.5 19z" />
    <glyph glyph-name="guilsinglleft" unicode="&#x2039;" horiz-adv-x="280" 
d="M197 469l50 -36q-14 -20 -70 -94l-78 -107l78 -107q56 -74 70 -94l-50 -36l-70 98l-101 139l101 139z" />
    <glyph glyph-name="guilsinglright" unicode="&#x203a;" horiz-adv-x="280" 
d="M33 433l50 36l70 -98l101 -139l-101 -139l-70 -98l-50 36q14 20 70 94l78 107l-78 107q-56 74 -70 94z" />
    <glyph glyph-name="zerosuperior" unicode="&#x2070;" horiz-adv-x="310" 
d="M155 766q62 0 100 -52t38 -129t-38 -129t-100 -52t-100 52t-38 129t38 129t100 52zM155 694q-28 0 -44 -31t-16 -78t16 -78t44 -31t44 31t16 78t-16 78t-44 31z" />
    <glyph glyph-name="foursuperior" unicode="&#x2074;" horiz-adv-x="310" 
d="M0 463l257 308v-244q10 0 25 0.5t18 0.5v-66q-3 0 -18 0.5t-25 0.5q0 -12 0.5 -31t0.5 -22h-74q0 3 0.5 22t0.5 31h-185zM135 527h50v60z" />
    <glyph glyph-name="fivesuperior" unicode="&#x2075;" horiz-adv-x="310" 
d="M206 688h-48l-10 -30q55 0 94 -37t39 -87q0 -54 -41 -92t-99 -38q-44 0 -78.5 23.5t-54.5 52.5l59 48q30 -52 74 -52q26 0 44 17t18 41t-18 41t-44 17q-35 0 -66 -36l-31 12l59 192h103q14 0 35.5 0.5t24.5 0.5v-74q-4 0 -27.5 0.5t-32.5 0.5z" />
    <glyph glyph-name="sixsuperior" unicode="&#x2076;" horiz-adv-x="310" 
d="M234 760l-40 -57l-23 -32q-9 -12 -18 -17l1 -2q11 4 23 3q48 -5 81 -41t33 -83q0 -53 -39.5 -90t-97.5 -37q-57 0 -96.5 37t-39.5 90q0 50 37 102l58 82q5 6 14.5 21.5t15.5 23.5h91zM154 586q-24 0 -41 -16t-17 -39t17 -39t41 -16q25 0 42 16t17 39t-17 39t-42 16z" />
    <glyph glyph-name="sevensuperior" unicode="&#x2077;" horiz-adv-x="310" 
d="M310 760l-198 -306l-39 -59l-68 39q24 33 43 63l129 191h-103q-9 0 -32.5 -0.5t-27.5 -0.5v74q3 0 24.5 -0.5t35.5 -0.5h236z" />
    <glyph glyph-name="eightsuperior" unicode="&#x2078;" horiz-adv-x="310" 
d="M155 766q49 0 84 -30.5t35 -74.5q0 -40 -31 -68q41 -32 41 -78q0 -47 -36 -79t-93 -32t-93 32t-36 79q0 46 41 78q-31 28 -31 68q0 44 35 74.5t84 30.5zM155 556q-20 0 -34.5 -12t-14.5 -29q0 -16 14.5 -27.5t34.5 -11.5t34.5 11.5t14.5 27.5q0 17 -14.5 29t-34.5 12z
M155 694q-17 0 -29 -9.5t-12 -23.5q0 -15 12 -26t29 -11t29 11t12 26q0 14 -12 23.5t-29 9.5z" />
    <glyph glyph-name="ninesuperior" unicode="&#x2079;" horiz-adv-x="310" 
d="M155 766q54 0 92 -36t38 -86q0 -40 -24 -70l-121 -155l-19 -25l-63 42q8 10 22 26l40 51q5 6 19 16l-1 2q-12 -5 -26 -1q-39 11 -63 42.5t-24 71.5q0 50 38 86t92 36zM155 694q-22 0 -37 -14.5t-15 -35.5t15 -35.5t37 -14.5t37 14.5t15 35.5t-15 35.5t-37 14.5z" />
    <glyph glyph-name="zeroinferior" unicode="&#x2080;" horiz-adv-x="310" 
d="M155 266q62 0 100 -52t38 -129t-38 -129t-100 -52t-100 52t-38 129t38 129t100 52zM155 194q-28 0 -44 -31t-16 -78t16 -78t44 -31t44 31t16 78t-16 78t-44 31z" />
    <glyph glyph-name="oneinferior" unicode="&#x2081;" horiz-adv-x="310" 
d="M62 188l42 72h101v-290q0 -10 0.5 -33.5t0.5 -26.5h-82q0 3 0.5 26.5t0.5 33.5v218h-63z" />
    <glyph glyph-name="twoinferior" unicode="&#x2082;" horiz-adv-x="310" 
d="M12 -90l151 182q33 38 33 60q0 18 -11.5 30t-30.5 12q-20 0 -33 -16t-13 -40h-78q0 53 36 90.5t88 37.5t86 -33t34 -81q0 -42 -38 -90l-33 -40q-22 -30 -41 -40l1 -2q10 2 57 2q14 0 35.5 0.5t24.5 0.5v-74q-4 0 -27.5 0.5t-32.5 0.5h-208z" />
    <glyph glyph-name="threeinferior" unicode="&#x2083;" horiz-adv-x="310" 
d="M158 266q47 0 80 -30.5t33 -73.5q0 -54 -38 -65v-4q47 -16 47 -76q0 -47 -35.5 -80t-90.5 -33q-50 0 -84 33.5t-39 85.5h74q2 -21 17 -34t32 -13q21 0 34.5 11t13.5 30q0 18 -10 30.5t-28 12.5h-27v65h24q32 0 32 37q0 14 -10 23t-25 9t-25.5 -13t-10.5 -31h-77
q0 48 32.5 82t80.5 34z" />
    <glyph glyph-name="fourinferior" unicode="&#x2084;" horiz-adv-x="310" 
d="M0 -37l257 308v-244q10 0 25 0.5t18 0.5v-66q-3 0 -18 0.5t-25 0.5q0 -12 0.5 -31t0.5 -22h-74q0 3 0.5 22t0.5 31h-185zM135 27h50v60z" />
    <glyph glyph-name="fiveinferior" unicode="&#x2085;" horiz-adv-x="310" 
d="M206 188h-48l-10 -30q55 0 94 -37t39 -87q0 -54 -41 -92t-99 -38q-44 0 -78.5 23.5t-54.5 52.5l59 48q30 -52 74 -52q26 0 44 17t18 41t-18 41t-44 17q-35 0 -66 -36l-31 12l59 192h103q14 0 35.5 0.5t24.5 0.5v-74q-4 0 -27.5 0.5t-32.5 0.5z" />
    <glyph glyph-name="sixinferior" unicode="&#x2086;" horiz-adv-x="310" 
d="M234 260l-40 -57l-23 -32q-9 -12 -18 -17l1 -2q11 4 23 3q48 -5 81 -41t33 -83q0 -53 -39.5 -90t-97.5 -37q-57 0 -96.5 37t-39.5 90q0 50 37 102l58 82q5 6 14.5 21.5t15.5 23.5h91zM154 86q-24 0 -41 -16t-17 -39t17 -39t41 -16q25 0 42 16t17 39t-17 39t-42 16z" />
    <glyph glyph-name="seveninferior" unicode="&#x2087;" horiz-adv-x="310" 
d="M310 260l-198 -306l-39 -59l-68 39q24 33 43 63l129 191h-103q-9 0 -32.5 -0.5t-27.5 -0.5v74q3 0 24.5 -0.5t35.5 -0.5h236z" />
    <glyph glyph-name="eightinferior" unicode="&#x2088;" horiz-adv-x="310" 
d="M155 266q49 0 84 -30.5t35 -74.5q0 -40 -31 -68q41 -32 41 -78q0 -47 -36 -79t-93 -32t-93 32t-36 79q0 46 41 78q-31 28 -31 68q0 44 35 74.5t84 30.5zM155 56q-20 0 -34.5 -12t-14.5 -29q0 -16 14.5 -27.5t34.5 -11.5t34.5 11.5t14.5 27.5q0 17 -14.5 29t-34.5 12z
M155 194q-17 0 -29 -9.5t-12 -23.5q0 -15 12 -26t29 -11t29 11t12 26q0 14 -12 23.5t-29 9.5z" />
    <glyph glyph-name="nineinferior" unicode="&#x2089;" horiz-adv-x="310" 
d="M155 266q54 0 92 -36t38 -86q0 -40 -24 -70l-121 -155l-19 -25l-63 42q8 10 22 26l40 51q5 6 19 16l-1 2q-12 -5 -26 -1q-39 11 -63 42.5t-24 71.5q0 50 38 86t92 36zM155 194q-22 0 -37 -14.5t-15 -35.5t15 -35.5t37 -14.5t37 14.5t15 35.5t-15 35.5t-37 14.5z" />
    <glyph glyph-name="lira" unicode="&#x20a4;" horiz-adv-x="535" 
d="M480 546l-88 -16q-7 42 -37.5 68t-84.5 26q-48 0 -84.5 -28.5t-36.5 -84.5q0 -25 12 -61h75q20 0 66 0.5t54 0.5v-86q-8 0 -54 0.5t-66 0.5h-42q14 -39 20 -76h22q20 0 66 0.5t54 0.5v-86q-8 0 -54 0.5t-66 0.5h-24q-6 -31 -19 -58q-17 -30 -38 -44l1 -3q22 10 46 10
q37 0 100 -21q42 -14 63 -14q38 0 97 32l35 -83q-66 -37 -132 -37q-36 0 -93 19q-55 19 -88 19q-51 0 -115 -38l-44 77q36 19 61.5 58t34.5 83q-21 0 -58 -0.5t-43 -0.5v86q5 0 43.5 -0.5t59.5 -0.5q-6 26 -26 76q-31 -1 -77 -1v86q3 0 19.5 -0.5t27.5 -0.5q-8 30 -8 61
q0 99 63.5 150t147.5 51q93 0 144.5 -45.5t65.5 -120.5z" />
    <glyph glyph-name="Euro" unicode="&#x20ac;" horiz-adv-x="765" 
d="M721 612l-60 -63q-80 83 -191 83q-76 0 -139.5 -38.5t-99.5 -103.5h256q19 0 66 0.5t54 0.5l-83 -86q-8 0 -54 0.5t-66 0.5h-204q-5 -30 -5 -56v-20h139q20 0 66.5 0.5t53.5 0.5l-83 -86q-7 0 -54 0.5t-66 0.5h-37q30 -80 100 -129t156 -49q111 0 191 82l64 -62
q-105 -108 -255 -108q-125 0 -223 74.5t-132 191.5q-34 -1 -85 -1v86q3 0 28 -0.5t42 -0.5v20q0 31 4 56q-30 -1 -74 -1v86q5 0 40.5 -0.5t56.5 -0.5q43 103 135.5 166.5t207.5 63.5q148 0 251 -108z" />
    <glyph glyph-name="trademark" unicode="&#x2122;" horiz-adv-x="670" 
d="M571 717l71 -300l15 -67h-69q-1 6 -5 25l-6 29l-21 92q-8 38 -5 55h-2q-12 -36 -18 -47l-87 -167l-84 164q-13 25 -20 50l-2 -1q2 -9 -6 -46l-22 -100l-10 -54h-70q13 52 16 66l69 301l104 -195q25 -46 25 -56h2q3 16 24 57zM229 701v-68q-3 0 -26.5 0.5t-33.5 0.5h-15
v-224q0 -10 0.5 -33.5t0.5 -26.5h-70q0 3 0.5 26.5t0.5 33.5v224h-15q-10 0 -33.5 -0.5t-26.5 -0.5v68q3 0 26.5 -0.5t33.5 -0.5h98q10 0 33.5 0.5t26.5 0.5z" />
    <glyph glyph-name="Ohm" unicode="&#x2126;" horiz-adv-x="820" 
d="M410 720q153 0 261.5 -105t108.5 -253q0 -147 -103 -244q-22 -20 -42 -31l1 -4q20 5 68 5q20 0 42.5 0.5t28.5 0.5v-90q-8 0 -54.5 0.5t-65.5 0.5h-190v80q98 31 161.5 106.5t63.5 175.5q0 112 -82 191t-198 79t-198 -79t-82 -191q0 -100 63.5 -175.5t161.5 -106.5v-80
h-190q-19 0 -65.5 -0.5t-54.5 -0.5v90q6 0 28.5 -0.5t42.5 -0.5q48 0 68 -5l1 4q-20 11 -42 31q-103 97 -103 244q0 148 108.5 253t261.5 105z" />
    <glyph glyph-name="uni2206" unicode="&#x2206;" 
d="M359 738l287 -629q7 -16 27 -58.5t23 -50.5h-666l50 109zM362 528h-4q0 -21 -24 -75l-151 -341q-10 -22 -17 -26l2 -4q6 6 35 6h319q26 0 35 -6l2 4q-6 3 -16 26l-156 341q-25 54 -25 75z" />
    <glyph glyph-name="minus" unicode="&#x2212;" horiz-adv-x="536" 
d="M190 410h156q20 0 66 0.5t54 0.5v-86q-8 0 -54 0.5t-66 0.5h-156q-20 0 -66 -0.5t-54 -0.5v86q8 0 54 -0.5t66 -0.5z" />
    <glyph glyph-name="infinity" unicode="&#x221e;" horiz-adv-x="902" 
d="M433 415q46 67 96.5 104.5t120.5 37.5q83 0 142.5 -64t59.5 -153q0 -90 -59.5 -153.5t-142.5 -63.5q-70 0 -120.5 37t-96.5 103q-41 -57 -86 -88.5t-107 -31.5q-80 0 -136 57.5t-56 139.5q0 81 56.5 139t135.5 58q62 0 107 -32t86 -90zM482 340q42 -64 80.5 -98.5
t87.5 -34.5q47 0 79.5 38.5t32.5 94.5q0 55 -32.5 94t-79.5 39q-49 0 -87 -34.5t-81 -98.5zM385 340q-77 113 -145 113q-43 0 -72.5 -33t-29.5 -80q0 -48 29.5 -80.5t72.5 -32.5q69 0 145 113z" />
    <glyph glyph-name="uni261A" unicode="&#x261a;" horiz-adv-x="1130" 
d="M867 493l153 11l38 -70l-43 -28l63 -100q-15 -19 -23 -27l40 -163q0 -6 -6 -5l-148 15l-38 73l-30 -4l-41 82l-16 -1q-84 -77 -152 -77q-20 0 -70 9t-78 9q-29 0 -92.5 -13.5t-94.5 -13.5q-55 0 -86 28l-9 8q-5 5 0 9q11 7 13 11q12 25 39 34t72 11q29 2 98 -1
q26 19 58.5 33.5t49.5 14.5q6 0 6 3t-7 4q-44 10 -95 -39q-87 0 -169 -15l-15 25q-7 11 3 21l37 42l34 1q7 0 13 -4q13 -11 29 -35l-15 -25q-4 -6 1 -6q2 1 5 3l19 16q24 -11 35 -14q5 -1 5.5 1t-2.5 5l-39 33v3q-1 1 -0.5 2t4.5 0l43 -4q5 -10 21 -23q8 -7 8 -3q0 2 -2 6
q-16 27 -29 60q-6 11 -7 -2q0 -16 3 -24q1 -4 0 -4.5t-5 0.5q-43 8 -87 28q-66 -15 -121 -15q-11 0 -30 2.5t-30 2.5h-42q-59 0 -87 46q-4 7 -7 10q-1 1 -5.5 2t-6.5 2q-6 5 5 7q17 3 72 5q15 0 6 -9l-7 -7q-5 -5 1 -5q2 0 7 2q16 5 29 20q70 7 148 20q42 -2 63 -2
q29 0 71 10.5t59 10.5q34 0 127 -20.5t170 -22.5l14 18l70 8zM888 455l-68 7q64 -124 60 -251l61 -4q5 140 -53 248zM545 205q13 0 25 -3q6 -2 6 -7q0 -17 -22 -22q-3 -1 -5 1q-1 2 -2.5 11t-3.5 13q-2 7 2 7zM497 204l29 1q6 0 8 -13q2 -12 -4.5 -23t-18.5 -11q-5 0 -5 5
q0 14 -11 34q-4 7 2 7zM485 197q11 -27 4 -50q-3 -6 -7 -5q-15 2 -49.5 15.5t-50.5 27.5q-4 4 4 5q68 6 91 12q5 2 8 -5zM301 259q-10 0 -10 -3q0 -2 6 -2q17 0 31.5 -10t14.5 -22q0 -10 -17 -19q-4 -2 -2 -5q1 -2 6 0q25 9 25 31q0 30 -54 30z" />
    <glyph glyph-name="uni261B" unicode="&#x261b;" horiz-adv-x="1130" 
d="M110 504l153 -11l3 -15l70 -8l14 -18q77 2 170 22.5t127 20.5q17 0 59 -10.5t71 -10.5q21 0 63 2q78 -13 148 -20q13 -15 29 -20q11 -4 10 0q0 1 -2 3l-7 7q-9 9 6 9q55 -2 72 -5q11 -2 5 -7q-1 -1 -6 -2t-6 -2q-3 -3 -7 -10q-28 -46 -87 -46h-42q-11 0 -30 -2.5
t-30 -2.5q-55 0 -121 15q-44 -20 -87 -28q-5 -1 -5.5 0t0.5 4q3 8 3 24q0 11 -1.5 11t-5.5 -9q-13 -33 -29 -60q-4 -7 -2 -7.5t8 4.5q16 13 21 23l43 4q4 1 4.5 0t-0.5 -2v-3l-39 -33q-7 -7 0 -7q1 1 3 1q11 3 35 14l19 -16q6 -5 7 -1q0 2 -1 4l-15 25q16 24 29 35q6 4 13 4
l34 -1l37 -42q10 -10 3 -21l-15 -25q-82 15 -169 15q-51 49 -95 39q-7 -1 -7 -4t6 -3q17 0 49.5 -14.5t58.5 -33.5q69 3 98 1q45 -2 72 -11t39 -34q2 -4 13 -11q5 -4 0 -9l-9 -8q-31 -28 -86 -28q-31 0 -94.5 13.5t-92.5 13.5q-28 0 -78 -9t-70 -9q-68 0 -152 77l-16 1
l-41 -82l-30 4l-38 -73l-148 -15q-6 -1 -6 5l40 163q-8 8 -23 27l63 100l-43 28zM310 462l-68 -7q-58 -108 -53 -248l61 4q-4 127 60 251zM585 205q4 0 2 -7q-2 -4 -3.5 -13t-2.5 -11q-2 -2 -5 -1q-22 5 -22 22q0 5 6 7q12 3 25 3zM604 205l29 -1q6 0 2 -7q-11 -20 -11 -34
q0 -5 -5 -5q-12 0 -18.5 11t-4.5 23q2 13 8 13zM645 197q3 7 8 5q23 -6 91 -12q8 -1 4 -5q-16 -14 -50.5 -27.5t-49.5 -15.5q-4 -1 -7 5q-7 23 4 50zM829 259q-54 0 -54 -30q0 -22 25 -31q5 -2 6 0q2 3 -2 5q-17 9 -17 19q0 12 14.5 22t31.5 10q6 0 6 2q0 3 -10 3z" />
    <glyph glyph-name="uni261C" unicode="&#x261c;" horiz-adv-x="1130" 
d="M538 495q44 0 153 -30.5t144 -37.5l9 33h34q1 2 1 7t0.5 8.5t2.5 3.5q32 4 76 4q58 0 74 -3q4 -1 4 -4q0 -4 -6 -4q-26 0 -115 -21q55 -113 55 -235q0 -39 -3 -58q54 -12 118 -17q5 0 5 -4q0 -3 -4 -4q-46 -8 -116 -8q-19 26 -38 63l-42 5l-41 67q-17 -5 -75 -34.5
t-94 -29.5q-15 0 -37 3.5t-29 4.5v-3l1 -2q0 -16 -23 -16q-11 0 -18 2q0 -2 2 -7t2 -7q0 -4 -3 -4q-14 0 -45 12q1 -5 1 -14q0 -3 -3 -3q-34 1 -72 12t-51 22q-106 2 -142 31q-3 3 -2 9q18 43 71 60q-13 10 -13 28q0 20 30 54q-25 0 -124 11q-63 4 -75 7q-55 12 -69 51l-5 2
q-5 2 -5 4q0 4 4 4q27 4 90 4q4 0 17 2.5t18 2.5h30q45 9 108 9q10 0 34 -1t43 -1q36 0 73 11q40 11 50 11zM892 207l40 -3q6 33 6 69q0 81 -36 169q-24 3 -45 0q39 -65 39 -172q0 -21 -4 -63zM404 402q39 -19 84 -31q2 9 -3 25q-1 2 2 3q2 0 3 -1q16 -17 43 -66
q30 13 63 13q10 0 10 -4q0 -2 -20 -9q-53 -16 -93 -40q-108 -2 -143 -9q-55 -12 -80 -46q19 -19 76 -19q35 0 35 11q0 15 -24 24q-7 2 -7 7q0 2 8 2q12 0 23 -9.5t11 -21.5q0 -9 -16 -21q7 -1 21 -1q19 0 38.5 3.5t47.5 10.5t38 9q15 -2 43 -7t50.5 -8t43.5 -3
q46 0 111.5 29.5t93.5 33.5q7 25 7 62t-8 72q-78 6 -196 37q-113 30 -137 30q-19 0 -56 -9.5t-52 -9.5q-4 0 -36.5 1.5t-46.5 1.5q-22 0 -63 -3.5t-62 -3.5q-3 0 -13 -0.5t-14 -0.5q-11 -1 -17 -7q-6 -11 -15 -15q-4 -2 -4 2q0 2 2.5 7t2.5 7t-2 2l-58 -3q27 -42 102 -42
q8 0 20 2q79 -11 131 -11q35 0 56 6zM528 203q0 -16 31 -18q6 0 6 5q0 18 -23 18q-14 0 -14 -5zM457 186q28 -7 58 -7q5 0 5 8q0 20 -31 20q-13 0 -23.5 -7t-10.5 -12q0 -2 2 -2zM488 359q-22 2 -36 2q-3 0 -2 -4q8 -11 28 -26q19 -16 29 -16q6 0 7 9q-1 11 -15 29
q-4 6 -11 6zM436 305l38 3q6 0 3 3q-10 13 -25 13t-18 -14q0 -5 2 -5zM425 323l10 11q-3 14 -14.5 27.5t-24.5 13.5q-28 0 -34 -7q-26 -28 -26 -43q0 -12 11 -26q9 3 32 5h19.5t17.5 1q4 0 4 6q-14 14 -30 14q-5 0 -5 3q0 5 12 5q14 0 28 -10z" />
    <glyph glyph-name="uni261D" unicode="&#x261d;" horiz-adv-x="520" 
d="M434 352q0 -44 -30.5 -153t-37.5 -144l33 -9v-34q2 -1 7 -1t8.5 -0.5t3.5 -2.5q4 -32 4 -76q0 -58 -3 -74q-1 -4 -4 -4q-4 0 -4 6q0 26 -21 115q-113 -55 -235 -55q-39 0 -58 3q-12 -54 -17 -118q0 -5 -4 -5q-3 0 -4 4q-8 46 -8 116q26 19 63 38l5 42l67 41
q-5 17 -34.5 75t-29.5 94q0 15 3.5 37t4.5 29h-3l-2 -1q-16 0 -16 23q0 11 2 18q-2 0 -7 -2t-7 -2q-4 0 -4 3q0 14 12 45q-5 -1 -14 -1q-3 0 -3 3q1 34 12 72t22 51q2 106 31 142q3 3 9 2q43 -18 60 -71q10 13 28 13q20 0 54 -30q0 25 11 124q4 63 7 75q12 55 51 69l2 5
q2 5 4 5q4 0 4 -4q4 -27 4 -90q0 -4 2.5 -17t2.5 -18v-30q9 -45 9 -108q0 -10 -1 -34t-1 -43q0 -36 11 -73q11 -40 11 -50zM146 -2l-3 -40q33 -6 69 -6q81 0 169 36q3 24 0 45q-65 -39 -172 -39q-21 0 -63 4zM341 486q-19 -39 -31 -84q9 -2 25 3q2 1 3 -2q0 -2 -1 -3
q-17 -16 -66 -43q13 -30 13 -63q0 -10 -4 -10q-2 0 -9 20q-16 53 -40 93q-2 108 -9 143q-12 55 -46 80q-19 -19 -19 -76q0 -35 11 -35q15 0 24 24q2 7 7 7q2 0 2 -8q0 -12 -9.5 -23t-21.5 -11q-9 0 -21 16q-1 -7 -1 -21q0 -19 3.5 -38.5t10.5 -47.5t9 -38q-2 -15 -7 -43
t-8 -50.5t-3 -43.5q0 -46 29.5 -111.5t33.5 -93.5q24 -7 62 -7q37 0 72 8q6 78 37 196q30 112 30 137q0 19 -9.5 56t-9.5 52q0 4 1.5 36.5t1.5 46.5q0 22 -3.5 63t-3.5 62q0 3 -0.5 13t-0.5 14q-1 11 -7 17q-11 6 -15 15q-2 4 2 4q3 0 7 -2.5t7 -2.5q2 0 2 2l-3 58
q-42 -27 -42 -102q0 -8 2 -20q-11 -79 -11 -131q0 -35 6 -56zM142 362q-16 0 -18 -31q0 -6 5 -6q18 0 18 23q0 14 -5 14zM125 433q-7 -28 -7 -58q0 -5 8 -5q20 0 20 31q0 13 -7 23.5t-12 10.5q-2 0 -2 -2zM298 402q2 22 2 36q0 3 -4 2q-11 -8 -26 -28q-16 -19 -16 -29
q0 -6 9 -7q11 1 29 15q6 4 6 11zM244 454l3 -38q1 -3 3 -3q13 10 13 25t-14 18q-5 0 -5 -2zM262 465l11 -10q14 3 27.5 14.5t13.5 24.5q0 28 -7 34q-28 26 -43 26q-12 0 -26 -11q3 -9 5 -32q1 -5 1 -19v-18t6 -4q14 14 14 30q0 5 3 5q5 0 5 -12q0 -14 -10 -28z" />
    <glyph glyph-name="uni261E" unicode="&#x261e;" horiz-adv-x="1130" 
d="M592 495q10 0 50 -11q37 -11 73 -11q19 0 43 1t34 1q63 0 108 -9q1 -1 16 0h14q5 0 18 -2.5t17 -2.5q63 0 90 -4q4 0 4 -4q0 -2 -5 -4l-5 -2q-14 -39 -69 -51q-12 -3 -75 -7q-99 -11 -124 -11q30 -34 30 -54q0 -18 -13 -28q53 -17 71 -60q1 -6 -2 -9q-36 -29 -142 -31
q-13 -11 -51 -22t-72 -12q-3 0 -3 3q0 9 1 14q-31 -12 -45 -12q-3 0 -3 4q0 2 2 7t2 7q-7 -2 -18 -2q-23 0 -23 16l1 2v3q-7 -1 -29 -4.5t-37 -3.5q-36 0 -94 29.5t-75 34.5l-41 -67l-42 -5q-19 -37 -38 -63q-70 0 -116 8q-4 1 -4 4q0 4 5 4q64 5 118 17q-3 19 -3 58
q0 122 55 235q-89 21 -115 21q-6 0 -6 4q0 3 4 4q16 3 74 3q44 0 76 -4q2 0 2.5 -3.5t0.5 -8.5t1 -7h34l9 -33q35 7 144 37.5t153 30.5zM198 204l40 3q-4 42 -4 63q0 107 39 172q-21 3 -45 0q-36 -88 -36 -169q0 -36 6 -69zM726 402q21 -6 56 -6q52 0 131 11q12 -2 20 -2
q75 0 102 42l-58 3q-2 0 -2 -2t2.5 -7t2.5 -7q0 -4 -4 -2q-9 4 -15 15q-6 6 -17 7q-4 0 -14 0.5t-13 0.5q-21 0 -62 3.5t-63 3.5q-14 0 -46.5 -1.5t-36.5 -1.5q-15 0 -52 9.5t-56 9.5q-25 0 -137 -30q-118 -31 -196 -37q-8 -35 -8 -72t7 -62q28 -4 93.5 -33.5t111.5 -29.5
q21 0 43.5 3t50.5 8t43 7q10 -2 38 -9t47.5 -10.5t38.5 -3.5q14 0 21 1q-16 12 -16 21q0 12 11 21.5t23 9.5q8 0 8 -2q0 -5 -7 -7q-24 -9 -24 -24q0 -11 35 -11q57 0 76 19q-25 34 -80 46q-35 7 -143 9q-40 24 -93 40q-20 7 -20 9q0 4 10 4q33 0 63 -13q27 49 43 66
q3 2 5 -2q-5 -16 -3 -25q45 12 84 31zM602 203q0 5 -14 5q-23 0 -23 -18q0 -5 6 -5q31 2 31 18zM673 186q2 0 2 2q0 5 -10.5 12t-23.5 7q-31 0 -31 -20q0 -8 5 -8q30 0 58 7zM642 359q-7 0 -11 -6q-14 -18 -15 -29q1 -9 7 -9q10 0 29 16q20 15 28 26q1 4 -2 4q-14 0 -36 -2z
M656 308l38 -3q2 0 2 5q-3 14 -18 14t-25 -13q-3 -3 3 -3zM695 334l10 -11q14 10 28 10q12 0 12 -5q0 -3 -5 -3q-16 0 -30 -14q0 -6 4 -6q4 -1 18 -1h19q23 -2 32 -5q11 14 11 26q0 15 -26 43q-6 7 -34 7q-13 0 -24.5 -13.5t-14.5 -27.5z" />
    <glyph glyph-name="uni261F" unicode="&#x261f;" horiz-adv-x="520" 
d="M420 267q0 -10 -11 -50q-11 -37 -11 -73q0 -20 1 -43.5t1 -33.5q0 -63 -9 -108q-1 -1 -1 -15l1 -15q0 -5 -2.5 -18t-2.5 -17q0 -63 -4 -90q0 -4 -4 -4q-2 0 -4 5l-2 5q-39 14 -51 69q-3 12 -7 75q-11 99 -11 124q-34 -30 -54 -30q-18 0 -28 13q-17 -53 -60 -71
q-6 -1 -9 2q-29 36 -31 142q-11 13 -22 51t-12 72q0 3 3 3q9 0 14 -1q-12 31 -12 45q0 3 4 3q2 0 7 -2t7 -2q-2 7 -2 18q0 23 16 23h2q2 -1 3 -1q-1 7 -4.5 29t-3.5 37q0 36 29.5 94t34.5 75l-67 41l-5 42q-37 19 -63 38q0 70 8 116q1 4 4 4q4 0 4 -5q5 -64 17 -118
q19 3 58 3q122 0 235 -55q21 89 21 115q0 6 4 6q3 0 4 -4q3 -16 3 -74q0 -44 -4 -76q0 -2 -3.5 -2.5t-8.5 -0.5t-7 -1v-34l-33 -9q7 -35 37.5 -144t30.5 -153zM129 661l3 -40q42 4 63 4q107 0 172 -39q3 21 0 45q-88 36 -169 36q-36 0 -69 -6zM327 133q-6 -21 -6 -56
q0 -52 11 -131q-2 -12 -2 -20q0 -75 42 -102l3 58q0 2 -2 2q-3 0 -7 -2.5t-7 -2.5q-4 0 -2 4q4 9 15 15q6 6 7 17q0 4 0.5 14t0.5 13q0 21 3.5 62t3.5 63q0 14 -1.5 46.5t-1.5 36.5q0 16 9.5 53t9.5 55q0 24 -30 137q-31 118 -37 196q-35 8 -72 8q-38 0 -62 -7
q-4 -28 -33.5 -93.5t-29.5 -111.5q0 -21 3 -43.5t8 -50.5t7 -43q-2 -10 -9 -38t-10.5 -47.5t-3.5 -38.5q0 -14 1 -21q12 16 21 16q12 0 21.5 -11t9.5 -23q0 -8 -2 -8q-5 0 -7 7q-9 24 -24 24q-11 0 -11 -35q0 -57 19 -76q34 25 46 80q7 35 9 143q24 40 40 93q7 20 9 20
q4 0 4 -10q0 -33 -13 -63q49 -27 66 -43q2 -3 -2 -5q-16 5 -25 3q12 -45 31 -84zM128 257q5 0 5 14q0 23 -18 23q-5 0 -5 -6q2 -31 18 -31zM111 186q0 -2 2 -2q5 0 12 10.5t7 23.5q0 31 -20 31q-8 0 -8 -5q0 -30 7 -58zM284 217q0 7 -6 11q-18 14 -29 15q-9 -1 -9 -7
q0 -10 16 -29q15 -20 26 -28q4 -1 4 2q0 14 -2 36zM233 203l-3 -38q0 -2 5 -2q14 3 14 18t-13 25q-1 1 -2 0t-1 -3zM259 164l-11 -10q10 -14 10 -28q0 -12 -5 -12q-3 0 -3 5q0 16 -14 30q-6 0 -6 -4v-18t-1 -19q-2 -23 -5 -32q14 -11 26 -11q15 0 43 26q7 6 7 34
q0 13 -13.5 24.5t-27.5 14.5z" />
    <glyph glyph-name="uni2720" unicode="&#x2720;" horiz-adv-x="831" 
d="M174 745h484q-72 -75 -130 -175.5t-77 -185.5q82 19 177.5 76.5t172.5 130.5v-483q-77 73 -172 130t-178 76q19 -84 77 -184t130 -175h-484q71 75 129 175t77 185q-83 -19 -178 -76t-172 -130v482q77 -74 172.5 -131.5t178.5 -75.5q-19 84 -77 184.5t-130 176.5z" />
    <glyph glyph-name="u1F31A" unicode="&#x1f31a;" horiz-adv-x="830" 
d="M415 745q165 0 281.5 -115.5t116.5 -279.5t-116.5 -279.5t-281.5 -115.5t-281.5 115.5t-116.5 279.5t116.5 279.5t281.5 115.5zM415 711q-151 0 -257.5 -106t-106.5 -255t106.5 -255t257.5 -106t257.5 106t106.5 255t-106.5 255t-257.5 106zM428 0v76h-3q-14 0 -23 -1
v-75h-14v73q-15 -3 -26 -7v-63q-6 0 -14 2v55q-18 -10 -26 -17v-32q-3 1 -14 4v138q-4 -4 -8.5 -8t-9.5 -9.5t-8 -8.5v-103l-14 6v84l-9 -6q-5 -4 -17 -10v-55l-14 9v41q-20 -6 -26 -6v-18l-14 12v352q-1 0 -2 -1h-2q-18 -6 -22 -6v-321l-14 15v359h-2q-12 -1 -24 -6v-320
q-10 14 -14 22v294l-4 -2q-6 -2 -8 0q-5 6 12 17v41l14 22v-54l26 13v74l14 15v-83l11.5 5.5t14.5 6.5v74q-4 1 -4 3q0 4 4 5v13q6 7 14 11v-19q6 2 17 4q1 0 4 0.5t5 0.5v32q7 5 14 8v-38q4 0 12.5 0.5t12.5 0.5h1v50l14 6v-17q2 5 26 10v16q4 2 14 4v-18h2q8 1 24 1v23
l14 3v-28q2 0 6 -0.5t7 -0.5l13 -2v34h14v-35h26v35h14v-35q3 0 11.5 0.5t14.5 0.5v31l14 -3v-27q11 1 26 1v20q11 -3 14 -4v-17l1 -1h2q10 -3 10 -5q0 -3 -13 -5v-39q9 1 26 1v57l14 -6v-51q18 0 26 -1v39q2 -1 14 -8v-32l20 -4q1 0 3 -1t3 -1v20q1 -1 14 -11v-105
q5 -2 14 -6.5t12 -5.5v93l14 -15v-85l23 -14l3 -3v69l14 -22v-350l-14 -22v316q-5 0 -6 1l-20 6v-356l-14 -15v375l-26 5v-40v-2v-345q15 -6 8 -10q-2 -1 -6 -1h-2v-6l-14 -12v20q-14 3 -26 8v-45l-14 -9v59q-3 1 -6 4q-8 4 -20 16v-92l-14 -6v113q-5 5 -21 28q-1 0 -3 -0.5
l-2 -0.5v-105l8 -9q5 -6 -2 -9q-3 -1 -5 1q-1 0 -1 1v-28q-10 -2 -14 -4v42q-8 5 -26 13v-61q-10 -2 -14 -2v68q-8 2 -26 4v-75h-14zM202 98q10 2 26 11v332q-18 -2 -26 -4v-339zM602 122q11 -10 26 -18v334l-2 1q-21 5 -24 5v-322zM417 260q6 -8 11 -10v323q-9 -1 -26 -1
v-301q5 -3 15 -11zM376 263q6 6 12 7v302q-8 1 -24 5h-2v-52q8 -4 10 -6q8 -10 -10 -34v-37q7 -7 7 -16q0 -10 -7 -14v-109q7 -1 7 -9q0 -2 -6 -10l-1 -1v-32q8 0 14 6zM562 163q16 -20 26 -29v311h-10v-4q0 -21 -16 -34v-244zM242 119q15 14 26 27v252q-18 5 -26 19v-298z
M346 302l2 2v115q-2 1 -5.5 5.5t-4.5 5.5q-3 3 -13 8h-2q0 -2 -0.5 -5t-0.5 -4v-244l20 4h6v52q-15 15 -14 36q2 17 12 25zM485 253l-3 -6v-54q14 3 26 2v211q-15 11 -17 31l-9 -2v-96q17 -57 3 -86zM282 168q17 31 26 63v177q-13 -11 -26 -11v-229zM528 230q5 -22 20 -46
v216q-5 -2 -14 -2q-8 0 -12 1v-154q2 -2 6 -15zM68 421q4 21 14 48v-239q-10 27 -14 49v142zM762 279q-7 -31 -14 -49v239q6 -16 14 -48v-142zM449 365l-7 25v-143q23 1 26 39v7q0 15 -6 37q-1 5 -6.5 17.5t-6.5 17.5zM348 149q-16 5 -26 6v-96q15 15 26 22v68zM602 529
l11.5 -4l14.5 -5v87q-7 -2 -25 -1h-1v-77zM508 160l-26 -9v-61q13 -7 26 -17v87zM562 538q16 -2 26 -5v72q-8 0 -26 -2v-65zM202 528q11 4 26 7v65h-6q-4 0 -10.5 -0.5t-9.5 -0.5v-71zM242 538q16 2 26 2v58q-16 2 -26 2v-62zM542 539h6v61q-13 -2 -26 -6v-55h20zM282 540
q8 0 26 -2v54l-26 5v-57zM404 234l-2 -2v-50q9 -2 26 -2v48l-3 2q-16 8 -21 4zM327 535q2 -1 10 -2.5t11 -2.5v51l-19 5q-3 0 -7 2v-52q1 -1 5 -1zM453 527q5 3 15 6v47q-18 -4 -26 -5v-64q5 11 11 16zM482 536q14 2 26 2v53l-14 -4l-12 -3v-48zM388 140q-4 0 -26 6v-58
q14 7 26 11v41zM468 147q-6 -2 -26 -7v-38q12 -1 26 -6v51zM464 231q-14 -6 -22 -6v-43q11 2 26 6v44h-2q-1 -1 -2 -1zM367 230h-3l-2 1v-42q4 0 12.5 -2t13.5 -3v44q-11 -2 -21 2zM362 611q18 -2 26 -2v40l-15.5 2.5t-10.5 1.5v-42zM339 614q3 -1 9 -1v41q-10 1 -26 1v-39
q10 -2 17 -2zM488 614q12 2 20 2v39l-26 -4v-38q4 0 6 1zM442 609l26 2v39h-2q-3 0 -7.5 -1t-8.5 -1.5t-8 -0.5v-38zM428 646q-19 0 -26 1v-38h26v37zM282 619l26 -2v38q-26 -2 -26 2v-38zM186 488q-12 -4 -24 -7v-39q8 8 26 14v32h-2zM418 137q-11 0 -16 1v-36q14 2 21 2h5
v33h-10zM453 461q0 -32 15 -78v52q-11 2 -11 10q0 7 11 13v26h-1q-14 -7 -14 -23zM228 493l-26 -2v-31l10 2q10 2 16 2v29zM628 487l-26 3v-25q10 -1 26 -7v29zM268 493h-26v-27l26 2v25zM572 492h-10v-24q4 0 12.5 -0.5t13.5 -0.5v24q-6 1 -16 1zM505 490l-23 -2v-25
q6 2 26 4v23h-3zM548 492q-18 0 -26 -1v-24q9 1 26 1v24zM284 468q5 0 13 -0.5t11 -0.5v22h-2l-24 3v-24h2zM334 480q-9 4 -12 5v-20q11 -1 21 -5l5 -3v18q-6 0 -14 5z" />
    <glyph glyph-name="u1F31B" unicode="&#x1f31b;" horiz-adv-x="830" 
d="M96 637l-19 29q116 79 269 79q177 0 302.5 -116t125.5 -279t-125.5 -279t-302.5 -116q-79 0 -150.5 27t-121.5 67l19 26q65 -48 144 -71q36 -9 62.5 -8.5t37.5 5.5q32 14 39 39q5 18 10.5 26t20.5 19q19 15 20.5 27.5t-13.5 32.5q-21 25 0 43q6 5 13 6l-9 7q-12 9 -7 23
q12 28 9 39q-6 6 -23 2q-51 -8 -65 29q-10 24 8 58q10 19 29 46q22 33 30 48q19 38 -18 76q-16 18 -19 27t-2 34q6 79 -57 106q-40 17 -80 5q-59 -17 -127 -57zM346 711q-5 0 -15 -0.5t-15 -0.5q4 -3 9 -4q28 -11 45 -42q12 -23 15 -74q0 -4 0.5 -17t1.5 -18t14.5 -23
t18.5 -26q19 -35 -2 -72q-2 -4 -28 -43q-47 -65 -33 -94q5 -10 13.5 -9.5t15.5 11.5q9 13 24 11.5t27 -16.5q10 -14 25 -7t12 47q-2 22 2 29q4 8 8 1q3 -6 3 -12q0 -19 14 -51t33 -55q28 -32 78 -65q12 -10 2 -11q-9 0 -35.5 13t-42.5 25q-26 20 -40 50q-5 10 -7.5 12
t-10.5 -2q-5 -4 -18 -4q-10 0 -13 -2l-6 -18q-5 -16 -3 -20.5t15 -8.5q22 -7 31 -13q14 -7 28.5 -21.5t14.5 -20.5q0 -3 -1 -4.5t-4 -1.5t-8 2l-13 5q-28 10 -41 11q-26 2 -29 -4q-1 -1 10 -20q16 -28 5 -51q-3 -6 -24 -29q-18 -18 -21 -35q-4 -17 -17 -28q-12 -12 -14 -15
q138 10 232.5 113.5t94.5 246.5q0 149 -103 255t-248 106zM428 524q2 0 18 -4q17 -2 34 -6q31 -6 68 -29q4 -2 14 -9t14 -9q9 -4 10 -7.5t-3 -9.5q-4 -5 -25 -4q-15 1 -39 -3t-35 -9q-1 -1 -4.5 -2l-9 -2.5t-8.5 -2.5q-9 -3 -13.5 -0.5t-2.5 7.5l7 6q9 6 21 11q33 15 70 15
q-21 21 -62 23q-1 -1 -1 -7t-1 -10q-9 -26 -19 -17q-5 4 -13 35q-2 11 -12 20q-2 2 -6.5 5.5t-4.5 4v3.5q1 1 3 1zM402 570q0 24 54 24q34 -2 96 -64q29 -29 75 -48q4 -1 7.5 -3.5t1.5 -4.5q-6 -9 -40 6q-17 8 -52 32q-65 47 -109 43q-19 -2 -26 1t-7 14z" />
    <glyph glyph-name="u1F31C" unicode="&#x1f31c;" horiz-adv-x="830" 
d="M753 666l-19 -29q-68 40 -127 57q-40 12 -80 -5q-63 -27 -57 -106q1 -25 -2 -34t-19 -27q-37 -38 -18 -76q8 -15 30 -48q19 -27 29 -46q18 -34 8 -58q-14 -37 -65 -29q-17 4 -23 -2q-3 -11 9 -39q5 -14 -7 -23l-9 -7q7 -1 13 -6q21 -18 0 -43q-15 -20 -13.5 -32.5
t20.5 -27.5q15 -11 20.5 -19t10.5 -26q7 -25 39 -39q11 -5 37.5 -5.5t62.5 8.5q79 23 144 71l19 -26q-50 -40 -121.5 -67t-150.5 -27q-177 0 -302.5 116t-125.5 279t125.5 279t302.5 116q153 0 269 -79zM484 711q-145 0 -248 -106t-103 -255q0 -143 94.5 -246.5
t232.5 -113.5q-2 3 -14 15q-13 11 -17 28q-3 17 -21 35q-21 23 -24 29q-11 23 5 51q11 19 10 20q-3 6 -29 4q-13 -1 -41 -11l-13 -5t-8 -2t-4 1.5t-1 4.5q0 6 14.5 20.5t28.5 21.5q9 6 31 13q13 4 15 8.5t-3 20.5q-1 3 -2 7.5t-2 7t-2 3.5q-3 2 -13 2q-13 0 -18 4
q-8 4 -10.5 2t-7.5 -12q-14 -30 -40 -50q-16 -12 -42.5 -25t-35.5 -13q-10 0 -2 7q1 2 4 4q50 33 78 65q19 23 33 55t14 51q0 6 3 12q4 7 8 -1q4 -7 2 -29q-3 -40 12 -47t25 7q12 15 27 16.5t24 -11.5q7 -11 15.5 -11.5t13.5 9.5q14 29 -33 94q-26 39 -28 43q-21 37 -2 72
q5 8 18.5 26t14.5 23t1.5 18t0.5 17q3 51 15 74q17 31 45 42q5 1 9 4q-5 0 -15 0.5t-15 0.5zM402 524q2 0 3 -1q2 -2 -4 -7q-5 -4 -7 -6q-10 -9 -12 -20q-8 -31 -13 -35q-10 -9 -19 17q-1 4 -1 10t-1 7q-41 -2 -62 -23q37 0 70 -15l21 -11q6 -3 7 -6q2 -5 -2.5 -7.5
t-13.5 0.5q-3 1 -8.5 2.5l-9 2.5t-4.5 2q-11 5 -35 9t-39 3q-21 -1 -25 4q-4 6 -3 9.5t10 7.5q4 2 14 9t14 9q37 23 68 29q17 4 34 6q16 4 18 4zM428 570q0 -11 -7 -14t-26 -1q-44 4 -109 -43q-35 -24 -52 -32q-34 -15 -40 -6q-2 2 1.5 4.5t7.5 3.5q46 19 75 48q62 62 96 64
q54 0 54 -24z" />
    <glyph glyph-name="u1F31D" unicode="&#x1f31d;" horiz-adv-x="830" 
d="M415 745q165 0 281.5 -115.5t116.5 -279.5t-116.5 -279.5t-281.5 -115.5t-281.5 115.5t-116.5 279.5t116.5 279.5t281.5 115.5zM415 711q-151 0 -257.5 -106t-106.5 -255t106.5 -255t257.5 -106t257.5 106t106.5 255t-106.5 255t-257.5 106zM542 539q26 0 53 -8
q64 -17 110 -50q7 -5 7 -10q0 -4 -10 -1l-23 7q-49 13 -107 15q-45 0 -67 -2q-28 -2 -38 -6q-14 -7 -14 -23q0 -11 0.5 -19t3.5 -19.5t5 -18l8.5 -28.5t11.5 -37q17 -57 3 -86q-9 -17 -21 -22q-20 -9 -39 -1q-16 8 -21 4q-12 -10 -37 -4q-15 4 -24.5 17.5t-8.5 29.5
q2 17 12 25q7 7 14 7q9 0 9 -9q0 -2 -6 -10q-16 -20 -7 -29q8 -8 20 2q9 9 19 9t22 -12q13 -13 22 -13q29 0 29 46q0 15 -6 37q-1 5 -6.5 17.5t-6.5 17.5q-15 56 -15 87q0 59 19 75q17 12 89 12zM317 258h1q3 -2 3.5 -26t-1.5 -37l-2 -10l24 4q11 2 48 -5q42 -7 86 7
q17 7 45 3q0 1 -0.5 3.5l-1.5 7.5t-2 9q-3 19 0 28q5 9 10 -9q1 -1 1 -3q12 -42 43.5 -79t70.5 -53q15 -6 8 -10q-2 -1 -6 -1q-11 0 -32 6.5t-30 12.5t-18.5 15t-14.5 15t-12.5 16.5t-9.5 12.5q-1 0 -46 -14t-63 -14q-21 0 -58.5 9.5t-48.5 9.5l-22 -22t-30 -26
q-26 -19 -58 -21q-12 -1 -11 4q0 4 12 7q36 11 66 48q30 40 44 101q2 11 5 11zM271 540q31 0 56 -5q36 -7 45 -16q9 -11 -11 -35q-12 -13 -27 -4q-7 6 -28 9q-21 5 -61.5 4.5t-58.5 -5.5q-15 -5 -40 -9q-22 -3 -42 -12q-6 -2 -8 0q-4 6 10.5 16.5t47.5 25.5q65 31 117 31z
M267 619q30 0 72 -5q74 -10 149 0q82 12 134 -2q16 -4 -1 -6h-18q-43 0 -109 -19q-80 -23 -130 -10l-35 9q-53 15 -107 14q-7 0 -18 -1t-15.5 -0.5t-4.5 2.5q0 7 35 14q24 4 48 4zM284 468q43 -1 59 -8q26 -12 26 -28q0 -15 -14 -15q-4 0 -6.5 1.5t-6 6t-4.5 5.5q-3 3 -13 8
h-2q-1 -17 -14 -29t-30 -12q-18 0 -30.5 12.5t-12.5 30.5v2h-3q-33 -4 -49 -10q-23 -8 -26 -4q-5 9 10 18.5t44 15.5q30 6 72 6zM554 468q55 0 77 -11q11 -5 11 -14q0 -8 -16 -4q-24 6 -48 6v-4q0 -18 -13 -30.5t-31 -12.5q-17 0 -29 11t-14 28q-10 -2 -15 -2q-19 -2 -19 10
q0 8 13 14q21 9 84 9zM311 44q11 21 44 40.5t68 19.5q66 0 107 -54q5 -6 -2 -9q-3 -1 -5 1q-39 34 -98 34q-69 0 -108 -37q-3 -3 -5.5 -0.5t-0.5 5.5zM324 670q19 2 51 -2q43 -4 102 -1q36 3 48 -1q10 -3 10 -5q0 -4 -26 -6l-43 -5q-45 -7 -72 -2q-59 9 -84 7q-28 -2 -28 3
q0 8 42 12z" />
    <glyph glyph-name="g.alt" horiz-adv-x="522" 
d="M302 -20h-89q-43 -6 -69 -24.5t-26 -43.5q0 -24 33 -42t89 -18q70 0 114 22t44 54q0 52 -96 52zM174 280q0 -34 25.5 -58t62.5 -24t63 24t26 58t-26 58.5t-63 24.5t-62.5 -24t-25.5 -59zM262 447h216v-84h-22q-32 0 -42 7l-3 -3q30 -35 30 -87q0 -69 -52.5 -117.5
t-126.5 -48.5q-47 0 -88 22q-32 -11 -32 -38q0 -14 17 -24t40 -10h103q96 0 141 -34.5t45 -93.5q0 -74 -68 -121t-180 -47q-100 0 -156 39t-56 99q0 41 25 69.5t61 39.5v4q-26 5 -44 27t-18 52q0 57 58 95q-26 41 -26 87q0 69 52 118t126 49z" />
    <glyph glyph-name="gcircumflex.alt" horiz-adv-x="522" 
d="M302 -20h-89q-43 -6 -69 -24.5t-26 -43.5q0 -24 33 -42t89 -18q70 0 114 22t44 54q0 52 -96 52zM174 280q0 -34 25.5 -58t62.5 -24t63 24t26 58t-26 58.5t-63 24.5t-62.5 -24t-25.5 -59zM262 447h216v-84h-22q-32 0 -42 7l-3 -3q30 -35 30 -87q0 -69 -52.5 -117.5
t-126.5 -48.5q-47 0 -88 22q-32 -11 -32 -38q0 -14 17 -24t40 -10h103q96 0 141 -34.5t45 -93.5q0 -74 -68 -121t-180 -47q-100 0 -156 39t-56 99q0 41 25 69.5t61 39.5v4q-26 5 -44 27t-18 52q0 57 58 95q-26 41 -26 87q0 69 52 118t126 49zM270 583l-67 -67l-40 40
l107 106l107 -106l-40 -40z" />
    <glyph glyph-name="gbreve.alt" horiz-adv-x="522" 
d="M302 -20h-89q-43 -6 -69 -24.5t-26 -43.5q0 -24 33 -42t89 -18q70 0 114 22t44 54q0 52 -96 52zM174 280q0 -34 25.5 -58t62.5 -24t63 24t26 58t-26 58.5t-63 24.5t-62.5 -24t-25.5 -59zM262 447h216v-84h-22q-32 0 -42 7l-3 -3q30 -35 30 -87q0 -69 -52.5 -117.5
t-126.5 -48.5q-47 0 -88 22q-32 -11 -32 -38q0 -14 17 -24t40 -10h103q96 0 141 -34.5t45 -93.5q0 -74 -68 -121t-180 -47q-100 0 -156 39t-56 99q0 41 25 69.5t61 39.5v4q-26 5 -44 27t-18 52q0 57 58 95q-26 41 -26 87q0 69 52 118t126 49zM344 640l60 -16
q-13 -46 -49.5 -71.5t-87.5 -25.5t-87.5 25.5t-49.5 71.5l60 16q16 -55 77 -55t77 55z" />
    <glyph glyph-name="gdotaccent.alt" horiz-adv-x="522" 
d="M302 -20h-89q-43 -6 -69 -24.5t-26 -43.5q0 -24 33 -42t89 -18q70 0 114 22t44 54q0 52 -96 52zM174 280q0 -34 25.5 -58t62.5 -24t63 24t26 58t-26 58.5t-63 24.5t-62.5 -24t-25.5 -59zM262 447h216v-84h-22q-32 0 -42 7l-3 -3q30 -35 30 -87q0 -69 -52.5 -117.5
t-126.5 -48.5q-47 0 -88 22q-32 -11 -32 -38q0 -14 17 -24t40 -10h103q96 0 141 -34.5t45 -93.5q0 -74 -68 -121t-180 -47q-100 0 -156 39t-56 99q0 41 25 69.5t61 39.5v4q-26 5 -44 27t-18 52q0 57 58 95q-26 41 -26 87q0 69 52 118t126 49zM267 628q23 0 38.5 -16
t15.5 -38t-15.5 -38t-38.5 -16t-38.5 16t-15.5 38t15.5 38t38.5 16z" />
    <glyph glyph-name="gcaron.alt" horiz-adv-x="522" 
d="M302 -20h-89q-43 -6 -69 -24.5t-26 -43.5q0 -24 33 -42t89 -18q70 0 114 22t44 54q0 52 -96 52zM174 280q0 -34 25.5 -58t62.5 -24t63 24t26 58t-26 58.5t-63 24.5t-62.5 -24t-25.5 -59zM262 447h216v-84h-22q-32 0 -42 7l-3 -3q30 -35 30 -87q0 -69 -52.5 -117.5
t-126.5 -48.5q-47 0 -88 22q-32 -11 -32 -38q0 -14 17 -24t40 -10h103q96 0 141 -34.5t45 -93.5q0 -74 -68 -121t-180 -47q-100 0 -156 39t-56 99q0 41 25 69.5t61 39.5v4q-26 5 -44 27t-18 52q0 57 58 95q-26 41 -26 87q0 69 52 118t126 49zM203 643l67 -67l67 67l40 -40
l-107 -106l-107 106z" />
    <glyph glyph-name="uni01F5.alt" horiz-adv-x="522" 
d="M302 -20h-89q-43 -6 -69 -24.5t-26 -43.5q0 -24 33 -42t89 -18q70 0 114 22t44 54q0 52 -96 52zM174 280q0 -34 25.5 -58t62.5 -24t63 24t26 58t-26 58.5t-63 24.5t-62.5 -24t-25.5 -59zM262 447h216v-84h-22q-32 0 -42 7l-3 -3q30 -35 30 -87q0 -69 -52.5 -117.5
t-126.5 -48.5q-47 0 -88 22q-32 -11 -32 -38q0 -14 17 -24t40 -10h103q96 0 141 -34.5t45 -93.5q0 -74 -68 -121t-180 -47q-100 0 -156 39t-56 99q0 41 25 69.5t61 39.5v4q-26 5 -44 27t-18 52q0 57 58 95q-26 41 -26 87q0 69 52 118t126 49zM245 523l-41 32l120 151l81 -45
z" />
    <glyph glyph-name="S.alt" horiz-adv-x="474" 
d="M303 -10l-38 80q37 8 58.5 35t21.5 63q0 27 -9.5 50t-30 44.5t-37.5 35.5t-47 36q-42 30 -60.5 44.5t-48 43t-42 59.5t-12.5 67q0 72 49.5 118t128.5 46q107 0 189 -99l-73 -55q-51 70 -116 70q-40 0 -62 -22t-22 -54q0 -27 18 -52.5t34.5 -38.5t58.5 -42q9 -7 14 -10
q37 -26 59.5 -44.5t50 -48.5t40.5 -64.5t13 -75.5q0 -69 -36 -118t-101 -68z" />
    <glyph glyph-name="G.alt" horiz-adv-x="747" 
d="M601 332h97q0 -8 -0.5 -54t-0.5 -66v-112q-115 -120 -287 -120q-153 0 -261.5 108.5t-108.5 261.5t108.5 261.5t261.5 108.5q82 0 154 -33.5t124 -92.5l-68 -62q-38 47 -93 73.5t-117 26.5q-114 0 -194.5 -82.5t-80.5 -199.5t80.5 -199.5t194.5 -82.5q109 0 192 67v77
q0 20 -0.5 66t-0.5 54z" />
    <glyph glyph-name="A.alt" 
d="M359 738l287 -629q7 -16 27 -58.5t23 -50.5h-103q-16 38 -31 70l-175 383q-25 54 -25 75h-4q0 -21 -24 -75l-170 -383q-15 -32 -31 -70h-103l50 109z" />
    </font>
</defs>
</svg>
